<?xml version="1.0" encoding="UTF-8"?>
<svg version="1.1" xmlns="http://www.w3.org/2000/svg" width="668" height="815">
<path d="M0 0 C12.07360318 10.14614418 22.24101579 21.16952366 30 35 C30.70769531 36.21236328 30.70769531 36.21236328 31.4296875 37.44921875 C42.85396206 58.34641662 43.77908738 84.28483492 38 107 C37.81147461 107.74523926 37.62294922 108.49047852 37.42871094 109.25830078 C31.07638524 133.07206638 18.27857434 160.55751975 1.38476562 178.73828125 C-0.56152689 181.91713419 -0.43572497 184.46337854 -0.51171875 188.171875 C-0.52966995 188.8542926 -0.54762115 189.53671021 -0.56611633 190.23980713 C-0.62010383 192.4098094 -0.65407583 194.57959325 -0.6875 196.75 C-0.72068352 198.22529074 -0.75517415 199.70055269 -0.79101562 201.17578125 C-0.87582158 204.78364427 -0.94268837 208.39158362 -1 212 C-0.3723877 212.30381592 0.25522461 212.60763184 0.90185547 212.9206543 C30.8353665 228.3193106 52.33074008 285.63810522 61.96826172 314.94433594 C72.56655727 348.10763817 77.62975006 382.24720663 79.40527344 416.93457031 C79.50437012 418.84641113 79.50437012 418.84641113 79.60546875 420.796875 C79.65856201 421.92448242 79.71165527 423.05208984 79.76635742 424.21386719 C79.89668552 427.08313028 79.89668552 427.08313028 81 430 C82.84926158 431.0906969 82.84926158 431.0906969 85.1640625 431.91015625 C86.03168213 432.25481934 86.89930176 432.59948242 87.79321289 432.95458984 C89.19494751 433.50300537 89.19494751 433.50300537 90.625 434.0625 C116.61858404 444.75034014 135.90660244 463.1656825 147.20703125 489.0390625 C155.38944866 509.27341492 155.36172632 532.22325152 147.25 552.4375 C143.53921248 560.52204452 138.51635506 566.97237157 132 573 C131.52433594 573.46921875 131.04867187 573.9384375 130.55859375 574.421875 C116.8291814 587.25804847 99.77601246 588.49509857 82 589 C81.93268677 589.85658203 81.93268677 589.85658203 81.86401367 590.73046875 C77.99184333 639.26038452 72.22817315 688.29980126 38.30078125 725.71875 C36.50853756 728.8619041 37.0685227 730.57252526 38 734 C38.49293313 735.30256941 39.01291942 736.5953003 39.5625 737.875 C42.24420152 745.70769255 42.55742788 756.25397217 39.4375 764 C34.60972635 772.85938813 28.46475904 777.84508032 19 781 C11.3574691 781.59922157 4.70676471 781.6851894 -2.1328125 777.97265625 C-4.17483334 776.90892573 -5.70344027 776.25077376 -8 776 C-10.2867152 776.92640296 -10.2867152 776.92640296 -12.5 778.375 C-19.88464994 782.90189157 -27.53680229 782.65504626 -36 782 C-40.53700212 780.70107538 -44.09681303 778.60212464 -48 776 C-51.5853441 776.36907954 -54.48256273 777.61088376 -57.75 779.0625 C-67.61709357 782.70265749 -79.77819608 782.60575151 -89.4921875 778.4765625 C-95.2451589 775.08929897 -100.29737753 770.5539337 -104 765 C-106.76686348 764.5278661 -106.76686348 764.5278661 -110.07780457 764.58540344 C-111.37463165 764.56971817 -112.67145874 764.5540329 -114.00758362 764.53787231 C-115.45321609 764.53573099 -116.89884912 764.53394238 -118.34448242 764.5324707 C-119.86050394 764.52022537 -121.37651614 764.50677394 -122.89251709 764.49220276 C-127.01877993 764.45707167 -131.14488267 764.44188005 -135.27127624 764.43236566 C-137.84933636 764.42579688 -140.42735379 764.41545429 -143.00539589 764.40386009 C-152.00011343 764.3640888 -160.99470262 764.34209447 -169.98950195 764.33422852 C-178.37176484 764.32636403 -186.75311101 764.27716954 -195.13508147 764.20916301 C-202.33095391 764.1528207 -209.52652189 764.12731464 -216.72261316 764.12528104 C-221.02069106 764.12344063 -225.31780389 764.10880935 -229.61565208 764.06246376 C-233.66183872 764.01976188 -237.70629083 764.01545738 -241.75260925 764.04025841 C-243.23487773 764.04284131 -244.71724398 764.03182928 -246.19928932 764.00598145 C-254.24159571 763.66042791 -254.24159571 763.66042791 -261.34984779 766.76492882 C-263.22707564 768.84814579 -263.22707564 768.84814579 -264.64026356 771.06120586 C-266.90558341 774.29123538 -269.69663899 775.30310776 -273.25 776.9375 C-273.86101562 777.22689453 -274.47203125 777.51628906 -275.1015625 777.81445312 C-283.6183724 781.80322108 -293.2049672 782.48245025 -302.359375 780.140625 C-304.95069603 779.17413229 -307.46524706 778.10341518 -310 777 C-312.04562338 776.20376017 -312.04562338 776.20376017 -314 776 C-316.03335209 777.28189588 -318.03081154 778.62156808 -320 780 C-324.5822656 781.88176613 -328.84147026 782.3855724 -333.75 782.375 C-334.45229736 782.37483887 -335.15459473 782.37467773 -335.87817383 782.37451172 C-341.91082873 782.24287 -346.62371546 780.72292415 -352 778 C-354.47936978 776.70475026 -354.47936978 776.70475026 -357 776 C-360.31413738 777.59350289 -360.31413738 777.59350289 -362.25390625 778.95703125 C-368.28851587 782.56159673 -377.26106273 781.90374865 -383.828125 780.31640625 C-392.53500148 777.09806694 -397.73829308 772.29527466 -402.0546875 764.1484375 C-405.84748174 755.52845059 -404.4217876 744.84998926 -402 736 C-401.34 735.01 -400.68 734.02 -400 733 C-400.23965249 728.64396349 -401.87758568 726.66508214 -404.875 723.625 C-436.67520382 689.49918509 -445.02290864 640.4810355 -446.71020508 595.21411133 C-446.54311814 591.81672715 -446.54311814 591.81672715 -448 589 C-449.72115925 588.88567946 -451.44313944 588.77850587 -453.16674805 588.71044922 C-470.95408474 588.00211291 -485.55345821 582.56997095 -498.33984375 569.88671875 C-513.9318855 552.96672043 -515.92684707 533.13766616 -515.18652344 511.18798828 C-514.18192154 494.0177113 -505.88035608 477.09262811 -495 464 C-493.87658203 462.63294922 -493.87658203 462.63294922 -492.73046875 461.23828125 C-480.93347015 447.57358336 -466.18062646 438.39037678 -449.5 431.75 C-447.7675 430.88375 -447.7675 430.88375 -446 430 C-444.85834293 426.34693831 -444.79235358 422.59233206 -444.60546875 418.78515625 C-444.5394043 417.55716309 -444.47333984 416.32916992 -444.40527344 415.06396484 C-444.37042847 414.41304871 -444.3355835 413.76213257 -444.29968262 413.0914917 C-440.81197132 350.01097668 -425.6733723 273.6733723 -379 227 C-378.50778088 220.88295634 -378.34223412 214.76657481 -378.21044922 208.63232422 C-378.15424089 206.57188746 -378.0728977 204.51195669 -377.96435547 202.45361328 C-377.28092119 189.23697991 -378.23677116 180.54484562 -387.11233521 170.32092285 C-388.23509565 169.08765208 -389.36766522 167.86321233 -390.5116272 166.64958191 C-405.40725572 150.14057335 -408.99557706 126.26635383 -408.21337891 105.00537109 C-406.99429079 87.83491952 -397.40374225 70.51803723 -386 58 C-385.47277344 57.38125 -384.94554687 56.7625 -384.40234375 56.125 C-372.98847442 43.56133057 -355.46756386 37.10112157 -338.89453125 35.74609375 C-326.10133121 35.29797036 -313.55801581 37.85252219 -301 40 C-300.19290588 40.13764771 -299.38581177 40.27529541 -298.55426025 40.41711426 C-295.87593226 40.87393409 -293.19771297 41.33138593 -290.51953125 41.7890625 C-289.60770081 41.94485275 -288.69587036 42.10064301 -287.75640869 42.26115417 C-283.18689694 43.04280498 -278.61828999 43.82915944 -274.05126953 44.62524414 C-273.18982834 44.77444305 -272.32838715 44.92364197 -271.44084167 45.07736206 C-269.82905843 45.35658807 -268.21762617 45.63785194 -266.60664368 45.92166138 C-229.1625321 52.38704149 -197.99519813 42.14201156 -165.56323242 23.90844727 C-118.50835321 -2.54323432 -50.0721432 -38.95248825 0 0 Z " fill="#E08727" transform="translate(515,33)"/>
<path d="M0 0 C2.19684765 1.78113048 4.34950919 3.59940215 6.5 5.4375 C7.51126953 6.29408203 7.51126953 6.29408203 8.54296875 7.16796875 C13.24056571 11.50850371 16.83397059 16.81562672 20.5065918 22.02050781 C24.50044818 27.68817473 24.50044818 27.68817473 29.5 32.4375 C32.58180829 32.88011703 32.58180829 32.88011703 35.5 31.4375 C37.37678052 29.29218172 38.80924511 27.37943245 40.3125 25 C41.17891075 23.71298086 42.05006361 22.42914217 42.92578125 21.1484375 C43.35713379 20.51518555 43.78848633 19.88193359 44.23291016 19.22949219 C58.45997075 -0.89124476 81.60479827 -15.17401552 105.7421875 -19.90625 C130.73194855 -23.89431997 155.53220411 -18.67543954 176.5 -4.5625 C180.31738211 -1.71998698 183.93973322 1.28017814 187.5 4.4375 C188.54607422 5.35789062 188.54607422 5.35789062 189.61328125 6.296875 C200.21564369 16.24057364 207.86626348 29.13999341 213.5 42.4375 C213.5 43.4275 213.5 44.4175 213.5 45.4375 C211.55859375 46.9453125 211.55859375 46.9453125 208.9375 48.5625 C196.50869915 56.98257494 189.29339331 71.91745557 186.5 86.4375 C186.08243645 90.92647849 186.03451239 95.36899531 186.0625 99.875 C186.04251953 101.01259766 186.02253906 102.15019531 186.00195312 103.32226562 C186.00872882 115.20006478 188.6232984 124.67357455 196.97265625 133.30078125 C200.78290477 136.52211964 204.88152356 138.60553649 209.5 140.4375 C208.89733215 144.94477647 207.13400206 148.2962963 204.9375 152.25 C204.4434668 153.1462207 204.4434668 153.1462207 203.93945312 154.06054688 C203.13226733 155.52283998 202.31695083 156.9806399 201.5 158.4375 C203.2015625 158.4065625 203.2015625 158.4065625 204.9375 158.375 C208.5 158.4375 208.5 158.4375 209.5 159.4375 C209.75199247 161.18651301 209.9448907 162.94409363 210.11328125 164.703125 C210.22510742 165.81155762 210.33693359 166.91999023 210.45214844 168.06201172 C210.57106445 169.25842285 210.68998047 170.45483398 210.8125 171.6875 C211.83152112 181.54895247 213.19233561 191.21357016 215.31762695 200.89941406 C216.76742649 207.73032034 216.01284164 211.70400282 213 218.0625 C207.73323016 229.23907553 208.4041324 240.19304864 212.23999023 251.72412109 C216.44102727 263.32427551 224.26507888 273.21682016 233.58984375 281.234375 C236.32685177 284.39116953 237.46601671 287.85380507 238.875 291.75 C239.48928475 293.37901887 240.10387253 295.00792351 240.71875 296.63671875 C241.56738789 298.91924641 242.41320842 301.20279364 243.2578125 303.48681641 C245.47670042 309.44093392 247.66106563 315.16662157 250.9453125 320.609375 C251.36699707 321.3111084 251.78868164 322.0128418 252.22314453 322.73583984 C253.04991097 324.08048139 253.90123533 325.41045231 254.78076172 326.72119141 C257.00445855 330.30595214 257.82711983 332.61234486 256.98828125 336.8125 C255.56394211 341.69431593 253.70705309 346.39943764 251.6875 351.0625 C251.29860596 351.96129883 250.90971191 352.86009766 250.5090332 353.78613281 C242.78678982 371.15032406 232.91069058 387.27209416 221.5 402.4375 C221.04995605 403.03771973 220.59991211 403.63793945 220.13623047 404.25634766 C218.05102868 407.02562447 215.94055958 409.7648655 213.78515625 412.48046875 C211.47615513 415.38514655 211.47615513 415.38514655 209.55859375 418.42578125 C205.06941152 425.05177674 205.06941152 425.05177674 200.95703125 426.0625 C198.8478266 426.15166057 196.73608831 426.1875 194.625 426.1875 C189.25144839 426.32862358 184.17333741 427.82986752 179 429.1875 C177.96681641 429.45651123 176.93363281 429.72552246 175.86914062 430.00268555 C173.7691515 430.5503036 171.66954102 431.09937576 169.5703125 431.64990234 C165.77313984 432.62395443 161.95970783 433.5127078 158.13964844 434.3918457 C130.55616093 439.79473542 130.55616093 439.79473542 109.5 456.4375 C108.25218428 459.28332488 107.08280523 462.13265341 106.00390625 465.046875 C103.90543326 468.38262947 102.31915589 468.49192968 98.5 469.4375 C95.11963899 469.75662213 91.74931584 469.80964174 88.35546875 469.8515625 C87.36667221 469.87101929 86.37787567 469.89047607 85.3591156 469.91052246 C82.13533037 469.9710332 78.91153476 470.01738574 75.6875 470.0625 C73.43863289 470.09971085 71.1897722 470.13731145 68.94091797 470.17529297 C62.46079244 470.28003751 55.98054226 470.36343199 49.5 470.4375 C48.681828 470.44716797 47.86365601 470.45683594 47.02069092 470.46679688 C36.84597002 470.58253568 26.67447835 470.55420768 16.5 470.4375 C15.50762329 470.42654297 14.51524658 470.41558594 13.49279785 470.40429688 C6.58138414 470.32574927 -0.32958558 470.23003437 -7.24053955 470.11810303 C-9.56630148 470.08125423 -11.89211023 470.04724345 -14.21795654 470.01617432 C-17.48409082 469.97093961 -20.74975971 469.91296971 -24.015625 469.8515625 C-25.00053925 469.84000122 -25.98545349 469.82843994 -27.00021362 469.81652832 C-35.794203 469.62576052 -35.794203 469.62576052 -39.5 467.4375 C-40.9765625 464.72265625 -40.9765625 464.72265625 -42.125 461.5 C-43.50541657 457.6876415 -44.52306422 455.18213154 -47.5 452.4375 C-47.5 451.7775 -47.5 451.1175 -47.5 450.4375 C-48.07621094 450.15390625 -48.65242187 449.8703125 -49.24609375 449.578125 C-50.64939491 448.8679622 -52.04049746 448.13243395 -53.41015625 447.359375 C-67.12402905 439.89265659 -83.06532234 436.67395946 -98.0625 432.6875 C-98.80024658 432.49095825 -99.53799316 432.2944165 -100.2980957 432.09191895 C-115.79444213 427.77130627 -115.79444213 427.77130627 -131.72827148 426.41845703 C-141.80594295 426.49852817 -141.80594295 426.49852817 -146.08203125 423.8203125 C-148.26299408 421.16642509 -149.83469578 418.44545575 -151.5 415.4375 C-152.42697329 413.99966901 -153.36542125 412.56919938 -154.3125 411.14453125 C-176.1329923 378.06718944 -193.3042097 337.79833912 -191.5 297.4375 C-190.84 297.4375 -190.18 297.4375 -189.5 297.4375 C-189.5 296.7775 -189.5 296.1175 -189.5 295.4375 C-188.61699219 294.96441406 -187.73398438 294.49132812 -186.82421875 294.00390625 C-166.96993556 283.15508774 -150.70363849 267.65994808 -144.12890625 245.4296875 C-141.66062148 233.68617112 -144.18492521 223.92603998 -150.109375 213.64453125 C-158.41971446 201.04559918 -170.79182739 193.59754972 -185.5 190.4375 C-197.74468067 188.14520409 -210.87080973 190.24428236 -222.5 194.4375 C-222.83 196.0875 -223.16 197.7375 -223.5 199.4375 C-222.1903125 199.42332031 -220.880625 199.40914062 -219.53125 199.39453125 C-200.16570201 199.41344292 -179.86500936 202.79484067 -165.125 216.1875 C-159.86124253 221.80288499 -157.40787179 228.03753412 -156.8125 235.6875 C-157.4373526 249.55141697 -168.33630329 261.65265264 -177.9375 270.74609375 C-196.20180373 286.15660003 -220.57621726 295.34617338 -244.5 293.4375 C-256.22939237 291.64261078 -267.07522138 286.60554786 -274.34765625 276.99609375 C-278.48966552 270.81385911 -281.35477725 264.55364215 -283.5 257.4375 C-283.6959375 256.81875 -283.891875 256.2 -284.09375 255.5625 C-285.15654059 250.00328766 -284.61412917 244.08118744 -284.5 238.4375 C-284.49484375 237.50292969 -284.4896875 236.56835938 -284.484375 235.60546875 C-283.64432163 216.07422788 -272.3042555 198.48500047 -258.5 185.4375 C-247.34831764 175.51093204 -233.11617579 168.12051166 -219.1171875 163.05859375 C-217.48412722 162.55715463 -217.48412722 162.55715463 -216.5 161.4375 C-213.61148242 160.96544729 -210.73293041 160.54952022 -207.83203125 160.16796875 C-206.48926369 159.98632423 -206.48926369 159.98632423 -205.11936951 159.80101013 C-202.18427259 159.40497653 -199.24841145 159.01494524 -196.3125 158.625 C-194.30756851 158.35566807 -192.30268578 158.08597295 -190.29785156 157.81591797 C-185.29862726 157.14353692 -180.29876634 156.47603786 -175.29864502 155.81036377 C-171.166261 155.25980581 -167.03432004 154.70595162 -162.90234375 154.15234375 C-156.10226486 153.24208938 -149.30146209 152.3373609 -142.5 151.4375 C-142.92410156 150.62152344 -143.34820312 149.80554688 -143.78515625 148.96484375 C-159.39987756 117.8521635 -163.63881101 82.17934235 -153.25 48.75 C-147.37485529 32.21190608 -138.45162548 19.13200531 -126.5 6.4375 C-125.94957031 5.82261719 -125.39914063 5.20773437 -124.83203125 4.57421875 C-92.56099378 -30.08726594 -35.58256792 -27.89764575 0 0 Z " fill="#BB9F7D" transform="translate(300.5,311.5625)"/>
<path d="M0 0 C2.19684765 1.78113048 4.34950919 3.59940215 6.5 5.4375 C7.51126953 6.29408203 7.51126953 6.29408203 8.54296875 7.16796875 C13.24056571 11.50850371 16.83397059 16.81562672 20.5065918 22.02050781 C24.50044818 27.68817473 24.50044818 27.68817473 29.5 32.4375 C32.58180829 32.88011703 32.58180829 32.88011703 35.5 31.4375 C37.37678052 29.29218172 38.80924511 27.37943245 40.3125 25 C41.17891075 23.71298086 42.05006361 22.42914217 42.92578125 21.1484375 C43.35713379 20.51518555 43.78848633 19.88193359 44.23291016 19.22949219 C58.45997075 -0.89124476 81.60479827 -15.17401552 105.7421875 -19.90625 C130.73194855 -23.89431997 155.53220411 -18.67543954 176.5 -4.5625 C180.31738211 -1.71998698 183.93973322 1.28017814 187.5 4.4375 C188.54607422 5.35789062 188.54607422 5.35789062 189.61328125 6.296875 C200.21564369 16.24057364 207.86626348 29.13999341 213.5 42.4375 C213.5 43.4275 213.5 44.4175 213.5 45.4375 C211.55859375 46.9453125 211.55859375 46.9453125 208.9375 48.5625 C196.50869915 56.98257494 189.29339331 71.91745557 186.5 86.4375 C186.08243645 90.92647849 186.03451239 95.36899531 186.0625 99.875 C186.04251953 101.01259766 186.02253906 102.15019531 186.00195312 103.32226562 C186.00872882 115.20006478 188.6232984 124.67357455 196.97265625 133.30078125 C200.78290477 136.52211964 204.88152356 138.60553649 209.5 140.4375 C208.89733215 144.94477647 207.13400206 148.2962963 204.9375 152.25 C204.4434668 153.1462207 204.4434668 153.1462207 203.93945312 154.06054688 C203.13226733 155.52283998 202.31695083 156.9806399 201.5 158.4375 C203.2015625 158.4065625 203.2015625 158.4065625 204.9375 158.375 C208.5 158.4375 208.5 158.4375 209.5 159.4375 C209.54092937 161.77047433 209.54241723 164.10455225 209.5 166.4375 C208.59378906 166.34726562 207.68757813 166.25703125 206.75390625 166.1640625 C202.65426183 166.05126805 199.44185531 166.26627782 195.5 167.4375 C192.07253211 171.01422 190.00753531 175.02630072 187.68652344 179.37011719 C185.59726097 183.0104206 183.0487046 186.2975909 180.5 189.625 C179.98550293 190.30224121 179.47100586 190.97948242 178.94091797 191.67724609 C162.94458597 212.63076148 144.5773039 233.47072047 123.5 249.4375 C122.19429248 250.45833209 120.88969757 251.48058814 119.5859375 252.50390625 C99.82903153 267.9258588 78.85518754 280.54422923 56.3125 291.5 C55.19069336 292.04825439 54.06888672 292.59650879 52.91308594 293.16137695 C49.79872142 294.64900476 46.667259 296.06648442 43.5 297.4375 C42.62529053 297.82534668 41.75058105 298.21319336 40.84936523 298.61279297 C34.97408539 300.84446609 31.41110403 300.36470877 25.71386719 297.80712891 C24.33956543 297.1291626 24.33956543 297.1291626 22.9375 296.4375 C21.95297852 295.97907715 20.96845703 295.5206543 19.95410156 295.04833984 C16.78173646 293.55113948 13.63974267 292.00185629 10.5 290.4375 C9.44635254 289.91961914 8.39270508 289.40173828 7.30712891 288.86816406 C-35.06138798 267.92032985 -75.34384831 238.16042467 -105.5 201.4375 C-105.9448877 200.90640625 -106.38977539 200.3753125 -106.84814453 199.828125 C-126.39334357 176.4861074 -126.39334357 176.4861074 -131.9609375 165.57421875 C-134.17457382 162.50097239 -135.79004272 162.18447126 -139.5 161.4375 C-143.13006916 161.16662153 -146.7361801 161.15238832 -150.375 161.1875 C-151.40729736 161.19571777 -152.43959473 161.20393555 -153.50317383 161.21240234 C-171.63747384 161.47519781 -188.87799924 165.38509983 -206.5 169.4375 C-207.39638184 169.63714355 -208.29276367 169.83678711 -209.21630859 170.04248047 C-225.6686909 173.76310193 -240.95631167 181.02230959 -253.5 192.4375 C-254.41007812 193.21867188 -255.32015625 193.99984375 -256.2578125 194.8046875 C-268.79152231 205.76741461 -275.81902298 216.95450935 -281.5 232.4375 C-282.16 232.4375 -282.82 232.4375 -283.5 232.4375 C-282.9600433 226.79306895 -281.90709465 221.91092347 -279.875 216.625 C-279.60776123 215.92922852 -279.34052246 215.23345703 -279.06518555 214.51660156 C-269.20343264 189.76934565 -247.67574316 175.22968165 -224.09375 164.953125 C-222.4437551 164.29881668 -220.78640831 163.66217013 -219.1171875 163.05859375 C-217.48412722 162.55715463 -217.48412722 162.55715463 -216.5 161.4375 C-213.61148242 160.96544729 -210.73293041 160.54952022 -207.83203125 160.16796875 C-206.48926369 159.98632423 -206.48926369 159.98632423 -205.11936951 159.80101013 C-202.18427259 159.40497653 -199.24841145 159.01494524 -196.3125 158.625 C-194.30756851 158.35566807 -192.30268578 158.08597295 -190.29785156 157.81591797 C-185.29862726 157.14353692 -180.29876634 156.47603786 -175.29864502 155.81036377 C-171.166261 155.25980581 -167.03432004 154.70595162 -162.90234375 154.15234375 C-156.10226486 153.24208938 -149.30146209 152.3373609 -142.5 151.4375 C-142.92410156 150.62152344 -143.34820312 149.80554688 -143.78515625 148.96484375 C-159.39987756 117.8521635 -163.63881101 82.17934235 -153.25 48.75 C-147.37485529 32.21190608 -138.45162548 19.13200531 -126.5 6.4375 C-125.94957031 5.82261719 -125.39914063 5.20773437 -124.83203125 4.57421875 C-92.56099378 -30.08726594 -35.58256792 -27.89764575 0 0 Z " fill="#FAFCFC" transform="translate(300.5,311.5625)"/>
<path d="M0 0 C4.04108294 3.77360518 7.08274238 7.72759082 10.0625 12.375 C10.76705322 13.47279785 10.76705322 13.47279785 11.48583984 14.59277344 C43.28366963 65.17116364 56.42872748 124.58580779 58.65893555 183.74560547 C58.79171141 187.04486383 58.94981209 189.84943627 60 193 C61.84926158 194.0906969 61.84926158 194.0906969 64.1640625 194.91015625 C65.03168213 195.25481934 65.89930176 195.59948242 66.79321289 195.95458984 C67.72770264 196.3202002 68.66219238 196.68581055 69.625 197.0625 C95.61858404 207.75034014 114.90660244 226.1656825 126.20703125 252.0390625 C134.38944866 272.27341492 134.36172632 295.22325152 126.25 315.4375 C122.53921248 323.52204452 117.51635506 329.97237157 111 336 C110.52433594 336.46921875 110.04867187 336.9384375 109.55859375 337.421875 C95.8291814 350.25804847 78.77601246 351.49509857 61 352 C60.93268677 352.85658203 60.93268677 352.85658203 60.86401367 353.73046875 C56.99184333 402.26038452 51.22817315 451.29980126 17.30078125 488.71875 C15.50853756 491.8619041 16.0685227 493.57252526 17 497 C17.49293313 498.30256941 18.01291942 499.5953003 18.5625 500.875 C21.24420152 508.70769255 21.55742788 519.25397217 18.4375 527 C13.60972635 535.85938813 7.46475904 540.84508032 -2 544 C-9.6425309 544.59922157 -16.29323529 544.6851894 -23.1328125 540.97265625 C-25.17483334 539.90892573 -26.70344027 539.25077376 -29 539 C-31.2867152 539.92640296 -31.2867152 539.92640296 -33.5 541.375 C-40.88464994 545.90189157 -48.53680229 545.65504626 -57 545 C-61.53700212 543.70107538 -65.09681303 541.60212464 -69 539 C-72.5853441 539.36907954 -75.48256273 540.61088376 -78.75 542.0625 C-88.61709357 545.70265749 -100.77819608 545.60575151 -110.4921875 541.4765625 C-116.2451589 538.08929897 -121.29737753 533.5539337 -125 528 C-127.76686348 527.5278661 -127.76686348 527.5278661 -131.07780457 527.58540344 C-132.37463165 527.56971817 -133.67145874 527.5540329 -135.00758362 527.53787231 C-136.45321609 527.53573099 -137.89884912 527.53394238 -139.34448242 527.5324707 C-140.86050394 527.52022537 -142.37651614 527.50677394 -143.89251709 527.49220276 C-148.01877993 527.45707167 -152.14488267 527.44188005 -156.27127624 527.43236566 C-158.84933636 527.42579688 -161.42735379 527.41545429 -164.00539589 527.40386009 C-173.00011343 527.3640888 -181.99470262 527.34209447 -190.98950195 527.33422852 C-199.37176484 527.32636403 -207.75311101 527.27716954 -216.13508147 527.20916301 C-223.33095391 527.1528207 -230.52652189 527.12731464 -237.72261316 527.12528104 C-242.02069106 527.12344063 -246.31780389 527.10880935 -250.61565208 527.06246376 C-254.66183872 527.01976188 -258.70629083 527.01545738 -262.75260925 527.04025841 C-264.23487773 527.04284131 -265.71724398 527.03182928 -267.19928932 527.00598145 C-275.24159571 526.66042791 -275.24159571 526.66042791 -282.34984779 529.76492882 C-284.22707564 531.84814579 -284.22707564 531.84814579 -285.64026356 534.06120586 C-287.90558341 537.29123538 -290.69663899 538.30310776 -294.25 539.9375 C-294.86101562 540.22689453 -295.47203125 540.51628906 -296.1015625 540.81445312 C-304.6183724 544.80322108 -314.2049672 545.48245025 -323.359375 543.140625 C-325.95069603 542.17413229 -328.46524706 541.10341518 -331 540 C-333.04562338 539.20376017 -333.04562338 539.20376017 -335 539 C-337.03335209 540.28189588 -339.03081154 541.62156808 -341 543 C-345.5822656 544.88176613 -349.84147026 545.3855724 -354.75 545.375 C-355.45229736 545.37483887 -356.15459473 545.37467773 -356.87817383 545.37451172 C-362.91082873 545.24287 -367.62371546 543.72292415 -373 541 C-375.47936978 539.70475026 -375.47936978 539.70475026 -378 539 C-381.31413738 540.59350289 -381.31413738 540.59350289 -383.25390625 541.95703125 C-389.28851587 545.56159673 -398.26106273 544.90374865 -404.828125 543.31640625 C-413.53500148 540.09806694 -418.73829308 535.29527466 -423.0546875 527.1484375 C-426.84748174 518.52845059 -425.4217876 507.84998926 -423 499 C-422.34 498.01 -421.68 497.02 -421 496 C-421.23965249 491.64396349 -422.87758568 489.66508214 -425.875 486.625 C-457.67520382 452.49918509 -466.02290864 403.4810355 -467.71020508 358.21411133 C-467.54311814 354.81672715 -467.54311814 354.81672715 -469 352 C-470.72115925 351.88567946 -472.44313944 351.77850587 -474.16674805 351.71044922 C-491.95408474 351.00211291 -506.55345821 345.56997095 -519.33984375 332.88671875 C-534.9318855 315.96672043 -536.92684707 296.13766616 -536.18652344 274.18798828 C-535.18192154 257.0177113 -526.88035608 240.09262811 -516 227 C-515.25105469 226.08863281 -514.50210938 225.17726563 -513.73046875 224.23828125 C-501.93347015 210.57358336 -487.18062646 201.39037678 -470.5 194.75 C-469.345 194.1725 -468.19 193.595 -467 193 C-465.85834293 189.34693831 -465.79235358 185.59233206 -465.60546875 181.78515625 C-465.5394043 180.55716309 -465.47333984 179.32916992 -465.40527344 178.06396484 C-465.37042847 177.41304871 -465.3355835 176.76213257 -465.29968262 176.0914917 C-462.30227779 121.87890811 -451.679156 44.679156 -411 4 C-409.5112814 3.91330568 -408.018555 3.89296506 -406.52734375 3.90234375 C-405.62822266 3.90556641 -404.72910156 3.90878906 -403.80273438 3.91210938 C-402.85720703 3.92048828 -401.91167969 3.92886719 -400.9375 3.9375 C-399.5134082 3.94426758 -399.5134082 3.94426758 -398.06054688 3.95117188 C-395.70696935 3.9629989 -393.35351523 3.97947975 -391 4 C-393.40215073 8.36462208 -395.8629872 12.23938188 -399 16.125 C-423.56375053 48.52652619 -436.14391527 89.44274478 -443 129 C-443.13647949 129.75700195 -443.27295898 130.51400391 -443.41357422 131.29394531 C-445.8437922 144.91398034 -446.90330744 158.63954353 -447.91040039 172.42407227 C-448.46169987 179.78090495 -449.24155588 186.81656869 -451 194 C-451.11777345 196.59447992 -451.128822 199.1429669 -451.0703125 201.73828125 C-452.65243073 205.58721594 -456.32860377 206.44154075 -460 208 C-461.51838597 208.68950464 -463.03529825 209.38226303 -464.55078125 210.078125 C-465.32623291 210.43003906 -466.10168457 210.78195312 -466.90063477 211.14453125 C-475.29719795 214.99306229 -482.873313 219.03991817 -490 225 C-490.84691406 225.68578125 -491.69382812 226.3715625 -492.56640625 227.078125 C-502.29359932 235.3351011 -509.46070919 245.07389277 -514 257 C-514.57041016 258.46953125 -514.57041016 258.46953125 -515.15234375 259.96875 C-517.586412 266.69058973 -518.76580226 272.87102073 -519 280 C-519.06316406 281.17691406 -519.12632812 282.35382813 -519.19140625 283.56640625 C-519.60878277 296.69357091 -516.47812508 307.22443393 -509 318 C-508.2575 319.0725 -507.515 320.145 -506.75 321.25 C-497.64814462 330.35185538 -485.69595646 334.0853947 -473.0625 334.25 C-451.62161773 334.04041171 -431.3797648 325.66456055 -415 312 C-414.02804687 311.23042969 -413.05609375 310.46085937 -412.0546875 309.66796875 C-403.59394238 302.59134552 -395.28507284 291.23141251 -393.56640625 280.22265625 C-393.16453768 271.53985956 -395.63359308 264.19082593 -401.5 257.75 C-416.99749981 243.56778615 -439.2285159 242.8569193 -459 241 C-459 239.35 -459 237.7 -459 236 C-443.26342319 228.78740229 -426.6160614 228.40298114 -410.3125 234.1875 C-395.50938455 240.30493205 -386.20594299 250.35476511 -380 265 C-375.94923727 275.58469851 -377.59722719 285.80915826 -382 296 C-389.98854567 313.45825026 -404.1145125 327.12874936 -421 336 C-423.37890625 336.71484375 -423.37890625 336.71484375 -425 337 C-425 337.66 -425 338.32 -425 339 C-425.66 339 -426.32 339 -427 339 C-423.55160597 383.37538637 -410.20015818 422.44477645 -384.44946289 458.92651367 C-383.27632386 460.60471306 -382.1751079 462.33303918 -381.09765625 464.07421875 C-377.96646945 466.94884649 -374.83684054 466.52473161 -370.8125 466.4375 C-358.40182767 466.65770099 -346.92936083 469.80116899 -335 473 C-333.1739624 473.47928955 -333.1739624 473.47928955 -331.31103516 473.96826172 C-286.42792962 485.76561116 -286.42792962 485.76561116 -278.2734375 498.64453125 C-277.05318785 500.90161878 -276.1862277 503.07067834 -275.375 505.5 C-274.92125 506.655 -274.4675 507.81 -274 509 C-271.18464391 510.1055386 -268.3894579 510.14682566 -265.38793945 510.20532227 C-264.47237778 510.22525742 -263.5568161 510.24519257 -262.61351013 510.26573181 C-261.6234346 510.28245438 -260.63335907 510.29917694 -259.61328125 510.31640625 C-258.57708145 510.33727798 -257.54088165 510.35814972 -256.47328186 510.37965393 C-253.08643114 510.44597004 -249.69950837 510.50483338 -246.3125 510.5625 C-245.15188049 510.58334656 -243.99126099 510.60419312 -242.79547119 510.62567139 C-223.86153123 510.96447172 -204.93679144 511.22376751 -186 511 C-185.04132019 510.98904297 -184.08264038 510.97808594 -183.09490967 510.96679688 C-176.45392626 510.88846607 -169.8134112 510.79275622 -163.1729126 510.68060303 C-160.94928392 510.64380978 -158.72560745 510.609791 -156.50189209 510.57867432 C-153.38251775 510.53338576 -150.26362547 510.47543767 -147.14453125 510.4140625 C-145.74055336 510.39672058 -145.74055336 510.39672058 -144.30821228 510.37902832 C-139.53480391 510.27073584 -135.42702699 510.00415699 -131 508 C-129.67759599 505.90862392 -129.67759599 505.90862392 -129.0625 503.375 C-125.93325427 494.54696531 -120.48182161 489.54431062 -112.1953125 485.3671875 C-105.95759515 482.69823753 -99.51463303 480.84767828 -93 479 C-91.6287041 478.59704146 -90.25760997 478.19339565 -88.88671875 477.7890625 C-76.565713 474.21273259 -64.06894406 471.39680615 -51.55517578 468.58496094 C-49.97563977 468.22335495 -48.40124177 467.83714479 -46.83764648 467.41186523 C-45 467 -45 467 -42.15234375 467.17578125 C-36.76879717 467.40472916 -33.30632912 467.16987413 -29.1953125 463.48828125 C-26.75064644 460.53755805 -24.61511814 457.37967016 -22.49365234 454.19189453 C-20.90452574 451.8598941 -19.22926386 449.61602263 -17.51953125 447.37109375 C-10.77776416 438.50564284 -4.5280476 429.52732136 0.95556641 419.83154297 C2.02406881 417.95779237 3.12424375 416.10559946 4.23046875 414.25390625 C8.68377908 406.70309884 12.50693011 398.97912999 16 390.9375 C16.38607422 390.05690918 16.77214844 389.17631836 17.16992188 388.26904297 C19.16163698 383.55897891 20.99391735 379.18242144 21 374 C19.79745734 371.3674066 18.61780498 369.21175219 17.0625 366.8125 C13.3460511 360.67218489 10.3584498 354.49934076 7.75 347.8125 C7.4190332 346.9659082 7.08806641 346.11931641 6.74707031 345.24707031 C5.30828918 341.51898991 3.91248875 337.77812255 2.56640625 334.015625 C0.43240809 328.13882011 -1.11852175 324.10487944 -6 320 C-18.55061247 307.35302966 -26.8414553 293.49355905 -27.5625 275.375 C-27.34204769 266.92726734 -24.65699032 259.98548548 -20 253 C-20.12917379 250.38716648 -20.36907053 247.95103554 -20.75 245.375 C-20.83765625 244.70082031 -20.9253125 244.02664063 -21.015625 243.33203125 C-21.49130541 239.85031491 -22.11637215 236.48068822 -22.9765625 233.07421875 C-24.67714329 225.6677419 -25.00811766 217.99587431 -25.625 210.4375 C-25.75985717 208.84044745 -25.89526919 207.24344165 -26.03125 205.64648438 C-26.36056923 201.7648326 -26.68236256 197.88262443 -27 194 C-25.75605469 194.03480469 -24.51210938 194.06960938 -23.23046875 194.10546875 C-8.8546344 194.38873642 3.28318043 193.01293813 15 184 C15.66 184 16.32 184 17 184 C26.841972 208.03543903 26.841972 208.03543903 30.625 219.375 C30.8720166 220.11024902 31.1190332 220.84549805 31.37353516 221.60302734 C32.32344125 224.52243793 33 226.90923722 33 230 C33.763125 230.0825 34.52625 230.165 35.3125 230.25 C38.58265815 230.91511691 41.64047288 231.72569958 44.8125 232.75 C45.76769531 233.05421875 46.72289062 233.3584375 47.70703125 233.671875 C50 235 50 235 50.82421875 237.640625 C50.88222656 238.41921875 50.94023438 239.1978125 51 240 C47.78277768 241.86827916 45.14089622 242.34834809 41.44921875 242.640625 C40.36495605 242.73835205 39.28069336 242.8360791 38.16357422 242.93676758 C37.01646973 243.04013428 35.86936523 243.14350098 34.6875 243.25 C18.01619218 244.97038348 4.44951133 249.1188653 -6.7734375 262.19140625 C-11.09544768 268.56430661 -10.64898973 275.58529231 -10 283 C-5.79259347 300.25992904 8.71122096 312.05480725 23.17333984 320.91308594 C40.82851868 331.41841288 61.26018532 337.05623173 81.765625 333.3125 C88.53118652 331.42443632 93.90493416 328.84520121 99 324 C99.67675781 323.36320312 100.35351562 322.72640625 101.05078125 322.0703125 C110.46058546 312.39469461 114.91466118 300.0537302 115.3125 286.75 C115.19243261 279.86613628 113.84641944 273.60907216 112 267 C111.70996094 265.90429688 111.41992188 264.80859375 111.12109375 263.6796875 C104.85786598 241.50943354 89.91386394 226.51852146 70.23046875 215.44140625 C62.87487818 211.5673948 55.2513367 208.84428918 47.39453125 206.19921875 C44 205 44 205 43 204 C42.7439431 201.10730621 42.54721044 198.23053252 42.38671875 195.33203125 C42.27502374 193.48539596 42.16269242 191.63879908 42.04980469 189.79223633 C41.99127319 188.8168692 41.9327417 187.84150208 41.87243652 186.83657837 C38.09774371 125.11287627 27.09700255 59.53672101 -12.95410156 9.98046875 C-16 6.19460629 -16 6.19460629 -16 4 C-7.585 3.505 -7.585 3.505 1 3 C0.67 2.01 0.34 1.02 0 0 Z " fill="#060518" transform="translate(536,270)"/>
<path d="M0 0 C4.14540032 0.04217697 8.29017564 0.003161 12.43558276 -0.02533066 C20.54304105 -0.06820692 28.64854485 -0.0364018 36.75584301 0.02157141 C46.20296386 0.08661071 55.64963131 0.07980065 65.09692196 0.0708655 C81.95471256 0.05762162 98.8115798 0.11333253 115.66908801 0.20631301 C132.01668682 0.29645332 148.3632453 0.3318228 164.71108019 0.30885208 C182.52907573 0.28390286 200.34662195 0.28692748 218.16457027 0.34066898 C220.06505091 0.34638669 221.96553156 0.35210225 223.86601222 0.35781562 C225.26849906 0.36211075 225.26849906 0.36211075 226.69931897 0.36649265 C233.28063503 0.38500687 239.86179363 0.38452004 246.44312632 0.37736595 C254.46410265 0.36955215 262.48419113 0.39499888 270.50490244 0.46215297 C274.59549794 0.49569629 278.68482088 0.51514365 282.77553713 0.49558532 C286.52365564 0.47812896 290.26913178 0.50251492 294.01683275 0.55973815 C296.00777517 0.5795794 297.99900705 0.55559922 299.98988181 0.52984899 C306.64653985 0.67777737 310.3467483 1.35074977 315.18050635 6.11700237 C316.4866006 7.63438332 317.76196198 9.17915894 318.99452746 10.75685012 C319.97097593 11.89608625 320.94849111 13.03441122 321.92812121 14.17091262 C322.7707172 15.23496954 323.60535558 16.30537498 324.43202746 17.38185012 C324.88811388 17.97030715 325.34420031 18.55876419 325.81410754 19.16505325 C334.16369891 30.08075717 341.49442767 41.65197207 347.99452746 53.75685012 C348.48517687 54.67023147 348.48517687 54.67023147 348.9857384 55.60206497 C367.8894638 91.20561802 378.31227522 132.23378076 378.44081652 172.57789505 C378.54808227 178.15413643 379.2719445 181.33833455 382.99452746 185.75685012 C383.72155871 186.41169387 384.44858996 187.06653762 385.19765246 187.74122512 C387.62606773 190.46527356 387.58803994 192.4076371 387.74452746 196.00685012 C387.80124621 197.08450637 387.85796496 198.16216262 387.91640246 199.27247512 C387.94218371 200.09231887 387.96796496 200.91216262 387.99452746 201.75685012 C389.20366808 202.18095169 390.41280871 202.60505325 391.65858996 203.04200637 C417.72872797 212.31762778 438.89200278 224.83740771 452.36952746 249.88185012 C454.56596136 254.64244669 455.75706182 259.68057979 456.99452746 264.75685012 C457.4160509 266.3095259 457.4160509 266.3095259 457.84608996 267.89356887 C462.00105795 283.98921592 460.33533359 298.16261208 452.07265246 312.63966262 C445.11165398 323.08116034 436.29729977 329.46048347 424.12294543 332.35548294 C402.62464804 336.40953213 379.90733583 328.606985 362.33339465 316.64332473 C350.14139728 308.05991513 335.83776827 296.25251256 332.99452746 280.75685012 C332.26728347 271.07615967 332.60578237 264.43575394 338.54921496 256.74513137 C351.38618388 242.28288098 370.94976617 240.44606195 389.00844347 239.00636184 C391.20096729 238.79665234 391.20096729 238.79665234 393.99452746 237.75685012 C393.99452746 236.10685012 393.99452746 234.45685012 393.99452746 232.75685012 C393.43765246 232.64727981 392.88077746 232.5377095 392.30702746 232.42481887 C391.54390246 232.26626419 390.78077746 232.1077095 389.99452746 231.94435012 C388.88077746 231.71811965 388.88077746 231.71811965 387.74452746 231.48731887 C386.83702746 231.24626419 385.92952746 231.0052095 384.99452746 230.75685012 C384.34870715 230.63833694 383.70288683 230.51982376 383.03749621 230.39771926 C380.66124258 229.79786952 379.00746302 229.16881848 376.99452746 227.75685012 C374.99099114 224.30997678 374.03628787 220.6500147 372.99452746 216.81935012 C372.3437415 214.64973491 371.68738339 212.48178414 371.02577746 210.31544387 C370.69706652 209.22215774 370.36835558 208.12887161 370.02968371 207.00245559 C368.16155921 201.14518033 365.7914899 195.49998386 363.43202746 189.82740676 C362.95249621 188.66712966 362.95249621 188.66712966 362.46327746 187.48341262 C362.17903918 186.80874954 361.8948009 186.13408645 361.60194933 185.43897903 C360.99452746 183.75685012 360.99452746 183.75685012 360.99452746 181.75685012 C360.47245715 182.14356887 359.95038683 182.53028762 359.41249621 182.92872512 C346.2175182 192.26457646 332.71531756 194.12979957 316.99452746 191.75685012 C317.32452746 194.06685012 317.65452746 196.37685012 317.99452746 198.75685012 C315.35452746 198.42685012 312.71452746 198.09685012 309.99452746 197.75685012 C311.55137346 193.74381504 313.30591603 189.84755732 315.11952746 185.94435012 C315.92776965 184.20218215 315.92776965 184.20218215 316.75233996 182.42481887 C317.36722277 181.10417434 317.36722277 181.10417434 317.99452746 179.75685012 C317.24944933 179.64470169 316.50437121 179.53255325 315.73671496 179.41700637 C308.41736405 177.65494041 302.12137067 170.79874437 297.99452746 164.75685012 C294.23541515 156.46535818 293.31376421 148.52393789 293.43202746 139.50685012 C293.44225939 138.32534378 293.45249133 137.14383743 293.46303332 135.92652786 C293.90523942 117.63823625 300.64373622 101.56602711 313.99452746 88.75685012 C318.90509656 84.75685012 318.90509656 84.75685012 321.99452746 84.75685012 C311.95705115 58.27586588 293.52926828 38.18659827 267.73671496 26.24903762 C244.67398985 16.78595386 218.64710786 16.79718323 195.63564074 26.23683059 C184.65901952 30.96319815 175.04341218 36.91934836 165.99452746 44.75685012 C165.27780871 45.37688919 164.56108996 45.99692825 163.82265246 46.63575637 C157.77242594 52.27748219 153.20844909 58.83717667 148.68666613 65.72511184 C144.79712402 71.42319782 144.79712402 71.42319782 140.91249621 73.03810012 C137.03515338 72.66438033 135.70553787 71.53008044 132.99452746 68.75685012 C131.55572341 66.8022484 130.18450514 64.79681549 128.86952746 62.75685012 C114.29458653 41.06320121 92.75049541 26.08255845 66.99452746 20.75685012 C41.47772227 16.81885814 15.99386763 19.93345154 -5.25742567 35.3276509 C-26.8342535 51.83483297 -40.74122554 73.46041218 -47.00547254 99.75685012 C-47.25168348 100.77392044 -47.49789442 101.79099075 -47.75156629 102.83888137 C-51.81378883 123.76633127 -49.30220026 145.76353816 -43.25547254 165.94435012 C-42.93256238 167.02579299 -42.60965223 168.10723587 -42.27695692 169.22144973 C-39.89418345 176.80988921 -36.75464187 183.74722561 -33.00547254 190.75685012 C-35.19738919 192.94876677 -39.87810449 192.66061981 -42.91953504 193.06153762 C-43.83353574 193.18536819 -44.74753644 193.30919876 -45.68923414 193.43678176 C-48.66909354 193.83937987 -51.64973215 194.23583164 -54.63047254 194.63185012 C-56.65874735 194.90388096 -58.68698635 195.17617886 -60.71518934 195.44874465 C-64.6913433 195.98231529 -68.66783694 196.51324118 -72.6446327 197.04200637 C-77.03048527 197.62559493 -81.41477338 198.2195871 -85.79844129 198.81935012 C-87.80490749 199.09051084 -89.81141256 199.36138422 -91.81797254 199.63185012 C-92.68438367 199.7515718 -93.55079481 199.87129348 -94.44346082 199.99464309 C-99.01085745 200.59921997 -103.39768102 200.86758477 -108.00547254 200.75685012 C-108.20737343 194.39697208 -107.63325584 188.90463883 -106.00547254 182.75685012 C-105.34547254 183.08685012 -104.68547254 183.41685012 -104.00547254 183.75685012 C-100.92314472 182.23505555 -100.92314472 182.23505555 -98.00547254 179.75685012 C-97.03103961 176.48318472 -97.03103961 176.48318472 -97.05234754 172.74513137 C-97.02214017 172.06462219 -96.99193281 171.384113 -96.96081007 170.68298233 C-96.89935315 169.23115186 -96.85076654 167.77872879 -96.81397474 166.32606399 C-96.75490423 164.04742751 -96.65950741 161.77299364 -96.55307996 159.49610794 C-96.41545362 156.53400697 -96.28704249 153.57184859 -96.16904676 150.6089009 C-94.26060187 105.66644787 -75.08923933 51.50523286 -43.98938692 18.19411457 C-41.84622275 15.7169055 -41.84622275 15.7169055 -40.16621912 12.34516704 C-31.36952388 -2.56743294 -15.25828282 -0.21177562 0 0 Z " fill="#F79E01" transform="translate(192.0054725408554,272.24314987659454)"/>
<path d="M0 0 C124.08 0 248.16 0 376 0 C377.15927528 3.47782583 377.11313066 6.18803257 377.09765625 9.85546875 C377.09553383 10.84792351 377.09553383 10.84792351 377.09336853 11.86042786 C377.08777996 13.96949828 377.07522965 16.07846177 377.0625 18.1875 C377.05748352 19.61913909 377.05292087 21.05077985 377.04882812 22.48242188 C377.0378143 25.98831588 377.02055755 29.4941475 377 33 C377.94141846 33.45572388 377.94141846 33.45572388 378.90185547 33.9206543 C384.93382186 37.02367075 389.13708593 43.25479483 393.25 48.5 C393.6742627 49.03343018 394.09852539 49.56686035 394.53564453 50.11645508 C397.56081666 54.05734525 398.95413855 57.22632328 401 62 C395.06 62 389.12 62 383 62 C383.83402344 63.12535156 384.66804688 64.25070312 385.52734375 65.41015625 C421.98515321 114.95775499 441.79935401 178.58680625 441.0625 240.3125 C441.05798828 241.06466797 441.05347656 241.81683594 441.04882812 242.59179688 C441.03734551 244.39456815 441.01943033 246.19729686 441 248 C436.73035001 246.475125 435.03659811 243.96600685 433 240 C432.47305605 236.83234832 432.49678381 233.70566558 432.5 230.5 C431.38732711 184.57198647 418.66955725 138.86247497 394 100 C393.58218262 99.33887207 393.16436523 98.67774414 392.73388672 97.99658203 C384.7138783 85.4034099 375.57846085 73.57846085 365 63 C363.19984018 62.89350558 361.39547135 62.85786543 359.59218597 62.84901905 C357.82099309 62.83678199 357.82099309 62.83678199 356.01401854 62.82429773 C354.70014803 62.82038937 353.38627753 62.81648101 352.03259277 62.81245422 C350.63570959 62.80486574 349.2388286 62.79686484 347.84194994 62.78848428 C343.98506223 62.76673006 340.12817156 62.75145994 336.27124929 62.73734391 C332.9674353 62.72446653 329.66364378 62.7079065 326.35984641 62.69136665 C295.03773922 62.53518385 263.71511268 62.46033175 232.39269257 62.39974689 C228.31355257 62.39171784 224.23441288 62.38354959 220.15527344 62.37524414 C219.14139071 62.37318654 218.12750798 62.37112894 217.08290154 62.36900898 C200.66386873 62.3345997 184.24522667 62.26195935 167.82640094 62.17433653 C150.97672043 62.08515792 134.1272425 62.03381861 117.27733088 62.01844472 C107.81378055 62.00878555 98.35093345 61.9820098 88.88761902 61.91213417 C80.82630865 61.8526365 72.76579485 61.826935 64.70427018 61.84547303 C60.59119182 61.85386281 56.47983163 61.84607429 52.3670311 61.794487 C48.59820068 61.74758374 44.83227857 61.74721169 41.06335479 61.78322377 C39.06072063 61.7904464 37.05809367 61.7484701 35.05592871 61.70452482 C29.87489181 61.79302933 26.39625919 61.89621244 22.24558353 65.17745435 C19.96070431 67.68621331 17.9594586 70.23291394 16 73 C14.99522498 74.23591628 13.98421335 75.46685737 12.9609375 76.6875 C12.09527757 77.78878334 11.23316251 78.89286441 10.375 80 C9.94960937 80.53882813 9.52421875 81.07765625 9.0859375 81.6328125 C2.65607145 89.86151012 -3.00232493 98.35715008 -7.9375 107.5625 C-8.71444214 109.00629028 -8.71444214 109.00629028 -9.50708008 110.47924805 C-21.47582254 132.89715837 -30.63003521 156.09890946 -36 181 C-36.15162598 181.67756348 -36.30325195 182.35512695 -36.45947266 183.05322266 C-39.48649747 196.73428768 -40.95141286 210.8915704 -41.09765625 224.8984375 C-41.11489746 225.84887939 -41.13213867 226.79932129 -41.14990234 227.77856445 C-41.17435868 229.58944503 -41.16972633 231.4010309 -41.13134766 233.21166992 C-41.21920356 239.16068615 -41.21920356 239.16068615 -43.57666016 241.69482422 C-48.10580373 245 -48.10580373 245 -50 245 C-52.78312821 180.47265714 -31.00623824 114.57989476 7 63 C1.06 62.67 -4.88 62.34 -11 62 C-9 58 -9 58 -1 48 C-0.67 32.16 -0.34 16.32 0 0 Z " fill="#FED7AD" transform="translate(137,212)"/>
<path d="M0 0 C1.08063721 0.2168042 1.08063721 0.2168042 2.18310547 0.43798828 C24.5217377 5.07198435 48.44219398 14.25427176 61.57470703 33.9987793 C67.86601182 44.11429656 69.23041153 53.08038828 68 65 C65.62658705 72.48048903 60.39592712 77.54800045 53.66796875 81.30078125 C33.74683794 90.94774565 11.63206719 94.06806243 -10.2890625 94.23828125 C-11.33868668 94.2480751 -12.38831085 94.25786896 -13.46974182 94.26795959 C-110.20007772 94.98406469 -110.20007772 94.98406469 -140.8125 66.8125 C-148.45840866 58.6302776 -151.90738035 50.42316915 -151.71118164 39.29907227 C-151.11307193 29.54384804 -146.62284414 21.45987014 -139.46484375 14.87890625 C-125.67967965 4.37072252 -110.72076181 0.37230401 -93.6875 -1.0625 C-92.72513428 -1.14483887 -91.76276855 -1.22717773 -90.77124023 -1.31201172 C-87.84830165 -1.55369555 -84.92470686 -1.78082415 -82 -2 C-81.19788086 -2.06074707 -80.39576172 -2.12149414 -79.56933594 -2.18408203 C-53.52707954 -4.03949588 -25.66957573 -5.29438531 0 0 Z " fill="#FAFCFC" transform="translate(389,645)"/>
<path d="M0 0 C0.99322266 -0.020625 1.98644531 -0.04125 3.00976562 -0.0625 C8.88784864 -0.09374562 13.22202104 0.19176651 18.3125 3.25 C20.38671875 5.73828125 20.38671875 5.73828125 22 8.5625 C22.54011719 9.48675781 23.08023438 10.41101563 23.63671875 11.36328125 C24.46623047 12.79220703 24.46623047 12.79220703 25.3125 14.25 C26.6390434 16.25451001 27.97156273 18.25509023 29.3125 20.25 C28.42916992 20.22905273 27.54583984 20.20810547 26.63574219 20.18652344 C-7.01898395 19.49898184 -39.68018412 23.33313609 -71.6875 34.25 C-72.0175 35.9 -72.3475 37.55 -72.6875 39.25 C-71.3778125 39.23582031 -70.068125 39.22164063 -68.71875 39.20703125 C-49.35320201 39.22594292 -29.05250936 42.60734067 -14.3125 56 C-9.04874253 61.61538499 -6.59537179 67.85003412 -6 75.5 C-6.6248526 89.36391697 -17.52380329 101.46515264 -27.125 110.55859375 C-45.38930373 125.96910003 -69.76371726 135.15867338 -93.6875 133.25 C-105.41689237 131.45511078 -116.26272138 126.41804786 -123.53515625 116.80859375 C-127.67716552 110.62635911 -130.54227725 104.36614215 -132.6875 97.25 C-132.8834375 96.63769531 -133.079375 96.02539062 -133.28125 95.39453125 C-133.88394231 92.21301129 -133.81895588 89.10939398 -133.8125 85.875 C-133.81507813 84.58851563 -133.81765625 83.30203125 -133.8203125 81.9765625 C-133.70113474 78.6325749 -133.32706128 75.52902051 -132.6875 72.25 C-132.0275 72.25 -131.3675 72.25 -130.6875 72.25 C-130.605 71.445625 -130.5225 70.64125 -130.4375 69.8125 C-126.37959117 50.53743305 -108.52161435 33.82311485 -92.6875 23.25 C-66.55294176 6.31311815 -30.79357111 0.16175218 0 0 Z " fill="#F79D00" transform="translate(149.6875,471.75)"/>
<path d="M0 0 C22.37489882 -1.9687411 45.16636566 8.55824903 62.23828125 22.640625 C63.14964844 23.41921875 64.06101562 24.1978125 65 25 C65.67417969 25.57234375 66.34835937 26.1446875 67.04296875 26.734375 C77.84350336 36.7193086 84.56819876 49.92223471 88 64 C88.28101563 65.03511719 88.56203125 66.07023438 88.8515625 67.13671875 C93.00653049 83.23236579 91.34080613 97.40576196 83.078125 111.8828125 C76.11712652 122.32431021 67.30277231 128.70363334 55.12841797 131.59863281 C33.63012058 135.65268201 10.91280837 127.85013488 -6.66113281 115.88647461 C-18.85313018 107.303065 -33.15675919 95.49566244 -36 80 C-36.72724399 70.31930954 -36.38874509 63.67890382 -30.4453125 55.98828125 C-17.60834358 41.52603086 1.95523871 39.68921182 20.01391602 38.24951172 C22.20643983 38.03980222 22.20643983 38.03980222 25 37 C25 35.35 25 33.7 25 32 C24.443125 31.89042969 23.88625 31.78085937 23.3125 31.66796875 C22.549375 31.50941406 21.78625 31.35085938 21 31.1875 C20.2575 31.03667969 19.515 30.88585937 18.75 30.73046875 C17.8425 30.48941406 16.935 30.24835938 16 30 C15.35998047 29.89381348 14.71996094 29.78762695 14.06054688 29.67822266 C11.62480732 29.09316757 10.03447432 28.48093127 8 27 C5.83651612 23.19681107 4.6926002 19.19365151 3.5 15 C3.15453125 13.89398438 2.8090625 12.78796875 2.453125 11.6484375 C0 3.64657738 0 3.64657738 0 0 Z " fill="#F79D00" transform="translate(561,473)"/>
<path d="M0 0 C10.57843349 7.65824436 18.05033388 19.22517873 20.625 32.0625 C20.8478192 33.78747108 21.03834624 35.51710451 21.1875 37.25 C21.26871094 37.96027344 21.34992188 38.67054688 21.43359375 39.40234375 C22.19020524 51.71447618 16.89281279 65.34011062 9.15234375 74.71484375 C0.09207488 84.31840917 -11.47759555 90.53724797 -24.7578125 91.453125 C-39.94128557 91.67695998 -52.41801017 87.21336946 -63.48828125 76.69921875 C-73.70508441 65.93294046 -78.22001895 53.63021682 -77.953125 38.83984375 C-77.27174705 26.29113324 -71.77726255 14.25969664 -63.03125 5.2109375 C-44.8002327 -10.90168694 -20.57086468 -12.4819823 0 0 Z " fill="#060519" transform="translate(259.8125,345.75)"/>
<path d="M0 0 C10.34610684 8.57248852 16.13110013 19.80192833 18 33 C19.01963117 48.09838462 15.31883115 59.79256033 6.8125 72.1875 C-3.67149817 82.67149817 -16.21017266 89.02571688 -31.125 89.25 C-45.52605138 89.08616551 -56.49043282 83.91231453 -66.96484375 74.1953125 C-76.91648836 63.46052503 -80.36086904 49.91864612 -80.2109375 35.66015625 C-79.41177065 21.79313151 -73.68039062 10.68472883 -63.63671875 1.2265625 C-45.17227537 -14.36563413 -19.29786969 -14.08222923 0 0 Z " fill="#060619" transform="translate(463,348)"/>
<path d="M0 0 C0.11480713 0.56807373 0.22961426 1.13614746 0.34790039 1.72143555 C3.75700272 18.19737562 7.78484597 29.97772039 19.69140625 42.35546875 C27.50213992 51.30278972 28.48443636 60.53925553 28 72 C27.02583772 80.61437783 22.15863151 87.52206104 16.02734375 93.3984375 C12.37166627 96.28635227 8.26184477 98.17055859 4 100 C3.18144531 100.36867188 2.36289062 100.73734375 1.51953125 101.1171875 C-6.10315102 103.78808082 -14.75400047 102.10542837 -22 99 C-30.64927622 94.50237637 -37.96869206 87.87854678 -41.1953125 78.5234375 C-43.28041929 71.88536594 -43.65329041 65.67239648 -43.5625 58.75 C-43.55226807 57.56849365 -43.54203613 56.3869873 -43.53149414 55.16967773 C-43.11172192 37.80918297 -37.09564763 22.70684004 -25.1015625 9.90234375 C-21.73373284 6.85376932 -18.12985842 4.84433257 -14 3 C-13.29488281 2.68160156 -12.58976563 2.36320312 -11.86328125 2.03515625 C-7.73203064 0.32757267 -4.42192127 -0.11883523 0 0 Z " fill="#66473C" transform="translate(529,353)"/>
<path d="M0 0 C0.63164063 0.4125 1.26328125 0.825 1.9140625 1.25 C18.6534231 12.05581203 34.54566598 19.52974867 54 24 C54.34253621 37.03540566 54.52672317 48.57313436 45.46484375 58.71875 C44 60 44 60 42 60 C41.90203125 61.07894531 41.8040625 62.15789063 41.703125 63.26953125 C38.60645107 95.27692645 29.17991008 130.18573268 5 153 C1.79524666 151.58342871 -0.32338707 149.81201141 -2.87109375 147.43359375 C-8.82436288 142.72735087 -14.72594997 142.99619413 -22.0625 143.0625 C-23.30966797 143.04638672 -24.55683594 143.03027344 -25.84179688 143.01367188 C-28.8956644 142.97856995 -31.94613521 142.97478255 -35 143 C-31.97912083 138.92707335 -28.92902188 134.88386793 -25.7734375 130.9140625 C-17.60329794 120.62401251 -10.05481202 110.08392785 -3 99 C-2.58911133 98.35998047 -2.17822266 97.71996094 -1.75488281 97.06054688 C13.47451911 74.11600174 13.47451911 74.11600174 19.83984375 48.49609375 C18.77380075 45.32771478 17.20151032 42.77855771 15.4375 39.9375 C9.02825579 29.21932339 0 12.71708486 0 0 Z " fill="#010100" transform="translate(537,596)"/>
<path d="M0 0 C0.66 0.33 1.32 0.66 2 1 C2.38709954 3.90939097 2.65928316 6.76409876 2.875 9.6875 C6.51043361 50.7567709 21.53754853 91.81914529 47.68774414 124.08227539 C49 126 49 126 49 129 C48.43079834 128.99887207 47.86159668 128.99774414 47.27514648 128.99658203 C44.66143604 129.00879191 42.05056958 129.06656658 39.4375 129.125 C38.54224609 129.12242187 37.64699219 129.11984375 36.72460938 129.1171875 C30.84811397 129.28939249 27.61682797 130.3130625 23.35961914 134.42529297 C21.79961964 136.16633845 21.79961964 136.16633845 20 139 C14.50768534 138.33713444 12.6089393 136.002151 9.171875 131.88671875 C-2.1745077 116.8058252 -9.09129323 99.12286256 -14 81 C-14.19158691 80.31631348 -14.38317383 79.63262695 -14.58056641 78.92822266 C-20.86026444 56.34969809 -23.51071348 33.33820951 -25 10 C-23.84242187 9.56945312 -22.68484375 9.13890625 -21.4921875 8.6953125 C-17.3481334 7.14106391 -13.23253485 5.52298273 -9.125 3.875 C-8.46242188 3.61074219 -7.79984375 3.34648438 -7.1171875 3.07421875 C-3.51519727 1.63532218 -3.51519727 1.63532218 0 0 Z " fill="#000000" transform="translate(107,609)"/>
<path d="M0 0 C2.99512044 2.65723879 4.97805337 5.55967291 7 9 C7.58007812 9.98484375 8.16015625 10.9696875 8.7578125 11.984375 C12.86814561 19.82268464 14.68828769 27.18338649 13 36 C10.81230658 40.19137525 8.4838328 42.50538907 4 44 C-0.66507623 44.3823833 -3.04127641 44.47936179 -7.25 42.375 C-11.31305559 38.86599744 -13.60000767 35.16914587 -15.4375 30.1875 C-16.65017404 26.768909 -16.65017404 26.768909 -19.6875 26.0625 C-20.450625 26.041875 -21.21375 26.02125 -22 26 C-24.11195468 29.11764738 -25.31638041 31.96935433 -26.3125 35.5625 C-27.44718678 39.17068388 -27.93359922 39.94466602 -31 42.5 C-35.59295104 44.79647552 -38.87304981 45.34758984 -44 45 C-49.15719651 43.14340926 -51.84440748 40.43488678 -55 36 C-55.50529948 34.73932935 -55.98519955 33.46814139 -56.4375 32.1875 C-56.953125 31.135625 -57.46875 30.08375 -58 29 C-61.08369887 27.94250443 -61.08369887 27.94250443 -64 28 C-66.07241014 30.46715492 -67.16557239 32.44152636 -68.3125 35.5 C-70.28311232 39.58719592 -72.05943255 40.86552596 -76 43 C-81.95465471 44.9848849 -88.64553901 45.01898824 -94.375 42.3125 C-98.90892543 39.69248572 -102.10382568 36.34426148 -105 32 C-105.6975699 27.66857757 -105.57466113 24.07748961 -103.5 20.1875 C-96.20525238 13.80459583 -86.29801543 11.75814619 -77.1875 9.125 C-76.4419989 8.907229 -75.6964978 8.68945801 -74.92840576 8.46508789 C-15.73242268 -8.7853286 -15.73242268 -8.7853286 0 0 Z " fill="#FCBC40" transform="translate(527,754)"/>
<path d="M0 0 C1.08337646 0.22260498 2.16675293 0.44520996 3.28295898 0.67456055 C20.71713303 4.32884715 38.01838147 8.53815528 55 13.9375 C56.45418335 14.38089722 56.45418335 14.38089722 57.93774414 14.83325195 C64.31990644 16.94899482 69.29499405 19.81116199 73.75 24.9375 C75.11407659 28.51008155 75.34810384 30.40412595 73.953125 33.98046875 C70.52640641 40.23540371 65.43283269 43.7098891 58.75 45.9375 C51.66773674 46.63542901 45.57214379 46.33995848 39.75 41.9375 C37.11191631 38.59592732 35.97586618 34.99228813 34.75 30.9375 C30.64776415 29.92209888 30.64776415 29.92209888 26.75 30.9375 C26.09009125 32.51955199 25.49520523 34.12909503 24.9375 35.75 C22.84058864 41.19420319 20.52636426 43.47625565 15.375 46.1875 C10.78748328 47.49821906 7.11663521 47.42948868 2.625 45.8125 C-4.02236202 41.4772639 -5.64234681 37.35743782 -7.25 29.9375 C-7.91 29.2775 -8.57 28.6175 -9.25 27.9375 C-11.80780314 27.88945976 -11.80780314 27.88945976 -14.25 28.9375 C-15.47287227 31.03385785 -15.47287227 31.03385785 -16.125 33.625 C-17.98649702 38.92836702 -20.50011014 41.95091032 -25.25 44.9375 C-28.86930698 46.14393566 -31.44231005 46.26018559 -35.25 45.9375 C-40.12506134 43.49996933 -42.52327454 41.11767638 -44.25 35.9375 C-46.36115187 25.6945039 -40.78875056 15.39520189 -35.35546875 7.015625 C-26.08291412 -4.54201947 -13.10360152 -2.72701903 0 0 Z " fill="#FCBC40" transform="translate(171.25,752.0625)"/>
<path d="M0 0 C5.79058129 4.01392566 11.02308381 9.22585512 14.1875 15.5546875 C15.64528361 23.65348536 15.39393099 29.33879101 10.71875 36.3515625 C3.38316537 45.02618242 -6.26050391 48.64850154 -17.25 49.6796875 C-31.36736853 50.62777205 -44.42929189 49.65315048 -56.08203125 40.71875 C-61.40495159 35.71232763 -64.54776216 30.43799121 -64.875 23.0546875 C-64.32950658 14.62325665 -60.55914676 9.22120184 -54.52734375 3.50390625 C-39.98784642 -8.14265508 -15.95220027 -9.36083974 0 0 Z " fill="#08071A" transform="translate(356.25,398.3203125)"/>
<path d="M0 0 C14.65964634 8.62332137 23.84824601 30.42813928 29.0625 45.75 C29.31733154 46.49475586 29.57216309 47.23951172 29.8347168 48.00683594 C31.41241521 52.8459 32.26275549 57.43265715 32.75 62.5 C19.0340064 64.15621025 5.59454422 65.69809364 -8.25 65.5 C-8.5903125 64.49582031 -8.930625 63.49164063 -9.28125 62.45703125 C-13.7120542 49.79803533 -19.98482569 39.38071739 -27.90234375 28.5234375 C-30.83475444 24.12057159 -30.80591533 19.59991893 -30.25 14.5 C-28.58381658 8.03690637 -25.5931308 4.35321898 -20.15234375 0.59375 C-14.25628926 -2.79617866 -6.16187562 -2.73727156 0 0 Z " fill="#FFD8AE" transform="translate(270.25,1.5)"/>
<path d="M0 0 C12.01717191 30.54508826 12.01717191 30.54508826 14 41 C13.00742187 41.08636719 12.01484375 41.17273438 10.9921875 41.26171875 C-4.63538635 42.79793619 -16.53228317 47.51601028 -29 57 C-30.17175781 57.87785156 -30.17175781 57.87785156 -31.3671875 58.7734375 C-31.90601563 59.17820312 -32.44484375 59.58296875 -33 60 C-36.28362638 43.18276647 -39.56426349 26.21003647 -39 9 C-37.36804688 8.96132813 -37.36804688 8.96132813 -35.703125 8.921875 C-23.20212935 8.4924297 -10.95586627 0 0 0 Z " fill="#D58500" transform="translate(552,459)"/>
<path d="M0 0 C29.29940808 37.03897599 39.60680435 103.71654311 39.0625 149.3125 C39.05798828 150.06466797 39.05347656 150.81683594 39.04882812 151.59179688 C39.03734551 153.39456815 39.01943033 155.19729686 39 157 C34.73035001 155.475125 33.03659811 152.96600685 31 149 C30.47305605 145.83234832 30.49678381 142.70566558 30.5 139.5 C29.32543413 91.01721801 15.19809855 43.23828278 -12 3 C-11.67 2.34 -11.34 1.68 -11 1 C-10.34 1.33 -9.68 1.66 -9 2 C-7.45976004 2.06950541 -5.91665012 2.08452357 -4.375 2.0625 C-3.55773437 2.05347656 -2.74046875 2.04445313 -1.8984375 2.03515625 C-1.27195312 2.02355469 -0.64546875 2.01195312 0 2 C0 1.34 0 0.68 0 0 Z " fill="#B99D7A" transform="translate(539,303)"/>
<path d="M0 0 C0.680625 0.4125 1.36125 0.825 2.0625 1.25 C15.17431622 9.06129477 27.65222115 15.38672633 42.52734375 19.08984375 C46 20 46 20 47 21 C47.75244453 31.01330032 47.68264715 43.11328783 41.9375 51.8125 C38.26231556 54.54933948 35.92764794 54.81717745 31.421875 54.50390625 C24.83217525 53.13282356 21.36708852 47.23238963 17.84765625 41.96484375 C0 13.3255814 0 13.3255814 0 0 Z " fill="#D08100" transform="translate(541,599)"/>
<path d="M0 0 C0.66 0.66 1.32 1.32 2 2 C4.44963177 2.02253443 4.44963177 2.02253443 7.125 1.625 C8.49011719 1.45871094 8.49011719 1.45871094 9.8828125 1.2890625 C10.93082031 1.14597656 10.93082031 1.14597656 12 1 C10.70621358 4.39252876 9.23572401 7.5371495 7.4609375 10.703125 C6.96698486 11.59169189 6.47303223 12.48025879 5.96411133 13.39575195 C5.17750122 14.80860474 5.17750122 14.80860474 4.375 16.25 C-8.481827 39.68127497 -18.34741723 63.78838021 -24 90 C-24.15162598 90.67756348 -24.30325195 91.35512695 -24.45947266 92.05322266 C-27.48649747 105.73428768 -28.95141286 119.8915704 -29.09765625 133.8984375 C-29.11489746 134.84887939 -29.13213867 135.79932129 -29.14990234 136.77856445 C-29.17435868 138.58944503 -29.16972633 140.4010309 -29.13134766 142.21166992 C-29.21920356 148.16068615 -29.21920356 148.16068615 -31.57666016 150.69482422 C-36.10580373 154 -36.10580373 154 -38 154 C-40.25658045 101.68076427 -25.65454066 45.44981436 0 0 Z " fill="#B99D7B" transform="translate(125,303)"/>
<path d="M0 0 C1.99396257 2.66083969 4 5.61242325 4 9 C3.26587891 8.98952637 2.53175781 8.97905273 1.77539062 8.96826172 C-22.26729329 8.67092734 -43.58196006 11.61472789 -67 17 C-67.89638184 17.19964355 -68.79276367 17.39928711 -69.71630859 17.60498047 C-86.1686909 21.32560193 -101.45631167 28.58480959 -114 40 C-115.36511719 41.17175781 -115.36511719 41.17175781 -116.7578125 42.3671875 C-129.29152231 53.32991461 -136.31902298 64.51700935 -142 80 C-142.66 80 -143.32 80 -144 80 C-143.4600433 74.35556895 -142.40709465 69.47342347 -140.375 64.1875 C-140.10776123 63.49172852 -139.84052246 62.79595703 -139.56518555 62.07910156 C-129.70343264 37.33184565 -108.17574316 22.79218165 -84.59375 12.515625 C-82.9437551 11.86131668 -81.28640831 11.22467013 -79.6171875 10.62109375 C-77.98412722 10.11965463 -77.98412722 10.11965463 -77 9 C-74.1114837 8.5279475 -71.23292601 8.11204327 -68.33203125 7.73046875 C-67.43698883 7.60932709 -66.54194641 7.48818542 -65.61978149 7.3633728 C-62.68457414 6.96716894 -59.74859129 6.57709519 -56.8125 6.1875 C-54.80538249 5.91881789 -52.79830249 5.6498554 -50.79125977 5.38061523 C-47.76260213 4.97462097 -44.73387354 4.56920503 -41.70487976 4.16572571 C-35.63629421 3.35698291 -29.57096854 2.52809289 -23.5078125 1.6796875 C-22.11356117 1.48647664 -20.71927539 1.29351424 -19.32495117 1.10083008 C-16.7827647 0.74879082 -14.24122373 0.39204997 -11.70043945 0.0300293 C-10.58113037 -0.12296631 -9.46182129 -0.27596191 -8.30859375 -0.43359375 C-7.34751709 -0.56822021 -6.38644043 -0.70284668 -5.39624023 -0.84155273 C-3 -1 -3 -1 0 0 Z " fill="#F7F5E7" transform="translate(161,464)"/>
<path d="M0 0 C2.71759879 2.46282391 2.96120713 3.78663922 3.625 7.4375 C2.96003621 11.22779358 2.80446823 11.63489267 -0.0625 13.8125 C-6.41794252 18.03505024 -13.49875691 18.36387444 -20.875 18.375 C-21.72191406 18.39949219 -22.56882812 18.42398437 -23.44140625 18.44921875 C-30.82296412 18.48313096 -36.54454774 16.44410038 -42.5625 12.1875 C-44.76059783 8.84256852 -44.74209388 6.91285864 -44 3 C-33.4166336 -9.97792695 -12.98823579 -8.09152161 0 0 Z " fill="#F9BA40" transform="translate(352,414)"/>
<path d="M0 0 C0.11480713 0.56807373 0.22961426 1.13614746 0.34790039 1.72143555 C3.75700272 18.19737562 7.78484597 29.97772039 19.69140625 42.35546875 C27.50213992 51.30278972 28.48443636 60.53925553 28 72 C27.02583772 80.61437783 22.15863151 87.52206104 16.02734375 93.3984375 C12.37166627 96.28635227 8.26184477 98.17055859 4 100 C3.18144531 100.36867188 2.36289062 100.73734375 1.51953125 101.1171875 C-6.10315102 103.78808082 -14.75400047 102.10542837 -22 99 C-30.64927622 94.50237637 -37.96869206 87.87854678 -41.1953125 78.5234375 C-43.28041929 71.88536594 -43.65329041 65.67239648 -43.5625 58.75 C-43.55226807 57.56849365 -43.54203613 56.3869873 -43.53149414 55.16967773 C-43.11172192 37.80918297 -37.09564763 22.70684004 -25.1015625 9.90234375 C-21.73373284 6.85376932 -18.12985842 4.84433257 -14 3 C-13.29488281 2.68160156 -12.58976563 2.36320312 -11.86328125 2.03515625 C-7.73203064 0.32757267 -4.42192127 -0.11883523 0 0 Z M-22.98828125 11.9140625 C-37.01224631 26.45541656 -40.64333063 44.63419656 -40.30859375 64.10546875 C-39.94199717 73.72368527 -38.02667642 82.21963502 -31.05078125 89.28515625 C-23.49441265 95.60371971 -15.24778149 99.64367605 -5.1953125 99.30859375 C4.8512115 97.89635995 13.65787595 92.59994186 19.875 84.625 C25.57243605 75.7929884 25.99011937 67.05910982 23.9375 57 C22.2457694 50.7548263 19.24262181 46.77294954 15 42 C7.42745167 32.97227913 3.14859984 25.30787471 0 14 C-0.55873665 12.12387511 -1.12111621 10.24883048 -1.6875 8.375 C-2.125 6.91666667 -2.5625 5.45833333 -3 4 C-10.27782163 4 -17.32769895 7.39018942 -22.98828125 11.9140625 Z " fill="#100C07" transform="translate(529,353)"/>
<path d="M0 0 C4.01354942 1.66769898 7.03428774 3.97393073 10 7.125 C12.03330707 12.97075782 11.99796217 18.80448322 9.4375 24.4375 C5.21446274 28.87710327 1.53418071 31.19208683 -4.5625 31.5 C-9.00418952 31.28093708 -11.59372257 29.93098291 -15 27 C-18.33997264 23.29894924 -19.83029663 20.76491504 -20.3125 15.75 C-19.82892095 9.94705136 -17.6563735 6.49862364 -13.375 2.625 C-8.92703356 -0.41834546 -5.31476741 -0.75320748 0 0 Z " fill="#F7F9F9" transform="translate(220,360)"/>
<path d="M0 0 C4.33279036 2.45915128 7.40766916 5.72049709 9.3125 10.3125 C10.09921167 15.93186904 9.53452478 20.53501498 6.3125 25.3125 C1.38617238 29.75821029 -1.64120857 30.66876128 -8.1484375 30.59375 C-13.0995418 30.04531999 -15.78547414 27.31204217 -19 23.75 C-21.86832901 19.60685809 -22.02303833 16.26169042 -21.6875 11.3125 C-18.14960038 1.48500106 -9.98238075 -2.55363229 0 0 Z " fill="#F8F9FA" transform="translate(453.6875,360.6875)"/>
<path d="M0 0 C22.37489882 -1.9687411 45.16636566 8.55824903 62.23828125 22.640625 C63.60533203 23.80851562 63.60533203 23.80851562 65 25 C65.67417969 25.57234375 66.34835937 26.1446875 67.04296875 26.734375 C76.41212138 35.39601725 85.08278052 48.15892734 86 61 C82 56 82 56 80.58007812 54.21630859 C61.95808385 30.85578775 39.99762093 12.50177083 9.25 8.75 C6.83460764 8.47905906 4.41944694 8.23334767 2 8 C0.74335022 5.09399739 0 3.20395416 0 0 Z " fill="#F7F5E7" transform="translate(561,473)"/>
<path d="M0 0 C1.83667236 0.21209106 1.83667236 0.21209106 3.71044922 0.4284668 C21.02865513 2.59181402 37.92651143 6.5911544 49.3125 20.9375 C50.8125 24.4375 50.8125 24.4375 51.3125 26.9375 C50.8278125 26.56238281 50.343125 26.18726563 49.84375 25.80078125 C47.68546755 24.15301561 45.50290522 22.54227605 43.3125 20.9375 C42.735 20.49664063 42.1575 20.05578125 41.5625 19.6015625 C23.95047561 7.2574204 -2.27010189 7.79358739 -22.6875 8.9375 C-24.35758374 9.25326764 -26.0249492 9.58421013 -27.6875 9.9375 C-29.45727761 10.00209042 -31.22920152 10.02361065 -33 10 C-33.88300781 9.99097656 -34.76601563 9.98195313 -35.67578125 9.97265625 C-36.33964844 9.96105469 -37.00351562 9.94945312 -37.6875 9.9375 C-37.48828125 7.57421875 -37.48828125 7.57421875 -36.6875 4.9375 C-34.60546875 3.64453125 -34.60546875 3.64453125 -31.875 2.75 C-31.00230469 2.44707031 -30.12960938 2.14414062 -29.23046875 1.83203125 C-19.13713434 -0.71634094 -10.34848247 -1.24732985 0 0 Z " fill="#F7F6F3" transform="translate(89.6875,511.0625)"/>
<path d="M0 0 C0.82564453 0.11408203 1.65128906 0.22816406 2.50195312 0.34570312 C8.28620274 1.24365204 12.69783564 2.96315411 17.8125 5.8125 C17.4825 7.1325 17.1525 8.4525 16.8125 9.8125 C16.05453125 9.7403125 15.2965625 9.668125 14.515625 9.59375 C-13.11530454 7.28703324 -13.11530454 7.28703324 -40.1875 11.8125 C-41.32058594 12.12574219 -42.45367188 12.43898438 -43.62109375 12.76171875 C-49.87324231 14.55717117 -55.4458383 16.77916929 -61.1875 19.8125 C-61.8475 19.8125 -62.5075 19.8125 -63.1875 19.8125 C-63.455625 20.43125 -63.72375 21.05 -64 21.6875 C-65.1875 23.8125 -65.1875 23.8125 -68.1875 25.8125 C-67.00297816 19.14956464 -61.36291894 14.40961648 -56.0625 10.625 C-42.94460899 2.61938824 -29.76127442 1.46847267 -14.70849609 0.12207031 C-9.16591075 -0.55854156 -5.64184497 -0.89081763 0 0 Z " fill="#F8F5E7" transform="translate(595.1875,511.1875)"/>
<path d="M0 0 C2.52552779 -0.21829292 5.0320105 -0.37514765 7.5625 -0.5 C8.61920898 -0.60054688 8.61920898 -0.60054688 9.69726562 -0.703125 C13.07649682 -0.82770495 15.17274159 -0.66234813 17.86523438 1.4934082 C19.7354522 3.57565654 21.3782454 5.71911748 23 8 C23.8185144 9.12124268 23.8185144 9.12124268 24.65356445 10.26513672 C26.27429279 12.54417144 27.8310294 14.85590895 29.375 17.1875 C29.90738281 17.96802734 30.43976562 18.74855469 30.98828125 19.55273438 C31.74818359 20.69258789 31.74818359 20.69258789 32.5234375 21.85546875 C32.97638184 22.53246826 33.42932617 23.20946777 33.89599609 23.90698242 C35.13701623 26.2597612 35.59673587 28.38220545 36 31 C32.93570224 32.53214888 30.3834358 32.22938548 27 32 C22.94363546 30.03826364 20.87149498 27.83125025 18.375 24.125 C15.17535869 19.55408385 11.80111992 15.24363785 8.1875 11 C7.71940918 10.44844238 7.25131836 9.89688477 6.76904297 9.32861328 C4.96849769 7.22483198 3.17513563 5.1680102 1.17578125 3.25 C0 2 0 2 0 0 Z " fill="#F9FAF8" transform="translate(503,274)"/>
<path d="M0 0 C0.75410156 0.00451172 1.50820312 0.00902344 2.28515625 0.01367188 C4.14847127 0.02546501 6.01174555 0.04340058 7.875 0.0625 C3.63568504 5.95043745 -0.9639177 11.43482306 -5.72607422 16.89990234 C-8.50188344 20.10235891 -11.09043592 23.31926953 -13.5 26.8125 C-15.92974563 30.14716556 -17.95563968 31.35282165 -22.125 32.0625 C-25 32.1875 -25 32.1875 -27.125 32.0625 C-27.8671875 30.5 -27.8671875 30.5 -28.125 28.0625 C-26.93359078 25.5719159 -25.71928859 23.37957959 -24.25 21.0625 C-23.84450928 20.40620605 -23.43901855 19.74991211 -23.02124023 19.07373047 C-10.97152972 -0.12316916 -10.97152972 -0.12316916 0 0 Z " fill="#F8F9F8" transform="translate(154.125,273.9375)"/>
<path d="M0 0 C9.841972 24.03543903 9.841972 24.03543903 13.625 35.375 C13.8720166 36.11024902 14.1190332 36.84549805 14.37353516 37.60302734 C15.32344125 40.52243793 16 42.90923722 16 46 C15.01 46 14.02 46 13 46 C10.41578345 39.00174898 7.91544293 31.97394137 5.4375 24.9375 C5.14480225 24.1115332 4.85210449 23.28556641 4.55053711 22.43457031 C2.52727525 16.67075254 0.70822951 10.86468763 -1 5 C-2.00160156 5.48210937 -3.00320313 5.96421875 -4.03515625 6.4609375 C-5.37747 7.09924054 -6.71992554 7.7372455 -8.0625 8.375 C-8.71927734 8.69210937 -9.37605469 9.00921875 -10.05273438 9.3359375 C-10.70693359 9.6453125 -11.36113281 9.9546875 -12.03515625 10.2734375 C-12.6269165 10.55622559 -13.21867676 10.83901367 -13.82836914 11.13037109 C-20.00548639 13.60399579 -25.38098061 14.27107498 -31.9375 14.125 C-32.71673828 14.11597656 -33.49597656 14.10695313 -34.29882812 14.09765625 C-36.19935447 14.07433691 -38.09972008 14.03847586 -40 14 C-39.47257822 18.80207171 -38.93930102 23.60344609 -38.40087891 28.40429688 C-38.21897815 30.03335497 -38.03860438 31.66258439 -37.85986328 33.29199219 C-36.58733605 45.21831411 -36.58733605 45.21831411 -34.375 56.99804688 C-33.74677098 60.35187367 -33.87403628 63.59897969 -34 67 C-34.99 67.495 -34.99 67.495 -36 68 C-40.75234084 48.78192848 -42.59135215 29.68949377 -44 10 C-42.75605469 10.03480469 -41.51210938 10.06960938 -40.23046875 10.10546875 C-25.50496946 10.39562637 -11.95311984 0 0 0 Z " fill="#120C02" transform="translate(553,454)"/>
<path d="M0 0 C0.515625 0.45375 1.03125 0.9075 1.5625 1.375 C7.58546001 5.39030667 14.18281146 5.35348153 21.1875 5.3125 C22.11353027 5.31048584 23.03956055 5.30847168 23.99365234 5.30639648 C30.98803788 5.20423955 37.3618695 4.29598421 44 2 C44.99 1.67 45.98 1.34 47 1 C47.4375 4.1875 47.4375 4.1875 47 8 C42.89289265 12.71828404 36.79541896 14.63416187 30.70776367 15.22094727 C28.17691307 15.33973457 25.65853158 15.37117869 23.125 15.375 C22.27808594 15.39949219 21.43117188 15.42398437 20.55859375 15.44921875 C13.17703588 15.48313096 7.45545226 13.44410038 1.4375 9.1875 C-0.59479037 6.09488422 -0.2778103 3.61153396 0 0 Z " fill="#ED7823" transform="translate(308,417)"/>
<path d="M0 0 C1.44564445 2.29602354 2.01915134 3.63612457 1.875 6.375 C-0.44455748 13.33367243 -4.70593152 16.75603452 -11 20 C-17.00754298 22.00251433 -23.7036305 21.9794752 -29.5 19.3125 C-32.75547241 17.43126389 -34.54579876 15.54461552 -36 12 C-36 11.01 -36 10.02 -36 9 C-33.00872232 9.41738758 -30.39294375 9.82420937 -27.625 11.0625 C-22.16645371 13.01198082 -18.72256313 12.74860837 -13.4765625 10.46875 C-10.97941823 9.24196373 -8.52329378 7.9486309 -6.07421875 6.62890625 C-3 5 -3 5 0 4 C0 2.68 0 1.36 0 0 Z " fill="#EA7723" transform="translate(244,777)"/>
<path d="M0 0 C0.99 1.485 0.99 1.485 2 3 C4.31456005 5.67857098 6.77088845 7.07264607 9.9375 8.625 C11.21947266 9.26308594 11.21947266 9.26308594 12.52734375 9.9140625 C21.03769284 13.65162497 28.53854613 11.91295953 37 9 C36.74220026 12.78106289 36.47578037 14.52421963 33.75 17.25 C27.606982 21.15919327 22.16955113 21.81449319 15 21 C8.35479796 18.92687626 3.83508582 14.75262873 0 9 C-0.1953125 6.73828125 -0.1953125 6.73828125 -0.125 4.3125 C-0.10695313 3.50425781 -0.08890625 2.69601562 -0.0703125 1.86328125 C-0.04710937 1.24839844 -0.02390625 0.63351562 0 0 Z " fill="#EC7823" transform="translate(422,777)"/>
<path d="M0 0 C4.08406297 4.38900633 3.59958636 8.83456062 3.4921875 14.5625 C2.88156579 18.82715958 1.63159808 20.89692731 -1.39453125 23.86328125 C-5.16702746 26.53431871 -9.55998946 26.59817979 -14 26 C-18.82398265 23.58800867 -21.44752319 20.7268089 -24 16 C-24.75 12.625 -24.75 12.625 -25 10 C-21.3641852 10.94531185 -18.4076119 11.76961066 -15.125 13.625 C-10.97308981 15.45184049 -7.46783093 15.71079129 -3 15 C-0.14777209 13.89794623 -0.14777209 13.89794623 1 11 C1.0107237 7.2735129 0.58318279 3.67658718 0 0 Z " fill="#EB7723" transform="translate(537,772)"/>
<path d="M0 0 C1.17795874 3.53387623 0.54958106 4.98408445 -0.984375 8.2890625 C-3.45090856 12.44422288 -7.46309688 14.70374197 -12 16 C-17.25418785 16.47765344 -20.56705964 15.89104806 -25 13 C-27.02928053 11.09354435 -28.38526503 9.32711804 -30 7 C-30 5.68 -30 4.36 -30 3 C-27.83125748 3.50603992 -26.00032373 3.99983813 -24 5 C-14.91032891 6.03628172 -8.10420727 4.02336531 0 0 Z " fill="#EB7823" transform="translate(196,783)"/>
<path d="M0 0 C0.33 0 0.66 0 1 0 C1.2475 1.11375 1.495 2.2275 1.75 3.375 C2.59056139 6.98786076 2.59056139 6.98786076 4.8203125 8.234375 C11.2593571 10.49611827 18.0279681 7.43684032 23.93359375 4.83984375 C26 4 26 4 28 4 C27.77224148 9.58008369 26.44742564 12.4845859 22.60546875 16.5546875 C19.40479443 19.43607314 16.7757848 19.91536893 12.5625 20.375 C8.22675288 19.91860557 6.28739254 18.83911174 3 16 C-0.63412417 10.91222617 -0.32005249 5.9980207 0 0 Z " fill="#EA7723" transform="translate(127,778)"/>
<path d="M0 0 C1.39456452 0.00667256 2.78911118 0.01863093 4.18359375 0.03515625 C4.89451172 0.03966797 5.60542969 0.04417969 6.33789062 0.04882812 C8.09899388 0.06064761 9.86005411 0.07858362 11.62109375 0.09765625 C12.11609375 7.02765625 12.11609375 7.02765625 12.62109375 14.09765625 C4.70109375 13.76765625 -3.21890625 13.43765625 -11.37890625 13.09765625 C-3.8606513 0.11157952 -3.8606513 0.11157952 0 0 Z " fill="#F59D02" transform="translate(499.37890625,477.90234375)"/>
<path d="M0 0 C0.845625 0.3609375 1.69125 0.721875 2.5625 1.09375 C13.1084559 5.40800469 19.32598961 6.15100404 30 2 C29.72991214 5.87125927 29.24063252 7.70589359 26.75 10.75 C21.9417409 14.68403017 18.20861783 15.5446156 12 15 C6.87419242 13.15470927 4.06972204 10.47302354 1 6 C0.60422529 4.0114142 0.26080777 2.01074375 0 0 Z " fill="#EB7723" transform="translate(471,784)"/>
<path d="M0 0 C0.495 1.485 0.495 1.485 1 3 C0.09378906 2.855625 -0.81242188 2.71125 -1.74609375 2.5625 C-2.96425781 2.376875 -4.18242188 2.19125 -5.4375 2 C-7.22994141 1.7215625 -7.22994141 1.7215625 -9.05859375 1.4375 C-18.39079321 0.40161661 -26.89046838 1.59055092 -36.125 3.1875 C-37.45034319 3.41105828 -38.77570145 3.63452727 -40.10107422 3.85791016 C-49.46525187 5.45805565 -58.75381825 7.34593808 -67.99267578 9.56323242 C-68.8639209 9.7666626 -69.73516602 9.97009277 -70.6328125 10.1796875 C-71.76033936 10.45401611 -71.76033936 10.45401611 -72.91064453 10.73388672 C-75.21520423 11.02740975 -76.80181738 10.70165343 -79 10 C-63.46807921 5.24078347 -47.94084582 1.14015848 -32 -2 C-30.12441406 -2.37125 -30.12441406 -2.37125 -28.2109375 -2.75 C-18.05464631 -4.60127333 -9.42214119 -5.03075038 0 0 Z " fill="#E77623" transform="translate(527,754)"/>
<path d="M0 0 C1.07032471 0.21825439 2.14064941 0.43650879 3.2434082 0.66137695 C18.15447899 3.77004542 33.32631674 6.99510034 47.75 11.9375 C47.75 12.2675 47.75 12.5975 47.75 12.9375 C38.46592474 12.17855544 29.48551781 10.03102936 20.41088867 8.02416992 C2.73001962 4.12804324 -14.27280227 0.90253778 -32.25 4.9375 C-23.83173973 -5.05918407 -11.49385791 -2.38995649 0 0 Z " fill="#E87723" transform="translate(171.25,752.0625)"/>
<path d="M0 0 C2.5625 2.125 2.5625 2.125 4 5 C4 8.63075827 3.41176127 10.42048414 1.3125 13.375 C-1 15 -1 15 -3.9375 15.5625 C-8.12178713 14.79395747 -9.56927503 13.46194162 -12 10 C-12 6.48044581 -11.63108355 4.15079941 -9.9375 1.0625 C-6.7235125 -0.70000928 -3.50343338 -0.74571072 0 0 Z " fill="#F1F0E6" transform="translate(428,392)"/>
<path d="M0 0 C2.4375 1.5625 2.4375 1.5625 4 4 C4.5625 7.5 4.5625 7.5 4 11 C1.4268383 13.95156784 -0.21802472 14.85637189 -4.0625 15.5625 C-7 15 -7 15 -9.375 12.875 C-11.28071139 9.50335677 -11.64850195 7.80994895 -11 4 C-8.05899778 -0.47032338 -5.13105401 -0.73300772 0 0 Z " fill="#F6F5EA" transform="translate(243,392)"/>
<path d="M0 0 C7.875 0.875 7.875 0.875 9 2 C9.04092937 4.33297433 9.04241723 6.66705225 9 9 C4.71 9 0.42 9 -4 9 C-2.74646003 5.86615008 -1.53924548 2.96854486 0 0 Z " fill="#FAF8EB" transform="translate(501,469)"/>
<path d="M0 0 C1.21386936 3.64160808 0.6674695 4.33165469 -0.9375 7.6875 C-1.31777344 8.49574219 -1.69804687 9.30398438 -2.08984375 10.13671875 C-2.39019531 10.75160156 -2.69054687 11.36648438 -3 12 C-3.66 12 -4.32 12 -5 12 C-4.25 4.375 -4.25 4.375 -2 1 C-1.34 0.67 -0.68 0.34 0 0 Z " fill="#B0C2C2" transform="translate(22,532)"/>
<path d="M0 0 C6.47511312 1.3438914 6.47511312 1.3438914 9 4.5 C9.33 5.325 9.66 6.15 10 7 C9.67 7.66 9.34 8.32 9 9 C7.49704815 7.69088122 5.99770689 6.37761608 4.5 5.0625 C3.6646875 4.33160156 2.829375 3.60070312 1.96875 2.84765625 C1.3190625 2.23792969 0.669375 1.62820313 0 1 C0 0.67 0 0.34 0 0 Z " fill="#B6D1DF" transform="translate(131,529)"/>
</svg>
