<?xml version="1.0" encoding="UTF-8"?>
<svg version="1.1" xmlns="http://www.w3.org/2000/svg" width="668" height="643">
<path d="M0 0 C56.09589934 51.19863828 80.42084868 126.42107889 85.0625 200.6875 C85.1519731 203.44476763 85.15056037 206.17698056 85.125 208.9375 C85.11146484 210.86335937 85.11146484 210.86335937 85.09765625 212.828125 C85.08025391 214.24351562 85.08025391 214.24351562 85.0625 215.6875 C86.12210938 215.73648437 87.18171875 215.78546875 88.2734375 215.8359375 C89.66148497 215.91096709 91.04950451 215.98651485 92.4375 216.0625 C93.48550781 216.10890625 93.48550781 216.10890625 94.5546875 216.15625 C99.8359375 216.4609375 99.8359375 216.4609375 102.0625 218.6875 C102.2578125 221.5078125 102.2578125 221.5078125 102.1875 224.8125 C102.16945313 225.90820312 102.15140625 227.00390625 102.1328125 228.1328125 C102.09800781 229.39738281 102.09800781 229.39738281 102.0625 230.6875 C103.32707031 231.04521484 103.32707031 231.04521484 104.6171875 231.41015625 C126.3557749 239.46970056 142.95277576 260.36524408 152.40625 280.75 C160.80707907 299.98447742 161.83509373 322.64595212 154.7734375 342.484375 C150.90885593 352.11482962 145.67047166 359.65012621 138.0625 366.6875 C137.58683594 367.15671875 137.11117187 367.6259375 136.62109375 368.109375 C122.8916814 380.94554847 105.83851246 382.18259857 88.0625 382.6875 C87.7325 384.0075 87.4025 385.3275 87.0625 386.6875 C90.6925 387.0175 94.3225 387.3475 98.0625 387.6875 C97.88255086 394.88546568 97.34582386 399.39833888 92.92578125 405.12890625 C90.5033322 407.15523156 88.07703638 407.8400569 85.0625 408.6875 C85.04832031 409.45707031 85.03414062 410.22664063 85.01953125 411.01953125 C83.97210797 436.24261612 78.21963878 463.91130269 67.0625 486.6875 C66.63710938 487.56535156 66.21171875 488.44320312 65.7734375 489.34765625 C60.13155186 500.30047893 52.62198963 510.29761629 44.36328125 519.40625 C42.57103756 522.5494041 43.1310227 524.26002526 44.0625 527.6875 C44.55543313 528.99006941 45.07541942 530.2828003 45.625 531.5625 C48.30670152 539.39519255 48.61992788 549.94147217 45.5 557.6875 C40.67222635 566.54688813 34.52725904 571.53258032 25.0625 574.6875 C17.4199691 575.28672157 10.76926471 575.3726894 3.9296875 571.66015625 C1.88766666 570.59642573 0.35905973 569.93827376 -1.9375 569.6875 C-4.2242152 570.61390296 -4.2242152 570.61390296 -6.4375 572.0625 C-13.82214994 576.58939157 -21.47430229 576.34254626 -29.9375 575.6875 C-34.47450212 574.38857538 -38.03431303 572.28962464 -41.9375 569.6875 C-45.53369977 570.05830292 -48.46545106 571.30686747 -51.75 572.75 C-61.04376519 576.19120495 -72.4211124 576.08180696 -81.765625 572.7265625 C-85.98396499 570.70843582 -90.505782 568.13193262 -92.9235239 564.00401974 C-95.14809881 560.56180523 -96.86809268 558.9230226 -100.93948174 558.02635384 C-104.87968799 557.76661377 -108.79057533 557.72888901 -112.73608398 557.76586914 C-114.25270944 557.75473894 -115.76931563 557.74064945 -117.28588867 557.72383118 C-121.39575233 557.68770312 -125.50441317 557.69588762 -129.61435199 557.7142899 C-133.04879297 557.72547364 -136.48301633 557.71454659 -139.91744667 557.70351785 C-148.02142419 557.6776688 -156.12482175 557.68722147 -164.22875977 557.7199707 C-172.58167467 557.75321309 -180.93316947 557.73209984 -189.28597587 557.68326861 C-196.46502903 557.64292419 -203.64364623 557.63377421 -210.8227945 557.65009969 C-215.10728682 557.65969316 -219.39100148 557.6581662 -223.67541313 557.62770271 C-227.70540216 557.60062448 -231.73343865 557.61272233 -235.76328278 557.65458488 C-237.23904387 557.66353838 -238.71496062 557.65897422 -240.19062233 557.63964844 C-248.20724801 557.33535282 -248.20724801 557.33535282 -255.28343391 560.4563427 C-257.16017882 562.53980536 -257.16017882 562.53980536 -258.57553196 564.75093746 C-260.84436611 567.97695972 -263.6349559 568.9909835 -267.1875 570.625 C-267.79851562 570.91439453 -268.40953125 571.20378906 -269.0390625 571.50195312 C-277.5558724 575.49072108 -287.1424672 576.16995025 -296.296875 573.828125 C-298.88819603 572.86163229 -301.40274706 571.79091518 -303.9375 570.6875 C-305.98312338 569.89126017 -305.98312338 569.89126017 -307.9375 569.6875 C-309.97085209 570.96939588 -311.96831154 572.30906808 -313.9375 573.6875 C-318.5197656 575.56926613 -322.77897026 576.0730724 -327.6875 576.0625 C-328.38979736 576.06233887 -329.09209473 576.06217773 -329.81567383 576.06201172 C-335.84832873 575.93037 -340.56121546 574.41042415 -345.9375 571.6875 C-348.41686978 570.39225026 -348.41686978 570.39225026 -350.9375 569.6875 C-354.25163738 571.28100289 -354.25163738 571.28100289 -356.19140625 572.64453125 C-362.22601587 576.24909673 -371.19856273 575.59124865 -377.765625 574.00390625 C-386.42734536 570.80225808 -391.64528231 566.00847392 -395.9921875 557.93359375 C-399.66676654 549.20267247 -398.34032113 538.60166973 -395.9375 529.6875 C-395.2775 528.6975 -394.6175 527.7075 -393.9375 526.6875 C-394.17715249 522.33146349 -395.81508568 520.35258214 -398.8125 517.3125 C-430.12114065 483.71419724 -437.73946497 436.83153449 -440.34277344 392.40893555 C-440.40883789 391.28269775 -440.47490234 390.15645996 -440.54296875 388.99609375 C-440.59606201 387.99376709 -440.64915527 386.99144043 -440.70385742 385.95874023 C-440.69253865 383.72211582 -440.69253865 383.72211582 -441.9375 382.6875 C-443.65865925 382.57317946 -445.38063944 382.46600587 -447.10424805 382.39794922 C-464.89158474 381.68961291 -479.49095821 376.25747095 -492.27734375 363.57421875 C-507.8693855 346.65422043 -509.86434707 326.82516616 -509.12402344 304.87548828 C-508.11942154 287.7052113 -499.81785608 270.78012811 -488.9375 257.6875 C-487.81408203 256.32044922 -487.81408203 256.32044922 -486.66796875 254.92578125 C-474.87097015 241.26108336 -460.11812646 232.07787678 -443.4375 225.4375 C-441.705 224.57125 -441.705 224.57125 -439.9375 223.6875 C-438.79584293 220.03443831 -438.72985358 216.27983206 -438.54296875 212.47265625 C-438.4769043 211.24466309 -438.41083984 210.01666992 -438.34277344 208.75146484 C-438.30792847 208.10054871 -438.2730835 207.44963257 -438.23718262 206.7789917 C-434.19436376 133.65851985 -413.48948917 62.39375111 -361.9375 8.6875 C-361.20877686 7.91792969 -361.20877686 7.91792969 -360.46533203 7.1328125 C-352.88147674 -0.85392719 -344.76299405 -7.73683369 -335.9375 -14.3125 C-335.38368652 -14.73241211 -334.82987305 -15.15232422 -334.25927734 -15.58496094 C-251.447369 -78.22567815 -138.26970413 -81.73994253 0 0 Z " fill="#FAFCFC" transform="translate(508.9375,67.3125)"/>
<path d="M0 0 C56.09589934 51.19863828 80.42084868 126.42107889 85.0625 200.6875 C85.1519731 203.44476763 85.15056037 206.17698056 85.125 208.9375 C85.11146484 210.86335937 85.11146484 210.86335937 85.09765625 212.828125 C85.08025391 214.24351562 85.08025391 214.24351562 85.0625 215.6875 C86.12210938 215.73648437 87.18171875 215.78546875 88.2734375 215.8359375 C89.66148497 215.91096709 91.04950451 215.98651485 92.4375 216.0625 C93.48550781 216.10890625 93.48550781 216.10890625 94.5546875 216.15625 C99.8359375 216.4609375 99.8359375 216.4609375 102.0625 218.6875 C102.2578125 221.5078125 102.2578125 221.5078125 102.1875 224.8125 C102.16945313 225.90820312 102.15140625 227.00390625 102.1328125 228.1328125 C102.09800781 229.39738281 102.09800781 229.39738281 102.0625 230.6875 C103.32707031 231.04521484 103.32707031 231.04521484 104.6171875 231.41015625 C126.3557749 239.46970056 142.95277576 260.36524408 152.40625 280.75 C160.80707907 299.98447742 161.83509373 322.64595212 154.7734375 342.484375 C150.90885593 352.11482962 145.67047166 359.65012621 138.0625 366.6875 C137.58683594 367.15671875 137.11117187 367.6259375 136.62109375 368.109375 C122.8916814 380.94554847 105.83851246 382.18259857 88.0625 382.6875 C87.7325 384.0075 87.4025 385.3275 87.0625 386.6875 C76.33843013 387.13956852 65.71097375 385.79486217 55.0625 384.6875 C55.3925 381.3875 55.7225 378.0875 56.0625 374.6875 C55.04671875 374.14222656 54.0309375 373.59695313 52.984375 373.03515625 C29.59487166 360.29903245 11.57502642 344.5299507 1.0625 319.6875 C0.7325 320.6775 0.4025 321.6675 0.0625 322.6875 C-5.41682789 321.14204854 -10.05179181 318.53206788 -14.9375 315.6875 C-15.25328947 290.31907895 -15.25328947 290.31907895 -12.9375 285.6875 C-10.62947666 284.72460784 -8.36199298 283.86777808 -6 283.0625 C-5.35353516 282.83304687 -4.70707031 282.60359375 -4.04101562 282.3671875 C0.77308873 280.6875 0.77308873 280.6875 3.0625 280.6875 C3.7225 282.6675 4.3825 284.6475 5.0625 286.6875 C5.69865234 285.81738281 5.69865234 285.81738281 6.34765625 284.9296875 C16.13816507 271.89002081 28.92690941 263.73843724 45.0625 260.6875 C55.7481403 259.30840913 67.69287328 259.82243227 77.0625 265.6875 C77.93359375 268.36328125 77.93359375 268.36328125 78.0625 270.6875 C75.20917069 272.28383297 72.97210378 272.97664672 69.71875 273.21484375 C68.89068848 273.28276123 68.06262695 273.35067871 67.20947266 273.4206543 C65.89922119 273.52180542 65.89922119 273.52180542 64.5625 273.625 C49.67427223 274.9848927 32.77180714 277.97113812 22.39453125 289.8984375 C21.95496094 290.48882812 21.51539063 291.07921875 21.0625 291.6875 C20.63324219 292.25726563 20.20398438 292.82703125 19.76171875 293.4140625 C15.92661086 299.608223 16.1858622 306.65915175 17.0625 313.6875 C19.19051648 321.31213775 22.83335615 327.78517901 28.0625 333.6875 C28.67480469 334.39261719 29.28710938 335.09773438 29.91796875 335.82421875 C45.17535265 352.22662208 68.80236996 363.87868743 91.2265625 364.92578125 C104.20303683 365.24665197 116.23120955 364.03665894 126.0625 354.6875 C126.73925781 354.05070312 127.41601562 353.41390625 128.11328125 352.7578125 C137.52308546 343.08219461 141.97716118 330.7412302 142.375 317.4375 C142.25493261 310.55363628 140.90891944 304.29657216 139.0625 297.6875 C138.77246094 296.59179688 138.48242188 295.49609375 138.18359375 294.3671875 C132.24126725 273.33284348 118.52066555 258.72789809 100.0625 247.6875 C100.03744385 248.25670166 100.0123877 248.82590332 99.98657227 249.41235352 C99.86956106 252.02507313 99.7473172 254.63752362 99.625 257.25 C99.56602539 258.59288086 99.56602539 258.59288086 99.50585938 259.96289062 C99.26917217 264.9333219 98.86428328 269.77573519 98.0625 274.6875 C95.0925 274.0275 92.1225 273.3675 89.0625 272.6875 C89.12308594 271.95861572 89.18367187 271.22973145 89.24609375 270.47875977 C90.38875607 256.52839102 91.41796678 242.68894135 91.0625 228.6875 C84.37588807 226.76196207 77.89994594 226.11679223 70.97167969 225.63574219 C69.76702309 225.54610451 68.56236649 225.45646683 67.32120514 225.36411285 C64.68713553 225.16861792 62.05301385 224.9755339 59.41849518 224.78635406 C52.86896004 224.31539899 46.3211744 223.8208957 39.77320814 223.32869291 C37.42180129 223.152091 35.07033888 222.97624099 32.71887589 222.80038834 C15.13675072 221.48196244 -2.4356939 220.04669861 -20.00799751 218.60411644 C-22.61116006 218.3904785 -25.21435045 218.17718303 -27.81755066 217.96400452 C-37.44514732 217.17556204 -47.07259904 216.38536757 -56.6999507 215.5939393 C-68.38897032 214.63308963 -80.07818882 213.67466414 -91.76741409 212.71632004 C-93.51171113 212.573311 -95.25600816 212.43030181 -97.00030518 212.28729248 C-97.85215936 212.21745549 -98.70401354 212.1476185 -99.58168149 212.07566524 C-104.55991848 211.66748248 -109.53811463 211.25880637 -114.51627207 210.84965467 C-117.59027992 210.59704112 -120.66430847 210.34468019 -123.73834038 210.09235954 C-125.145545 209.9767911 -126.55274025 209.86110839 -127.9599247 209.74529457 C-132.28551315 209.3893131 -136.6113608 209.03672382 -140.9375 208.6875 C-142.12636055 208.59128105 -143.3152211 208.4950621 -144.54010773 208.39592743 C-145.6788308 208.30569557 -146.81755386 208.21546371 -147.99078369 208.12249756 C-148.98984867 208.04293697 -149.98891365 207.96337639 -151.01825333 207.88140488 C-157.98168753 207.38455405 -157.98168753 207.38455405 -164.9375 207.6875 C-167.38170179 210.13170179 -167.27424182 211.02228784 -167.54418945 214.39810181 C-167.62819 215.39269409 -167.71219055 216.38728638 -167.79873657 217.41201782 C-167.88191132 218.50791229 -167.96508606 219.60380676 -168.05078125 220.73291016 C-168.14539642 221.88458679 -168.2400116 223.03626343 -168.3374939 224.22283936 C-168.65029693 228.05676898 -168.95013407 231.89160106 -169.25 235.7265625 C-169.46575044 238.40154766 -169.68222274 241.07646456 -169.8996582 243.75131226 C-170.41448301 250.10404208 -170.92004913 256.45747354 -171.42228031 262.81121004 C-171.98647453 269.9437392 -172.56029954 277.07548153 -173.13527107 284.20714879 C-173.9398632 294.1873266 -174.74045556 304.16780494 -175.53416443 314.14885521 C-176.6357442 327.99788579 -177.77224305 341.8436844 -178.9375 355.6875 C-181.9075 355.6875 -184.8775 355.6875 -187.9375 355.6875 C-187.14221239 340.59093908 -185.99538378 325.52043387 -184.8497467 310.44723129 C-184.68613063 308.2944828 -184.52293082 306.14170298 -184.35974121 303.98892212 C-182.7243432 282.44347503 -181.00160782 260.90612885 -179.1875 239.375 C-179.08095093 238.10062073 -178.97440186 236.82624146 -178.86462402 235.51324463 C-178.56412557 231.92911019 -178.2594588 228.34535862 -177.953125 224.76171875 C-177.86478394 223.706465 -177.77644287 222.65121124 -177.6854248 221.5639801 C-177.60135376 220.59371384 -177.51728271 219.62344757 -177.43066406 218.6237793 C-177.32337982 217.36684517 -177.32337982 217.36684517 -177.21392822 216.08451843 C-176.92515733 213.58047183 -176.46499332 211.15137141 -175.9375 208.6875 C-176.65292969 208.73390625 -177.36835938 208.7803125 -178.10546875 208.828125 C-191.25811443 209.30454684 -202.19909169 205.7170467 -211.9375 196.6875 C-216.62984458 190.77729499 -217.77630983 184.04228185 -216.9375 176.6875 C-214.721193 169.16334947 -209.00303259 163.20062265 -202.44140625 159.14453125 C-189.73801169 152.55114077 -173.92798842 151.07628872 -160.125 155.3125 C-151.03868508 159.00381544 -142.78937209 165.73576695 -138.5 174.6875 C-136.91924215 183.11820853 -138.20132892 189.58324338 -142.9375 196.6875 C-140.18771588 197.43761238 -137.57440212 197.88065643 -134.73461914 198.10473633 C-133.90281631 198.17199417 -133.07101349 198.23925201 -132.21400452 198.30854797 C-131.30935959 198.37817245 -130.40471466 198.44779694 -129.47265625 198.51953125 C-128.03381325 198.63417976 -128.03381325 198.63417976 -126.56590271 198.75114441 C-123.37752746 199.00416989 -120.18878154 199.25215135 -117 199.5 C-114.74738018 199.67753587 -112.49477627 199.85527378 -110.2421875 200.03320312 C-93.20140639 201.37441946 -76.15643225 202.65995182 -59.11071777 203.93667603 C-37.88101935 205.52713731 -16.65932459 207.20796482 4.56056213 208.92390442 C11.23247431 209.46241013 17.9050877 209.99135959 24.57823181 210.51437378 C29.22435557 210.87851988 33.87031199 211.24477773 38.51626587 211.61108398 C40.73751864 211.78562122 42.95885163 211.95914068 45.18026733 212.1315918 C48.25190807 212.37017945 51.32323994 212.6124304 54.39453125 212.85546875 C55.3035318 212.92509323 56.21253235 212.99471771 57.14907837 213.06645203 C61.18761514 213.38931162 65.10842859 213.75308647 69.0625 214.6875 C63.5325521 143.56259106 48.10420417 73.61672482 -2.9375 20.6875 C-3.66066406 19.91277344 -4.38382812 19.13804688 -5.12890625 18.33984375 C-11.47848092 11.70962489 -18.61143394 6.18254281 -25.9375 0.6875 C-26.50098145 0.2632373 -27.06446289 -0.16102539 -27.64501953 -0.59814453 C-42.10733603 -11.41002531 -57.53508416 -20.75676649 -73.9375 -28.3125 C-74.63858887 -28.63814941 -75.33967773 -28.96379883 -76.06201172 -29.29931641 C-97.40528249 -39.08582397 -119.66020676 -45.37381179 -142.9375 -48.3125 C-144.29633301 -48.48604004 -144.29633301 -48.48604004 -145.68261719 -48.66308594 C-209.24927132 -56.45572415 -275.35958329 -39.52432387 -326.13671875 -0.30078125 C-327.40571982 0.69266894 -328.67274035 1.68865565 -329.9375 2.6875 C-330.78175537 3.35386475 -330.78175537 3.35386475 -331.64306641 4.03369141 C-351.58013246 19.94862945 -367.81201141 38.85416299 -380.9375 60.6875 C-381.29763184 61.27756836 -381.65776367 61.86763672 -382.02880859 62.47558594 C-407.75732923 104.95202415 -417.40277589 154.51284296 -420.89916992 203.41772461 C-421.42954773 210.67705203 -422.20568111 217.59878371 -423.9375 224.6875 C-424.05527345 227.28197992 -424.066322 229.8304669 -424.0078125 232.42578125 C-425.58993073 236.27471594 -429.26610377 237.12904075 -432.9375 238.6875 C-434.45588597 239.37700464 -435.97279825 240.06976303 -437.48828125 240.765625 C-438.65145874 241.29349609 -438.65145874 241.29349609 -439.83813477 241.83203125 C-448.23428425 245.68037267 -455.81199924 249.72652283 -462.9375 255.6875 C-463.79601562 256.38488281 -464.65453125 257.08226562 -465.5390625 257.80078125 C-480.00519941 270.10355327 -489.1037761 287.29566963 -491.6875 306.125 C-491.79741946 307.64414324 -491.87701061 309.16558689 -491.9375 310.6875 C-492.00066406 311.81800781 -492.06382812 312.94851563 -492.12890625 314.11328125 C-492.54652793 327.30204347 -489.45245181 337.85886865 -481.9375 348.6875 C-481.195 349.76 -480.4525 350.8325 -479.6875 351.9375 C-470.58564462 361.03935538 -458.63345646 364.7728947 -446 364.9375 C-424.55911773 364.72791171 -404.3172648 356.35206055 -387.9375 342.6875 C-386.96554687 341.91792969 -385.99359375 341.14835937 -384.9921875 340.35546875 C-376.53144238 333.27884552 -368.22257284 321.91891251 -366.50390625 310.91015625 C-366.10203768 302.22735956 -368.57109308 294.87832593 -374.4375 288.4375 C-389.93499981 274.25528615 -412.1660159 273.5444193 -431.9375 271.6875 C-431.9375 270.0375 -431.9375 268.3875 -431.9375 266.6875 C-416.20092319 259.47490229 -399.5535614 259.09048114 -383.25 264.875 C-368.44688455 270.99243205 -359.14344299 281.04226511 -352.9375 295.6875 C-348.51147587 307.38918022 -351.26590479 318.46268034 -356.22265625 329.56640625 C-364.44392866 345.66544387 -378.03809693 358.33431567 -393.9375 366.6875 C-396.31640625 367.40234375 -396.31640625 367.40234375 -397.9375 367.6875 C-397.9375 368.3475 -397.9375 369.0075 -397.9375 369.6875 C-398.5975 369.6875 -399.2575 369.6875 -399.9375 369.6875 C-396.52659199 413.58050047 -383.24956348 454.30010463 -357.12182617 490.03442383 C-356.05882824 491.51815069 -355.08528284 493.06500618 -354.125 494.6171875 C-350.94347904 497.62826984 -347.8914841 497.21477081 -343.75 497.125 C-331.33932767 497.34520099 -319.86686083 500.48866899 -307.9375 503.6875 C-306.7201416 504.00702637 -305.5027832 504.32655273 -304.24853516 504.65576172 C-259.36542962 516.45311116 -259.36542962 516.45311116 -251.2109375 529.33203125 C-249.99068785 531.58911878 -249.1237277 533.75817834 -248.3125 536.1875 C-247.85875 537.3425 -247.405 538.4975 -246.9375 539.6875 C-244.12214391 540.7930386 -241.3269579 540.83432566 -238.32543945 540.89282227 C-237.40987778 540.91275742 -236.4943161 540.93269257 -235.55101013 540.95323181 C-234.5609346 540.96995438 -233.57085907 540.98667694 -232.55078125 541.00390625 C-230.99648155 541.03521385 -230.99648155 541.03521385 -229.41078186 541.06715393 C-226.02393114 541.13347004 -222.63700837 541.19233338 -219.25 541.25 C-218.08938049 541.27084656 -216.92876099 541.29169312 -215.73297119 541.31317139 C-196.79903123 541.65197172 -177.87429144 541.91126751 -158.9375 541.6875 C-157.49948029 541.67106445 -157.49948029 541.67106445 -156.03240967 541.65429688 C-149.39142626 541.57596607 -142.7509112 541.48025622 -136.1104126 541.36810303 C-133.88678392 541.33130978 -131.66310745 541.297291 -129.43939209 541.26617432 C-126.32001775 541.22088576 -123.20112547 541.16293767 -120.08203125 541.1015625 C-118.67805336 541.08422058 -118.67805336 541.08422058 -117.24571228 541.06652832 C-112.47230391 540.95823584 -108.36452699 540.69165699 -103.9375 538.6875 C-102.61509599 536.59612392 -102.61509599 536.59612392 -102 534.0625 C-98.87075427 525.23446531 -93.41932161 520.23181062 -85.1328125 516.0546875 C-78.89509515 513.38573753 -72.45213303 511.53517828 -65.9375 509.6875 C-64.5662041 509.28454146 -63.19510997 508.88089565 -61.82421875 508.4765625 C-49.503213 504.90023259 -37.00644406 502.08430615 -24.49267578 499.27246094 C-22.91313977 498.91085495 -21.33874177 498.52464479 -19.77514648 498.09936523 C-17.9375 497.6875 -17.9375 497.6875 -15.08984375 497.86328125 C-9.70629717 498.09222916 -6.24382912 497.85737413 -2.1328125 494.17578125 C0.31185356 491.22505805 2.44738186 488.06717016 4.56884766 484.87939453 C6.15797426 482.5473941 7.83323614 480.30352263 9.54296875 478.05859375 C16.28473584 469.19314284 22.5344524 460.21482136 28.01806641 450.51904297 C29.08656881 448.64529237 30.18674375 446.79309946 31.29296875 444.94140625 C38.47637442 432.75587853 43.86807664 419.82313604 49.0625 406.6875 C56.79539895 406.55403033 64.41817419 407.08111498 72.125 407.6875 C73.37216797 407.78289062 74.61933594 407.87828125 75.90429688 407.9765625 C78.95727852 408.21050745 82.00998455 408.4475615 85.0625 408.6875 C84.31641654 434.69726485 78.56400914 463.2083046 67.0625 486.6875 C66.63710938 487.56535156 66.21171875 488.44320312 65.7734375 489.34765625 C60.13155186 500.30047893 52.62198963 510.29761629 44.36328125 519.40625 C42.57103756 522.5494041 43.1310227 524.26002526 44.0625 527.6875 C44.55543313 528.99006941 45.07541942 530.2828003 45.625 531.5625 C48.30670152 539.39519255 48.61992788 549.94147217 45.5 557.6875 C40.67222635 566.54688813 34.52725904 571.53258032 25.0625 574.6875 C17.4199691 575.28672157 10.76926471 575.3726894 3.9296875 571.66015625 C1.88766666 570.59642573 0.35905973 569.93827376 -1.9375 569.6875 C-4.2242152 570.61390296 -4.2242152 570.61390296 -6.4375 572.0625 C-13.82214994 576.58939157 -21.47430229 576.34254626 -29.9375 575.6875 C-34.47450212 574.38857538 -38.03431303 572.28962464 -41.9375 569.6875 C-45.53369977 570.05830292 -48.46545106 571.30686747 -51.75 572.75 C-61.04376519 576.19120495 -72.4211124 576.08180696 -81.765625 572.7265625 C-85.98396499 570.70843582 -90.505782 568.13193262 -92.9235239 564.00401974 C-95.14809881 560.56180523 -96.86809268 558.9230226 -100.93948174 558.02635384 C-104.87968799 557.76661377 -108.79057533 557.72888901 -112.73608398 557.76586914 C-114.25270944 557.75473894 -115.76931563 557.74064945 -117.28588867 557.72383118 C-121.39575233 557.68770312 -125.50441317 557.69588762 -129.61435199 557.7142899 C-133.04879297 557.72547364 -136.48301633 557.71454659 -139.91744667 557.70351785 C-148.02142419 557.6776688 -156.12482175 557.68722147 -164.22875977 557.7199707 C-172.58167467 557.75321309 -180.93316947 557.73209984 -189.28597587 557.68326861 C-196.46502903 557.64292419 -203.64364623 557.63377421 -210.8227945 557.65009969 C-215.10728682 557.65969316 -219.39100148 557.6581662 -223.67541313 557.62770271 C-227.70540216 557.60062448 -231.73343865 557.61272233 -235.76328278 557.65458488 C-237.23904387 557.66353838 -238.71496062 557.65897422 -240.19062233 557.63964844 C-248.20724801 557.33535282 -248.20724801 557.33535282 -255.28343391 560.4563427 C-257.16017882 562.53980536 -257.16017882 562.53980536 -258.57553196 564.75093746 C-260.84436611 567.97695972 -263.6349559 568.9909835 -267.1875 570.625 C-267.79851562 570.91439453 -268.40953125 571.20378906 -269.0390625 571.50195312 C-277.5558724 575.49072108 -287.1424672 576.16995025 -296.296875 573.828125 C-298.88819603 572.86163229 -301.40274706 571.79091518 -303.9375 570.6875 C-305.98312338 569.89126017 -305.98312338 569.89126017 -307.9375 569.6875 C-309.97085209 570.96939588 -311.96831154 572.30906808 -313.9375 573.6875 C-318.5197656 575.56926613 -322.77897026 576.0730724 -327.6875 576.0625 C-328.38979736 576.06233887 -329.09209473 576.06217773 -329.81567383 576.06201172 C-335.84832873 575.93037 -340.56121546 574.41042415 -345.9375 571.6875 C-348.41686978 570.39225026 -348.41686978 570.39225026 -350.9375 569.6875 C-354.25163738 571.28100289 -354.25163738 571.28100289 -356.19140625 572.64453125 C-362.22601587 576.24909673 -371.19856273 575.59124865 -377.765625 574.00390625 C-386.42734536 570.80225808 -391.64528231 566.00847392 -395.9921875 557.93359375 C-399.66676654 549.20267247 -398.34032113 538.60166973 -395.9375 529.6875 C-395.2775 528.6975 -394.6175 527.7075 -393.9375 526.6875 C-394.17715249 522.33146349 -395.81508568 520.35258214 -398.8125 517.3125 C-430.12114065 483.71419724 -437.73946497 436.83153449 -440.34277344 392.40893555 C-440.40883789 391.28269775 -440.47490234 390.15645996 -440.54296875 388.99609375 C-440.59606201 387.99376709 -440.64915527 386.99144043 -440.70385742 385.95874023 C-440.69253865 383.72211582 -440.69253865 383.72211582 -441.9375 382.6875 C-443.65865925 382.57317946 -445.38063944 382.46600587 -447.10424805 382.39794922 C-464.89158474 381.68961291 -479.49095821 376.25747095 -492.27734375 363.57421875 C-507.8693855 346.65422043 -509.86434707 326.82516616 -509.12402344 304.87548828 C-508.11942154 287.7052113 -499.81785608 270.78012811 -488.9375 257.6875 C-487.81408203 256.32044922 -487.81408203 256.32044922 -486.66796875 254.92578125 C-474.87097015 241.26108336 -460.11812646 232.07787678 -443.4375 225.4375 C-441.705 224.57125 -441.705 224.57125 -439.9375 223.6875 C-438.79584293 220.03443831 -438.72985358 216.27983206 -438.54296875 212.47265625 C-438.4769043 211.24466309 -438.41083984 210.01666992 -438.34277344 208.75146484 C-438.30792847 208.10054871 -438.2730835 207.44963257 -438.23718262 206.7789917 C-434.19436376 133.65851985 -413.48948917 62.39375111 -361.9375 8.6875 C-361.20877686 7.91792969 -361.20877686 7.91792969 -360.46533203 7.1328125 C-352.88147674 -0.85392719 -344.76299405 -7.73683369 -335.9375 -14.3125 C-335.38368652 -14.73241211 -334.82987305 -15.15232422 -334.25927734 -15.58496094 C-251.447369 -78.22567815 -138.26970413 -81.73994253 0 0 Z " fill="#060518" transform="translate(508.9375,67.3125)"/>
<path d="M0 0 C1.27117676 -0.00950684 2.54235352 -0.01901367 3.85205078 -0.02880859 C5.66165283 -0.02228271 5.66165283 -0.02228271 7.5078125 -0.015625 C9.13033936 -0.01224121 9.13033936 -0.01224121 10.78564453 -0.00878906 C14.91894226 0.33744893 18.442631 0.97857815 21.60668945 3.78710938 C22.06261475 4.38330078 22.51854004 4.97949219 22.98828125 5.59375 C23.5095459 6.25826172 24.03081055 6.92277344 24.56787109 7.60742188 C25.10234863 8.31447266 25.63682617 9.02152344 26.1875 9.75 C27.32998722 11.20993522 28.47452156 12.66827075 29.62109375 14.125 C30.45229736 15.18847656 30.45229736 15.18847656 31.30029297 16.2734375 C33.94819717 19.59707044 36.8012373 22.72057327 39.6796875 25.84375 C41.52585779 27.86731032 43.31764383 29.92146289 45.10546875 31.99609375 C48.9957376 36.45235207 53.11963695 40.64228068 57.3125 44.8125 C58.38081055 45.88661133 58.38081055 45.88661133 59.47070312 46.98242188 C64.10746038 51.61075632 68.8824899 56.00873778 73.875 60.25 C74.76819946 61.01123169 74.76819946 61.01123169 75.67944336 61.7878418 C96.45966185 79.33017903 119.03949521 93.9736258 143.26098633 106.27978516 C144.19322021 106.75464355 145.1254541 107.22950195 146.0859375 107.71875 C146.91399902 108.13576172 147.74206055 108.55277344 148.59521484 108.98242188 C150.85673701 110.23984564 152.84581013 111.64901988 154.875 113.25 C153.555 113.25 152.235 113.25 150.875 113.25 C151.78370296 123.59464964 151.78370296 123.59464964 156.875 132.25 C160.48151284 134.77401305 163.2492959 135.69791035 167.61279297 136.11572266 C168.74411652 136.22919037 169.87544006 136.34265808 171.04104614 136.45956421 C172.26242279 136.56829865 173.48379944 136.67703308 174.7421875 136.7890625 C176.02680878 136.91221832 177.31143005 137.03537415 178.63497925 137.16226196 C191.70577988 138.40122399 204.79931888 139.3797867 217.89395142 140.32717896 C225.09294375 140.84810443 232.29064309 141.38651576 239.48828125 141.92578125 C240.21898771 141.98043737 240.94969418 142.0350935 241.70254326 142.09140587 C256.87320547 143.2283298 272.03075892 144.50287902 287.1875 145.8125 C309.41609603 147.7306043 331.65247361 149.49163356 353.9032135 151.13261414 C356.87216442 151.35236757 359.84087911 151.57510814 362.80957031 151.79833984 C367.14141632 152.12394543 371.47420042 152.43287673 375.80761719 152.73681641 C378.08791384 152.9036544 380.36818793 153.07080104 382.6484375 153.23828125 C383.71333405 153.30991989 384.77823059 153.38155853 385.87539673 153.45536804 C387.35899185 153.56701042 387.35899185 153.56701042 388.87255859 153.6809082 C390.17947159 153.77357719 390.17947159 153.77357719 391.51278687 153.86811829 C393.97639363 154.26639157 395.71912157 155.01777146 397.875 156.25 C386.54918542 188.12530392 368.95040317 214.96731858 347.875 241.25 C346.89466797 242.66539062 346.89466797 242.66539062 345.89453125 244.109375 C343.875 246.25 343.875 246.25 341.484375 246.74609375 C340.54078125 246.72675781 339.5971875 246.70742188 338.625 246.6875 C328.75440989 247.07479894 319.45713953 249.967908 309.9453125 252.46240234 C306.14813984 253.43645443 302.33470783 254.3252078 298.51464844 255.2043457 C270.93116093 260.60723542 270.93116093 260.60723542 249.875 277.25 C248.62718428 280.09582488 247.45780523 282.94515341 246.37890625 285.859375 C244.28043326 289.19512947 242.69415589 289.30442968 238.875 290.25 C235.49463899 290.56912213 232.12431584 290.62214174 228.73046875 290.6640625 C227.74167221 290.68351929 226.75287567 290.70297607 225.7341156 290.72302246 C222.51033037 290.7835332 219.28653476 290.82988574 216.0625 290.875 C213.81363289 290.91221085 211.5647722 290.94981145 209.31591797 290.98779297 C202.83579244 291.09253751 196.35554226 291.17593199 189.875 291.25 C189.056828 291.25966797 188.23865601 291.26933594 187.39569092 291.27929688 C177.22097002 291.39503568 167.04947835 291.36670768 156.875 291.25 C155.88262329 291.23904297 154.89024658 291.22808594 153.86779785 291.21679688 C146.95638414 291.13824927 140.04541442 291.04253437 133.13446045 290.93060303 C130.80869852 290.89375423 128.48288977 290.85974345 126.15704346 290.82867432 C122.89090918 290.78343961 119.62524029 290.72546971 116.359375 290.6640625 C115.37446075 290.65250122 114.38954651 290.64093994 113.37478638 290.62902832 C104.580797 290.43826052 104.580797 290.43826052 100.875 288.25 C99.3984375 285.53515625 99.3984375 285.53515625 98.25 282.3125 C96.86958343 278.5001415 95.85193578 275.99463154 92.875 273.25 C92.875 272.59 92.875 271.93 92.875 271.25 C92.29878906 270.96640625 91.72257813 270.6828125 91.12890625 270.390625 C89.72560509 269.6804622 88.33450254 268.94493395 86.96484375 268.171875 C73.25097095 260.70515659 57.30967766 257.48645946 42.3125 253.5 C41.57475342 253.30345825 40.83700684 253.1069165 40.0769043 252.90441895 C24.58055787 248.58380627 24.58055787 248.58380627 8.64672852 247.23095703 C-1.43094295 247.31102817 -1.43094295 247.31102817 -5.70703125 244.6328125 C-7.88799408 241.97892509 -9.45969578 239.25795575 -11.125 236.25 C-12.05197329 234.81216901 -12.99042125 233.38169938 -13.9375 231.95703125 C-30.31807304 207.14135686 -43.35259999 179.38326586 -48.3125 149.875 C-48.47685547 148.94300781 -48.64121094 148.01101563 -48.81054688 147.05078125 C-49.26435849 144.45284753 -49.69929167 141.85266802 -50.125 139.25 C-50.32609375 138.02925781 -50.5271875 136.80851563 -50.734375 135.55078125 C-51.16161796 131.9405782 -51.222111 128.44665466 -51.1875 124.8125 C-51.17847656 123.57628906 -51.16945313 122.34007812 -51.16015625 121.06640625 C-51.14855469 120.13699219 -51.13695313 119.20757812 -51.125 118.25 C-50.465 118.25 -49.805 118.25 -49.125 118.25 C-49.125 117.59 -49.125 116.93 -49.125 116.25 C-48.24199219 115.77691406 -47.35898438 115.30382812 -46.44921875 114.81640625 C-27.16331217 104.27816126 -11.85522658 89.80829541 -4.625 68.625 C-1.50452848 57.06666156 -2.80262844 47.94850445 -8.125 37.25 C-15.91117401 23.71868788 -27.63200311 15.85259515 -42.62890625 11.7734375 C-50.37325614 10.14942672 -58.2432349 10.09612606 -66.125 10.25 C-62.6959194 8.28329039 -59.38211371 7.56269841 -55.515625 6.8125 C-54.87686432 6.68735016 -54.23810364 6.56220032 -53.57998657 6.43325806 C-51.51303659 6.03121801 -49.44439013 5.63927467 -47.375 5.25 C-46.6671637 5.11615906 -45.95932739 4.98231812 -45.2300415 4.84442139 C-29.97607541 1.96967042 -15.54608724 0.097056 0 0 Z " fill="#7FB8B9" transform="translate(160.125,318.75)"/>
<path d="M0 0 C0.92087402 0.1129541 1.84174805 0.2259082 2.79052734 0.34228516 C54.42364601 6.95919022 101.60205149 32.38041547 139 68 C139.82886719 68.76441406 140.65773438 69.52882813 141.51171875 70.31640625 C149.33584128 77.76255185 155.66594203 86.2919363 162 95 C162.65718018 95.89017822 162.65718018 95.89017822 163.32763672 96.79833984 C177.44224058 116.08624555 187.54646977 138.38995038 195 161 C195.47276367 162.4226416 195.47276367 162.4226416 195.95507812 163.87402344 C203.99249674 188.51483603 208.39584407 214.25413173 211 240 C211.07057617 240.69270996 211.14115234 241.38541992 211.21386719 242.09912109 C211.93109569 249.40991848 212.10835477 256.65854773 212 264 C197.01335955 263.41658558 182.12006623 262.32061726 167.1875 260.9375 C165.11527169 260.74893843 163.04300614 260.56078562 160.97070312 260.37304688 C155.98002935 259.92004863 150.9898837 259.46161637 146 259 C146.40375854 257.39801758 146.40375854 257.39801758 146.81567383 255.76367188 C147.17534116 254.33204336 147.53495757 252.90040204 147.89453125 251.46875 C148.0711731 250.7684668 148.24781494 250.06818359 148.42980957 249.34667969 C157.11045985 214.74394946 157.38473229 179.5154555 139 148 C124.54184988 125.34127857 103.38267395 109.48834362 77.1875 103.1875 C50.64653228 98.41177261 24.22408842 103.62865435 2 119 C-1.46175511 121.53036532 -4.7590735 124.19293946 -8 127 C-8.71671875 127.62003906 -9.4334375 128.24007812 -10.171875 128.87890625 C-16.22210152 134.52063207 -20.78607836 141.08032654 -25.30786133 147.96826172 C-29.19740344 153.66634769 -29.19740344 153.66634769 -33.08203125 155.28125 C-36.95937408 154.90753021 -38.28898959 153.77323032 -41 151 C-42.43880405 149.04539827 -43.81002232 147.03996537 -45.125 145 C-59.69994092 123.30635109 -81.24403205 108.32570833 -107 103 C-132.51680519 99.06200802 -158.00065983 102.17660142 -179.25195312 117.57080078 C-200.82878096 134.07798285 -214.735753 155.70356205 -221 182 C-221.36931641 183.52560547 -221.36931641 183.52560547 -221.74609375 185.08203125 C-225.80831629 206.00948115 -223.29672772 228.00668804 -217.25 248.1875 C-216.92708984 249.26894287 -216.60417969 250.35038574 -216.27148438 251.46459961 C-213.88871091 259.05303909 -210.74916933 265.99037549 -207 273 C-208.8080103 274.8080103 -211.59684458 274.60290315 -214.04516602 274.93969727 C-215.98837486 275.20986412 -215.98837486 275.20986412 -217.97084045 275.48548889 C-219.39849527 275.67937694 -220.82618479 275.8730096 -222.25390625 276.06640625 C-223.71307797 276.26654301 -225.17221964 276.466899 -226.6313324 276.66746521 C-229.69858503 277.08803111 -232.76625304 277.50539557 -235.83422852 277.9206543 C-239.7499988 278.45099597 -243.66452776 278.98993668 -247.57876682 279.53144932 C-250.5972933 279.94791725 -253.61649364 280.35932495 -256.63590813 280.76930046 C-258.07809726 280.96580728 -259.52006478 281.16394807 -260.9617939 281.36380196 C-267.99163598 282.33587191 -274.88780041 283.28171071 -282 283 C-282.14579058 278.40759678 -282.17444892 274.7125171 -281.07421875 270.21875 C-279.58185512 263.82281171 -279.31059939 257.29800537 -278.85412598 250.76611328 C-274.13560026 184.82428434 -255.72281501 119.7212378 -209 71 C-208.49597656 70.46874512 -207.99195313 69.93749023 -207.47265625 69.39013672 C-199.56265606 61.08808851 -191.20599609 53.82628456 -182 47 C-181.43700195 46.5762207 -180.87400391 46.15244141 -180.29394531 45.71582031 C-129.05544607 7.24998794 -63.21233362 -8.01028499 0 0 Z " fill="#00F6F6" transform="translate(366,18)"/>
<path d="M0 0 C7.68887904 -0.14757149 15.25776247 0.31212957 22.91796875 0.94628906 C24.17535355 1.04715317 25.43273834 1.14801727 26.72822571 1.25193787 C30.16299522 1.52755504 33.59734795 1.80808001 37.03164673 2.08949375 C40.68752782 2.38817591 44.34378411 2.68219526 48 2.97674561 C54.97043213 3.53898538 61.94053009 4.10526157 68.91051292 4.67304111 C76.64469447 5.30290763 84.37920441 5.92868849 92.11376274 6.55390871 C104.10956526 7.52362423 116.10520988 8.49527452 128.10073578 9.46840537 C142.69017893 10.65186618 157.27986209 11.8322867 171.87037659 13.00247955 C173.90288945 13.16556338 175.93538179 13.32890335 177.96784973 13.49254608 C195.91279757 14.93690725 213.86464321 16.309405 231.8263464 17.53023434 C234.75320808 17.74634505 237.19919355 18.06639785 240 19 C239.76299241 23.34234485 239.51446756 27.68383259 239.25537109 32.02490234 C239.16888725 33.5009581 239.08552204 34.9772001 239.00537109 36.45361328 C238.88943978 38.57902074 238.76221138 40.70350013 238.6328125 42.828125 C238.55949707 44.1059082 238.48618164 45.38369141 238.41064453 46.70019531 C238.04047719 49.6747386 237.55778705 51.48314832 236 54 C235.67 52.02 235.34 50.04 235 48 C234.11248047 47.81824219 234.11248047 47.81824219 233.20703125 47.6328125 C232.41683594 47.46523438 231.62664062 47.29765625 230.8125 47.125 C230.03519531 46.96257812 229.25789062 46.80015625 228.45703125 46.6328125 C226 46 226 46 223.71875 44.95703125 C212.24505216 40.91815773 197.73364402 44.05106941 187 49 C178.6131322 53.28526092 171.77360063 58.4993986 166 66 C164.68364976 67.35010281 163.36026098 68.69414946 162 70 C161.67 67.69 161.34 65.38 161 63 C159.64455078 63.54140625 159.64455078 63.54140625 158.26171875 64.09375 C157.08222656 64.5578125 155.90273438 65.021875 154.6875 65.5 C152.92986328 66.19609375 152.92986328 66.19609375 151.13671875 66.90625 C148 68 148 68 145 68 C144.34 77.9 143.68 87.8 143 98 C145.97 98.99 145.97 98.99 149 100 C150.64772298 100.83141985 152.2755591 101.70410978 153.875 102.625 C154.65617188 103.07101562 155.43734375 103.51703125 156.2421875 103.9765625 C156.82226562 104.31429687 157.40234375 104.65203125 158 105 C158.33 103.68 158.66 102.36 159 101 C160.79552182 103.69328272 161.93773506 106.09804051 163.1875 109.0625 C165.82657275 114.91938951 169.06646184 119.93433006 173 125 C173.57234375 125.73863281 174.1446875 126.47726562 174.734375 127.23828125 C185.54776307 140.24669468 200.51292574 149.57805265 216 156 C215.34 156.33 214.68 156.66 214 157 C214 158.98 214 160.96 214 163 C213.67 163 213.34 163 213 163 C213 161.02 213 159.04 213 157 C211.69732178 157.01442139 210.39464355 157.02884277 209.05249023 157.04370117 C204.38741309 157.04159828 199.80269801 156.73145606 195.16015625 156.30078125 C193.39119974 156.14447372 191.62223787 155.98822699 189.85327148 155.83203125 C188.91522675 155.74775879 187.97718201 155.66348633 187.01071167 155.57666016 C166.71107081 153.75780965 146.39663574 152.17194364 126.07249069 150.65900421 C104.57030328 149.05762095 83.07999495 147.3735362 61.60327148 145.45581055 C51.49944666 144.55539937 41.39351524 143.69919021 31.28125 142.8984375 C29.55225464 142.76149223 29.55225464 142.76149223 27.78833008 142.6217804 C22.1795401 142.17883702 16.570429 141.74036054 10.9609375 141.30639648 C8.94270625 141.14830131 6.92447698 140.99018088 4.90625 140.83203125 C3.53152527 140.72760208 3.53152527 140.72760208 2.12902832 140.62106323 C1.27498413 140.55380035 0.42093994 140.48653748 -0.45898438 140.41723633 C-1.19515991 140.36046219 -1.93133545 140.30368805 -2.68981934 140.24519348 C-5.48306481 139.9487294 -8.23348121 139.48270475 -11 139 C-10.37445378 123.35233961 -9.26440458 107.77318044 -7.96875 92.16796875 C-7.77052911 89.75094221 -7.57257702 87.33389362 -7.37487793 84.91682434 C-6.9635543 79.89708294 -6.54987309 74.87754377 -6.13427734 69.8581543 C-5.60274109 63.4376184 -5.07592195 57.0167063 -4.55068207 50.59565258 C-4.14371832 45.62409576 -3.73495369 40.65268837 -3.32557678 35.68132973 C-3.13062138 33.31276034 -2.93606653 30.94415796 -2.7419281 28.57552147 C-2.47095666 25.27440463 -2.19772014 21.97348306 -1.92382812 18.67260742 C-1.8448378 17.70578033 -1.76584747 16.73895325 -1.6844635 15.74282837 C-1.24461003 10.47433518 -0.69545079 5.24105097 0 0 Z " fill="#4F4D4D" transform="translate(351,285)"/>
<path d="M0 0 C0.67289063 0.09651855 1.34578125 0.19303711 2.0390625 0.29248047 C24.97180979 3.77008084 48.87570728 13.62405151 64.17578125 31.5 C72.0998044 42.35947498 73.96684056 52.84256102 73 66 C71.35805718 72.7246448 66.56026961 77.17084648 61 81 C41.32784015 92.22752538 16.94722177 95.06561524 -5.2890625 95.23828125 C-6.33868668 95.2480751 -7.38831085 95.25786896 -8.46974182 95.26795959 C-105.20007772 95.98406469 -105.20007772 95.98406469 -135.8125 67.8125 C-143.53182754 59.55170883 -146.88519759 51.36727505 -146.63867188 40.15405273 C-146.25907855 33.87164153 -144.75279402 29.12468806 -141 24 C-140.08734375 22.74123047 -140.08734375 22.74123047 -139.15625 21.45703125 C-128.018691 7.72209375 -111.02408224 2.2035316 -93.94921875 0.40234375 C-92.19598011 0.24001606 -90.44201914 0.08534646 -88.6875 -0.0625 C-87.72803467 -0.14483887 -86.76856934 -0.22717773 -85.7800293 -0.31201172 C-57.57093957 -2.64984553 -28.10601883 -4.11166347 0 0 Z " fill="#FAFCFC" transform="translate(384,472)"/>
<path d="M0 0 C6.46744992 4.48311869 13.25418397 10.70200203 14.75 18.6796875 C15.34128086 26.01157022 13.83412393 31.5535016 9.75 37.6796875 C12.49978412 38.42979988 15.11309788 38.87284393 17.95288086 39.09692383 C19.2005851 39.19781059 19.2005851 39.19781059 20.47349548 39.30073547 C21.37814041 39.37035995 22.28278534 39.43998444 23.21484375 39.51171875 C24.17407242 39.58815109 25.13330109 39.66458344 26.12159729 39.74333191 C29.30997254 39.99635739 32.49871846 40.24433885 35.6875 40.4921875 C37.94011982 40.66972337 40.19272373 40.84746128 42.4453125 41.02539062 C59.48912896 42.36684586 76.53722258 43.65125115 93.58584595 44.92987061 C109.51828542 46.1253226 125.44844788 47.34554009 141.375 48.6171875 C142.37612823 48.69707916 143.37725647 48.77697083 144.40872192 48.85928345 C157.05308139 49.87118223 169.69357191 50.92476641 182.33203125 52.0078125 C183.66603472 52.12192728 185.00003944 52.23602743 186.33404541 52.35011292 C192.77146179 52.90104383 199.2085079 53.45592281 205.64501953 54.01733398 C216.65553431 54.96955052 227.6517351 55.89486405 238.69566345 56.35417175 C252.00119994 56.93088744 252.00119994 56.93088744 254.75 59.6796875 C254.9453125 62.5 254.9453125 62.5 254.875 65.8046875 C254.85695313 66.90039062 254.83890625 67.99609375 254.8203125 69.125 C254.78550781 70.38957031 254.78550781 70.38957031 254.75 71.6796875 C255.59304688 71.91816406 256.43609375 72.15664063 257.3046875 72.40234375 C279.0432749 80.46188806 295.64027576 101.35743158 305.09375 121.7421875 C313.49457907 140.97666492 314.52259373 163.63813962 307.4609375 183.4765625 C303.59635593 193.10701712 298.35797166 200.64231371 290.75 207.6796875 C290.27433594 208.14890625 289.79867188 208.618125 289.30859375 209.1015625 C275.5791814 221.93773597 258.52601246 223.17478607 240.75 223.6796875 C240.42 224.9996875 240.09 226.3196875 239.75 227.6796875 C229.02593013 228.13175602 218.39847375 226.78704967 207.75 225.6796875 C208.08 222.3796875 208.41 219.0796875 208.75 215.6796875 C207.22632813 214.86177734 207.22632813 214.86177734 205.671875 214.02734375 C182.28237166 201.29121995 164.26252642 185.5221382 153.75 160.6796875 C153.42 161.6696875 153.09 162.6596875 152.75 163.6796875 C147.27067211 162.13423604 142.63570819 159.52425538 137.75 156.6796875 C137.43421053 131.31126645 137.43421053 131.31126645 139.75 126.6796875 C142.05802334 125.71679534 144.32550702 124.85996558 146.6875 124.0546875 C147.33396484 123.82523438 147.98042969 123.59578125 148.64648438 123.359375 C153.46058873 121.6796875 153.46058873 121.6796875 155.75 121.6796875 C156.41 123.6596875 157.07 125.6396875 157.75 127.6796875 C158.17410156 127.09960938 158.59820313 126.51953125 159.03515625 125.921875 C168.82566507 112.88220831 181.61440941 104.73062474 197.75 101.6796875 C208.4356403 100.30059663 220.38037328 100.81461977 229.75 106.6796875 C230.62109375 109.35546875 230.62109375 109.35546875 230.75 111.6796875 C227.89667069 113.27602047 225.65960378 113.96883422 222.40625 114.20703125 C221.57818848 114.27494873 220.75012695 114.34286621 219.89697266 114.4128418 C219.02347168 114.48027588 218.1499707 114.54770996 217.25 114.6171875 C202.36177223 115.9770802 185.45930714 118.96332562 175.08203125 130.890625 C174.64246094 131.48101562 174.20289063 132.07140625 173.75 132.6796875 C173.32074219 133.24945313 172.89148438 133.81921875 172.44921875 134.40625 C168.61411086 140.6004105 168.8733622 147.65133925 169.75 154.6796875 C171.87801648 162.30432525 175.52085615 168.77736651 180.75 174.6796875 C181.36230469 175.38480469 181.97460938 176.08992187 182.60546875 176.81640625 C197.86285265 193.21880958 221.48986996 204.87087493 243.9140625 205.91796875 C256.89053683 206.23883947 268.91870955 205.02884644 278.75 195.6796875 C279.42675781 195.04289063 280.10351562 194.40609375 280.80078125 193.75 C290.21058546 184.07438211 294.66466118 171.7334177 295.0625 158.4296875 C294.94243261 151.54582378 293.59641944 145.28875966 291.75 138.6796875 C291.45996094 137.58398438 291.16992188 136.48828125 290.87109375 135.359375 C284.92876725 114.32503098 271.20816555 99.72008559 252.75 88.6796875 C252.72494385 89.24888916 252.6998877 89.81809082 252.67407227 90.40454102 C252.55706106 93.01726063 252.4348172 95.62971112 252.3125 98.2421875 C252.25352539 99.58506836 252.25352539 99.58506836 252.19335938 100.95507812 C251.95667217 105.9255094 251.55178328 110.76792269 250.75 115.6796875 C247.78 115.0196875 244.81 114.3596875 241.75 113.6796875 C241.81058594 112.95080322 241.87117188 112.22191895 241.93359375 111.47094727 C243.07625607 97.52057852 244.10546678 83.68112885 243.75 69.6796875 C237.06338807 67.75414957 230.58744594 67.10897973 223.65917969 66.62792969 C222.45452309 66.53829201 221.24986649 66.44865433 220.00870514 66.35630035 C217.37463553 66.16080542 214.74051385 65.9677214 212.10599518 65.77854156 C205.55646004 65.30758649 199.0086744 64.8130832 192.46070814 64.32088041 C190.10930129 64.1442785 187.75783888 63.96842849 185.40637589 63.79257584 C167.82425072 62.47414994 150.2518061 61.03888611 132.67950249 59.59630394 C130.07633994 59.382666 127.47314955 59.16937053 124.86994934 58.95619202 C115.24235268 58.16774954 105.61490096 57.37755507 95.9875493 56.5861268 C84.29852968 55.62527713 72.60931118 54.66685164 60.92008591 53.70850754 C59.17578887 53.5654985 57.43149184 53.42248931 55.68719482 53.27947998 C54.83534064 53.20964299 53.98348646 53.139806 53.10581851 53.06785274 C48.12758152 52.65966998 43.14938537 52.25099387 38.17122793 51.84184217 C35.09722008 51.58922862 32.02319153 51.33686769 28.94915962 51.08454704 C27.541955 50.9689786 26.13475975 50.85329589 24.7275753 50.73748207 C20.40198685 50.3815006 16.0761392 50.02891132 11.75 49.6796875 C10.56113945 49.58346855 9.3722789 49.4872496 8.14739227 49.38811493 C6.43930767 49.25276714 6.43930767 49.25276714 4.69671631 49.11468506 C3.69765133 49.03512447 2.69858635 48.95556389 1.66924667 48.87359238 C-5.29418753 48.37674155 -5.29418753 48.37674155 -12.25 48.6796875 C-14.69420179 51.12388929 -14.58674182 52.01447534 -14.85668945 55.39028931 C-14.98269028 56.88217773 -14.98269028 56.88217773 -15.11123657 58.40420532 C-15.19441132 59.50009979 -15.27758606 60.59599426 -15.36328125 61.72509766 C-15.45789642 62.87677429 -15.5525116 64.02845093 -15.6499939 65.21502686 C-15.96279693 69.04895648 -16.26263407 72.88378856 -16.5625 76.71875 C-16.77825044 79.39373516 -16.99472274 82.06865206 -17.2121582 84.74349976 C-17.72698301 91.09622958 -18.23254913 97.44966104 -18.73478031 103.80339754 C-19.29897453 110.9359267 -19.87279954 118.06766903 -20.44777107 125.19933629 C-21.2523632 135.1795141 -22.05295556 145.15999244 -22.84666443 155.14104271 C-23.9482442 168.99007329 -25.08474305 182.8358719 -26.25 196.6796875 C-29.22 196.6796875 -32.19 196.6796875 -35.25 196.6796875 C-34.45471239 181.58312658 -33.30788378 166.51262137 -32.1622467 151.43941879 C-31.99863063 149.2866703 -31.83543082 147.13389048 -31.67224121 144.98110962 C-30.0368432 123.43566253 -28.31410782 101.89831635 -26.5 80.3671875 C-26.39345093 79.09280823 -26.28690186 77.81842896 -26.17712402 76.50543213 C-25.87662557 72.92129769 -25.5719588 69.33754612 -25.265625 65.75390625 C-25.17728394 64.6986525 -25.08894287 63.64339874 -24.9979248 62.5561676 C-24.91385376 61.58590134 -24.82978271 60.61563507 -24.74316406 59.6159668 C-24.67164124 58.77801071 -24.60011841 57.94005463 -24.52642822 57.07670593 C-24.23765733 54.57265933 -23.77749332 52.14355891 -23.25 49.6796875 C-23.96542969 49.72609375 -24.68085938 49.7725 -25.41796875 49.8203125 C-38.57061443 50.29673434 -49.51159169 46.7092342 -59.25 37.6796875 C-63.94234458 31.76948249 -65.08880983 25.03446935 -64.25 17.6796875 C-62.033693 10.15553697 -56.31553259 4.19281015 -49.75390625 0.13671875 C-34.82363999 -7.61247576 -14.81016627 -8.69068785 0 0 Z " fill="#505050" transform="translate(356.25,226.3203125)"/>
<path d="M0 0 C0.99322266 -0.020625 1.98644531 -0.04125 3.00976562 -0.0625 C8.88784864 -0.09374562 13.22202104 0.19176651 18.3125 3.25 C20.38671875 5.73828125 20.38671875 5.73828125 22 8.5625 C22.54011719 9.48675781 23.08023438 10.41101563 23.63671875 11.36328125 C24.46623047 12.79220703 24.46623047 12.79220703 25.3125 14.25 C26.6390434 16.25451001 27.97156273 18.25509023 29.3125 20.25 C27.97964966 20.2185791 27.97964966 20.2185791 26.61987305 20.18652344 C6.76978368 19.78306115 -12.11113458 20.49703366 -31.6875 24.25 C-33.28489014 24.54680664 -33.28489014 24.54680664 -34.91455078 24.84960938 C-47.44355066 27.20200856 -59.63419625 30.08452003 -71.6875 34.25 C-72.0175 35.9 -72.3475 37.55 -72.6875 39.25 C-71.3778125 39.23582031 -70.068125 39.22164063 -68.71875 39.20703125 C-49.35320201 39.22594292 -29.05250936 42.60734067 -14.3125 56 C-9.04874253 61.61538499 -6.59537179 67.85003412 -6 75.5 C-6.6248526 89.36391697 -17.52380329 101.46515264 -27.125 110.55859375 C-45.38930373 125.96910003 -69.76371726 135.15867338 -93.6875 133.25 C-105.41689237 131.45511078 -116.26272138 126.41804786 -123.53515625 116.80859375 C-127.67716552 110.62635911 -130.54227725 104.36614215 -132.6875 97.25 C-132.8834375 96.63382812 -133.079375 96.01765625 -133.28125 95.3828125 C-134.8674723 87.05514542 -133.85703381 77.58292838 -132.6875 69.25 C-132.0275 69.25 -131.3675 69.25 -130.6875 69.25 C-130.33558594 68.34378906 -129.98367187 67.43757813 -129.62109375 66.50390625 C-126.49478399 58.79016546 -123.26289854 52.52663423 -117.6875 46.25 C-117.03136719 45.46367187 -116.37523438 44.67734375 -115.69921875 43.8671875 C-106.04378778 32.60545998 -94.96968421 23.83810907 -81.6875 17.25 C-80.8929541 16.85014893 -80.0984082 16.45029785 -79.27978516 16.03833008 C-72.14757799 12.60706553 -64.99698394 10.51500534 -57.3125 8.6875 C-56.09385254 8.39085449 -54.87520508 8.09420898 -53.61962891 7.78857422 C-35.79016694 3.51389243 -18.37815153 0.09653658 0 0 Z " fill="#00F6F6" transform="translate(149.6875,299.75)"/>
<path d="M0 0 C7.69194754 6.07773175 13.54568183 13.22040901 18.34521484 21.79541016 C18.73322266 22.45412109 19.12123047 23.11283203 19.52099609 23.79150391 C20.28271484 25.48291016 20.28271484 25.48291016 20.34521484 28.79541016 C18.34592449 32.11862736 15.9814446 34.95985571 13.34521484 37.79541016 C11.34521484 34.79541016 11.34521484 34.79541016 11.34521484 30.79541016 C10.44158203 31.15634766 9.53794922 31.51728516 8.60693359 31.88916016 C7.42744141 32.35322266 6.24794922 32.81728516 5.03271484 33.29541016 C3.86095703 33.75947266 2.68919922 34.22353516 1.48193359 34.70166016 C-1.65478516 35.79541016 -1.65478516 35.79541016 -4.65478516 35.79541016 C-5.31478516 45.69541016 -5.97478516 55.59541016 -6.65478516 65.79541016 C-4.67478516 66.45541016 -2.69478516 67.11541016 -0.65478516 67.79541016 C0.99293783 68.62683001 2.62077394 69.49951994 4.22021484 70.42041016 C5.39197266 71.08943359 5.39197266 71.08943359 6.58740234 71.77197266 C7.16748047 72.10970703 7.74755859 72.44744141 8.34521484 72.79541016 C8.84021484 70.81541016 8.84021484 70.81541016 9.34521484 68.79541016 C14.54592849 76.59648063 14.54592849 76.59648063 14.16943359 80.72119141 C9.98717624 91.24620872 -2.81103837 99.31420163 -12.71728516 103.67041016 C-27.06459269 109.14746714 -43.17042401 109.95124003 -57.58789062 103.99707031 C-73.56399494 96.68838882 -85.07927165 85.29440926 -91.65478516 68.79541016 C-96.86716235 52.94894616 -95.95577334 36.79215102 -89.02978516 21.67041016 C-85.76591505 15.49726323 -81.60022638 10.68305824 -76.65478516 5.79541016 C-75.95482422 5.07353516 -75.25486328 4.35166016 -74.53369141 3.60791016 C-54.65133467 -15.65426298 -21.89523001 -15.938487 0 0 Z " fill="#A7F7FB" transform="translate(500.65478515625,317.20458984375)"/>
<path d="M0 0 C15.76659937 5.45766901 27.7334518 20.92518821 35.375 35.125 C37.5714339 39.88559656 38.76253436 44.92372967 40 50 C40.28101563 51.03511719 40.56203125 52.07023437 40.8515625 53.13671875 C45.00653049 69.23236579 43.34080613 83.40576196 35.078125 97.8828125 C28.12337648 108.31493528 19.30633647 114.70544322 7.14160156 117.60302734 C-13.60645716 121.44893973 -35.69686724 114.54700157 -52.9375 103.125 C-59.07613401 98.90523857 -64.72291738 94.26775916 -70 89 C-70.72960937 88.28199219 -71.45921875 87.56398438 -72.2109375 86.82421875 C-80.87627789 77.75621384 -84.42813655 67.73312114 -84.3515625 55.328125 C-84 52 -84 52 -81.75 48.875 C-80.38875 47.946875 -80.38875 47.946875 -79 47 C-78.42636719 46.37351562 -77.85273437 45.74703125 -77.26171875 45.1015625 C-61.8165254 30.75007023 -34.35104675 31.29589034 -14.92382812 31.88818359 C-8.93528978 32.11720418 -2.96838456 32.44846611 3 33 C3 32.01 3 31.02 3 30 C0.55503957 28.28288757 0.55503957 28.28288757 -2 27 C-1.86095156 23.24971611 -1.71258389 19.49985719 -1.5625 15.75 C-1.52318359 14.68652344 -1.48386719 13.62304688 -1.44335938 12.52734375 C-1.40146484 11.50253906 -1.35957031 10.47773438 -1.31640625 9.421875 C-1.27974854 8.47924805 -1.24309082 7.53662109 -1.20532227 6.56542969 C-1.02060772 4.25748623 -0.64138388 2.21859476 0 0 Z " fill="#00F6F6" transform="translate(609,315)"/>
<path d="M0 0 C0.64661591 0.05149704 1.29323181 0.10299408 1.95944214 0.15605164 C3.40350011 0.27212028 4.84719663 0.39274791 6.29055786 0.5171814 C8.75925578 0.72857376 11.22880169 0.92504161 13.69897461 1.1184082 C18.50377778 1.49593001 23.30766205 1.88408003 28.11141968 2.2746582 C46.07534014 3.73419962 64.04265372 5.13566296 82.0161438 6.4720459 C107.57527819 8.37366149 133.11268891 10.4819462 158.64453125 12.71875 C159.52842529 12.79607361 160.41231934 12.87339722 161.32299805 12.95306396 C171.7642565 13.86658996 182.2048513 14.7873447 192.64453125 15.71875 C192.64453125 19.01875 192.64453125 22.31875 192.64453125 25.71875 C194.64 25.80962891 194.64 25.80962891 196.67578125 25.90234375 C205.31326595 26.30083621 213.9505055 26.70521572 222.58203125 27.21875 C223.80792969 27.2909375 225.03382813 27.363125 226.296875 27.4375 C229.45846464 27.7031178 232.52514896 28.14726011 235.64453125 28.71875 C235.61844878 35.81318295 234.82461036 40.58091439 230.3125 46.16015625 C225.88215159 50.29999001 221.50965175 50.02322974 215.734375 49.953125 C214.84975082 49.94698181 213.96512665 49.94083862 213.05369568 49.93450928 C204.02515284 49.81070198 195.07188829 49.08204879 186.08630371 48.23855591 C180.95772905 47.75797626 175.8263675 47.30865891 170.6953125 46.85546875 C169.62461517 46.76023422 168.55391785 46.66499969 167.45077515 46.56687927 C155.60731384 45.52184844 143.75182977 44.65204587 131.89453125 43.78125 C112.0186145 42.31411015 92.16088648 40.68146782 72.30499268 38.96566772 C57.62775339 37.69982449 42.94838695 36.49337176 28.2578125 35.39453125 C27.52689959 35.33976938 26.79598667 35.28500751 26.04292488 35.2285862 C18.91325078 34.69488739 11.78323266 34.16637717 4.65225315 33.65040302 C-3.68697761 33.04597222 -12.02240797 32.40299503 -20.35546875 31.71875 C-21.02159683 31.66473526 -21.68772491 31.61072052 -22.3740387 31.55506897 C-27.06096861 31.17302794 -31.74336929 30.75429143 -36.42578125 30.3203125 C-37.63877899 30.21995697 -38.85177673 30.11960144 -40.10153198 30.01620483 C-46.28366243 29.41204848 -50.65358882 28.91948912 -55.35546875 24.71875 C-59.18659875 19.7486354 -60.50892106 16.15350684 -60.41796875 9.96875 C-60.40894531 9.16953125 -60.39992188 8.3703125 -60.390625 7.546875 C-60.37902344 6.94359375 -60.36742187 6.3403125 -60.35546875 5.71875 C-55.60546875 4.59375 -55.60546875 4.59375 -53.35546875 5.71875 C-49.37089808 6.244967 -45.37028882 6.55618007 -41.36376953 6.8684082 C-39.38924245 7.02851148 -37.41717815 7.21810818 -35.4453125 7.40820312 C-26.58463189 8.09776779 -20.05232058 7.39033968 -12.51293945 2.53125 C-8.1453592 -0.13195098 -5.10547291 -0.4308477 0 0 Z " fill="#E6E7E7" transform="translate(371.35546875,426.28125)"/>
<path d="M0 0 C10.57843349 7.65824436 18.05033388 19.22517873 20.625 32.0625 C20.8478192 33.78747108 21.03834624 35.51710451 21.1875 37.25 C21.26871094 37.96027344 21.34992188 38.67054688 21.43359375 39.40234375 C22.19020524 51.71447618 16.89281279 65.34011062 9.15234375 74.71484375 C0.09207488 84.31840917 -11.47759555 90.53724797 -24.7578125 91.453125 C-39.94128557 91.67695998 -52.41801017 87.21336946 -63.48828125 76.69921875 C-73.70508441 65.93294046 -78.22001895 53.63021682 -77.953125 38.83984375 C-77.27200126 26.29581493 -71.78037538 14.24957668 -63.02734375 5.2109375 C-44.87698662 -10.85869086 -20.43226973 -12.41893474 0 0 Z " fill="#060519" transform="translate(259.8125,173.75)"/>
<path d="M0 0 C10.34610684 8.57248852 16.13110013 19.80192833 18 33 C19.01963117 48.09838462 15.31883115 59.79256033 6.8125 72.1875 C-3.67149817 82.67149817 -16.21017266 89.02571688 -31.125 89.25 C-45.53440935 89.08607043 -56.46610848 83.90454994 -66.9609375 74.20703125 C-76.88608287 63.46429728 -80.50698461 49.82695245 -80.24609375 35.5546875 C-79.28777412 21.71229289 -73.69121665 10.69492375 -63.63671875 1.2265625 C-45.17227537 -14.36563413 -19.29786969 -14.08222923 0 0 Z " fill="#060619" transform="translate(463,176)"/>
<path d="M0 0 C13.97331601 1.58543393 28.42325042 16.11112013 36.96875 26.53515625 C52.40460244 46.25263884 60.19922548 68.94531748 57.79785156 94.11914062 C55.71889262 110.60959989 49.28880189 124.63285825 37 136 C36.52433594 136.46921875 36.04867187 136.9384375 35.55859375 137.421875 C21.8291814 150.25804847 4.77601246 151.49509857 -13 152 C-13.33 153.32 -13.66 154.64 -14 156 C-24.72406987 156.45206852 -35.35152625 155.10736217 -46 154 C-45.67 150.7 -45.34 147.4 -45 144 C-46.01578125 143.45472656 -47.0315625 142.90945313 -48.078125 142.34765625 C-71.46762834 129.61153245 -89.48747358 113.8424507 -100 89 C-100.33 89.99 -100.66 90.98 -101 92 C-106.47932789 90.45454854 -111.11429181 87.84456788 -116 85 C-116.31578947 59.63157895 -116.31578947 59.63157895 -114 55 C-111.69197666 54.03710784 -109.42449298 53.18027808 -107.0625 52.375 C-106.41603516 52.14554687 -105.76957031 51.91609375 -105.10351562 51.6796875 C-100.28941127 50 -100.28941127 50 -98 50 C-97.34 51.98 -96.68 53.96 -96 56 C-95.57589844 55.41992188 -95.15179687 54.83984375 -94.71484375 54.2421875 C-84.92433493 41.20252081 -72.13559059 33.05093724 -56 30 C-45.3143597 28.62090913 -33.36962672 29.13493227 -24 35 C-23.12890625 37.67578125 -23.12890625 37.67578125 -23 40 C-25.85332931 41.59633297 -28.09039622 42.28914672 -31.34375 42.52734375 C-32.17181152 42.59526123 -32.99987305 42.66317871 -33.85302734 42.7331543 C-34.72652832 42.80058838 -35.6000293 42.86802246 -36.5 42.9375 C-51.38822777 44.2973927 -68.29069286 47.28363812 -78.66796875 59.2109375 C-79.10753906 59.80132812 -79.54710937 60.39171875 -80 61 C-80.42925781 61.56976563 -80.85851562 62.13953125 -81.30078125 62.7265625 C-85.13588914 68.920723 -84.8766378 75.97165175 -84 83 C-81.87198352 90.62463775 -78.22914385 97.09767901 -73 103 C-72.38769531 103.70511719 -71.77539062 104.41023438 -71.14453125 105.13671875 C-55.88714735 121.53912208 -32.26013004 133.19118743 -9.8359375 134.23828125 C3.14053683 134.55915197 15.16870955 133.34915894 25 124 C25.67675781 123.36320312 26.35351562 122.72640625 27.05078125 122.0703125 C36.46058546 112.39469461 40.91466118 100.0537302 41.3125 86.75 C41.19243261 79.86613628 39.84641944 73.60907216 38 67 C37.70996094 65.90429688 37.41992188 64.80859375 37.12109375 63.6796875 C32.48302404 47.26208508 22.19796746 30.83398946 6.953125 22.29296875 C3.69678783 20.39619367 1.37309481 18.942817 -1 16 C-2.06345543 10.68949646 -0.98762067 5.25031893 0 0 Z " fill="#050519" transform="translate(610,298)"/>
<path d="M0 0 C0.92087402 0.1129541 1.84174805 0.2259082 2.79052734 0.34228516 C54.42364601 6.95919022 101.60205149 32.38041547 139 68 C139.82886719 68.76441406 140.65773438 69.52882813 141.51171875 70.31640625 C151.70174118 80.01415707 159.86370715 91.65361746 167.75 103.25 C168.16830078 103.85739014 168.58660156 104.46478027 169.01757812 105.09057617 C171.18879259 108.35887849 172.55795612 111.08054427 173 115 C169.93570224 116.53214888 167.3834358 116.22938548 164 116 C159.94363546 114.03826364 157.87149498 111.83125025 155.375 108.125 C143.06788998 90.68041363 127.90685715 74.84840446 110.67089844 62.2265625 C109.01828746 61.01342434 107.38775631 59.77461088 105.7578125 58.53125 C76.07433589 36.23889296 40.36544004 22.47115686 4 16 C3.11602539 15.83773926 2.23205078 15.67547852 1.32128906 15.50830078 C-34.48464344 9.13271302 -72.64910888 13.37228477 -107 25 C-107.72106934 25.23912109 -108.44213867 25.47824219 -109.18505859 25.72460938 C-136.40770849 34.85949038 -162.02257514 48.46078103 -184 67 C-184.59925293 67.49918945 -185.19850586 67.99837891 -185.81591797 68.51269531 C-196.67859055 77.57202225 -206.121434 86.95307135 -215 98 C-216.74069233 100.13277571 -218.49331639 102.25538701 -220.25 104.375 C-221.03890625 105.33148438 -221.8278125 106.28796875 -222.640625 107.2734375 C-229.10338532 114.74199164 -229.10338532 114.74199164 -232.45703125 115.70703125 C-233.62298828 115.75923828 -233.62298828 115.75923828 -234.8125 115.8125 C-235.99779297 115.88404297 -235.99779297 115.88404297 -237.20703125 115.95703125 C-237.79871094 115.97121094 -238.39039063 115.98539062 -239 116 C-239.734375 114.4296875 -239.734375 114.4296875 -240 112 C-238.85328071 109.54360657 -237.6852144 107.40361495 -236.25 105.125 C-235.84313965 104.46588623 -235.4362793 103.80677246 -235.01708984 103.12768555 C-227.61936358 91.40132376 -218.57240562 80.98636483 -209 71 C-208.49742676 70.47019531 -207.99485352 69.94039063 -207.47705078 69.39453125 C-199.5655107 61.09098902 -191.20772174 53.82756414 -182 47 C-181.43700195 46.5762207 -180.87400391 46.15244141 -180.29394531 45.71582031 C-129.05544607 7.24998794 -63.21233362 -8.01028499 0 0 Z " fill="#F7FAFB" transform="translate(366,18)"/>
<path d="M0 0 C0.98385429 0.02755119 1.96770859 0.05510239 2.98137665 0.08348846 C8.39948622 0.36424776 13.80217549 0.74574635 19.20904541 1.19293213 C20.47139511 1.29379623 21.73374481 1.39466034 23.03434753 1.49858093 C26.47715371 1.77379848 29.91949841 2.05443427 33.36177921 2.33613682 C37.02438568 2.63496142 40.68738768 2.9288619 44.3503418 3.22338867 C50.53736803 3.72155448 56.72412507 4.22295363 62.91070557 4.72662354 C71.45658338 5.42236256 80.00294156 6.11204522 88.54940403 6.80055928 C116.41276659 9.04618559 144.2727785 11.32356551 172.12354469 13.7211647 C188.89410134 15.16346222 205.67157562 16.44539961 222.46417236 17.60650635 C225.77901719 17.83714131 229.09314831 18.07642431 232.4072876 18.31695557 C233.37786606 18.3815799 234.34844452 18.44620422 235.34843445 18.51278687 C249.43492969 19.55162891 249.43492969 19.55162891 252.12994385 22.24664307 C252.26418936 24.59437853 252.31986167 26.89732643 252.31744385 29.24664307 C252.31736328 29.97762207 252.31728271 30.70860107 252.31719971 31.46173096 C252.24812541 38.5574793 251.75147972 45.61216157 251.19244385 52.68414307 C251.10567383 53.79209229 251.01890381 54.9000415 250.92950439 56.04156494 C250.2602573 63.98601617 250.2602573 63.98601617 249.12994385 66.24664307 C249.79381104 66.35621338 250.45767822 66.46578369 251.1416626 66.57867432 C256.03873863 67.4580033 260.03155812 68.2411602 264.12994385 71.24664307 C263.79994385 72.56664307 263.46994385 73.88664307 263.12994385 75.24664307 C261.95818604 75.13836182 261.95818604 75.13836182 260.76275635 75.02789307 C235.69298216 73.01784436 211.11814305 72.62197375 188.0869751 83.85601807 C185.12994385 85.24664307 185.12994385 85.24664307 183.12994385 85.24664307 C182.86181885 85.86539307 182.59369385 86.48414307 182.31744385 87.12164307 C181.12994385 89.24664307 181.12994385 89.24664307 178.12994385 91.24664307 C179.31446569 84.58370771 184.95452491 79.84375954 190.25494385 76.05914307 C202.98166884 68.14268871 216.68875888 66.3809052 231.3526001 65.49273682 C234.81990075 65.20375384 234.81990075 65.20375384 238.12994385 64.24664307 C239.2058324 61.0189774 239.4147275 58.32764376 239.62994385 54.93414307 C239.71244385 53.69406494 239.79494385 52.45398682 239.87994385 51.17633057 C239.96244385 49.87953369 240.04494385 48.58273682 240.12994385 47.24664307 C240.29298057 44.68390955 240.45948229 42.12139342 240.62994385 39.55914307 C240.70213135 38.42090088 240.77431885 37.28265869 240.84869385 36.10992432 C241.12994385 33.24664307 241.12994385 33.24664307 242.12994385 30.24664307 C240.56880859 30.14174561 240.56880859 30.14174561 238.97613525 30.034729 C218.31705756 28.64133216 197.66695985 27.16357229 177.02838135 25.49273682 C174.90493744 25.32173102 172.78148327 25.1508527 170.65802002 24.98008728 C166.00968863 24.60619258 161.36140075 24.23176256 156.71313477 23.85705566 C148.61482572 23.20467922 140.51620743 22.55619185 132.4175415 21.90826416 C129.48196393 21.67339294 126.54638649 21.43852017 123.61080933 21.2036438 C122.87353918 21.14465617 122.13626903 21.08566854 121.37665737 21.0248934 C111.57073248 20.24025702 101.76494142 19.45395082 91.9591465 18.66769218 C84.19629839 18.04526934 76.43341955 17.42323439 68.67047119 16.80206299 C61.74519702 16.24791926 54.81997876 15.69308286 47.89482689 15.13741273 C44.27353194 14.84686471 40.65221166 14.556642 37.03082275 14.26726723 C33.03643248 13.94807473 29.04216827 13.62733009 25.0479126 13.30645752 C23.88136642 13.21347885 22.71482025 13.12050018 21.51292419 13.02470398 C15.04372913 12.50355313 8.58487175 11.92250707 2.12994385 11.24664307 C2.05259254 13.12845276 2.05259254 13.12845276 1.97367859 15.04827881 C1.40082335 28.32172029 0.46511732 41.53991055 -0.6473999 54.77789307 C-0.82082365 56.87231145 -0.99395864 58.96675375 -1.16682434 61.06121826 C-1.52685347 65.41439362 -1.88924012 69.76736333 -2.25360107 74.12017822 C-2.71527227 79.6359234 -3.17262721 85.15201517 -3.62839413 90.66825104 C-3.98503954 94.98235497 -4.34316161 99.29633528 -4.70178413 103.61027527 C-4.87063617 105.64155547 -5.03924912 107.67285556 -5.20759392 109.70417786 C-6.33027796 123.22835421 -7.55425973 136.73987435 -8.87005615 150.24664307 C-13.16005615 150.24664307 -17.45005615 150.24664307 -21.87005615 150.24664307 C-20.88005615 149.91664307 -19.89005615 149.58664307 -18.87005615 149.24664307 C-18.88052192 148.59835069 -18.89098768 147.95005831 -18.90177059 147.2821207 C-18.96675903 140.03633855 -18.56392145 132.90060255 -17.96795654 125.6819458 C-17.87202713 124.47720612 -17.77609772 123.27246643 -17.67726135 122.03121948 C-17.41592818 118.76037463 -17.15073821 115.48987171 -16.88369679 112.21948886 C-16.60350693 108.77713057 -16.32819892 105.33438157 -16.05229187 101.89167786 C-15.58860005 96.11433663 -15.12170173 90.3372622 -14.65252686 84.56036377 C-13.99310243 76.4408152 -13.33987732 68.32077634 -12.68770611 60.20064247 C-12.23306069 54.54299625 -11.77685098 48.885476 -11.32040095 43.22797513 C-11.21046309 41.86514481 -11.10057627 40.50231037 -10.99074101 39.13947177 C-10.62916842 34.65350812 -10.26578988 30.16769362 -9.90155029 25.6819458 C-9.81163818 24.56633774 -9.72172607 23.45072968 -9.62908936 22.30131531 C-9.46126318 20.24143007 -9.28865333 18.18192667 -9.11033821 16.1229229 C-8.95000086 14.20361569 -8.80966834 12.28253349 -8.68926811 10.36030769 C-8.6245286 9.46819525 -8.55978909 8.5760828 -8.49308777 7.65693665 C-8.44438758 6.87582551 -8.39568739 6.09471437 -8.34551144 5.2899332 C-7.24199713 0.54753162 -4.50086939 -0.13617954 0 0 Z " fill="#A7F7FB" transform="translate(348.87005615234375,273.75335693359375)"/>
<path d="M0 0 C0.66 0.33 1.32 0.66 2 1 C2.38709768 3.90937703 2.65862924 6.76416965 2.875 9.6875 C6.59876871 50.89301613 21.73764854 91.8022235 47.8203125 124.265625 C49 126 49 126 49 129 C48.43079834 128.99887207 47.86159668 128.99774414 47.27514648 128.99658203 C44.66143604 129.00879191 42.05056958 129.06656658 39.4375 129.125 C38.54224609 129.12242187 37.64699219 129.11984375 36.72460938 129.1171875 C30.84811397 129.28939249 27.61682797 130.3130625 23.35961914 134.42529297 C21.79961964 136.16633845 21.79961964 136.16633845 20 139 C14.55241479 138.32491199 12.65680159 136.11012393 9.23828125 132.015625 C-16.1949654 97.74954051 -22.36007394 51.36957306 -25 10 C-23.84242187 9.56945312 -22.68484375 9.13890625 -21.4921875 8.6953125 C-17.3481334 7.14106391 -13.23253485 5.52298273 -9.125 3.875 C-8.46242188 3.61074219 -7.79984375 3.34648437 -7.1171875 3.07421875 C-3.51519727 1.63532218 -3.51519727 1.63532218 0 0 Z " fill="#000000" transform="translate(107,437)"/>
<path d="M0 0 C2.99512044 2.65723879 4.97805337 5.55967291 7 9 C7.58007812 9.98484375 8.16015625 10.9696875 8.7578125 11.984375 C12.86814561 19.82268464 14.68828769 27.18338649 13 36 C10.81230658 40.19137525 8.4838328 42.50538907 4 44 C-0.66507623 44.3823833 -3.04127641 44.47936179 -7.25 42.375 C-11.31305559 38.86599744 -13.60000767 35.16914587 -15.4375 30.1875 C-16.65017404 26.768909 -16.65017404 26.768909 -19.6875 26.0625 C-20.450625 26.041875 -21.21375 26.02125 -22 26 C-24.11195468 29.11764738 -25.31638041 31.96935433 -26.3125 35.5625 C-27.44718678 39.17068388 -27.93359922 39.94466602 -31 42.5 C-35.59295104 44.79647552 -38.87304981 45.34758984 -44 45 C-49.15719651 43.14340926 -51.84440748 40.43488678 -55 36 C-55.50529948 34.73932935 -55.98519955 33.46814139 -56.4375 32.1875 C-56.953125 31.135625 -57.46875 30.08375 -58 29 C-61.08369887 27.94250443 -61.08369887 27.94250443 -64 28 C-66.07241014 30.46715492 -67.16557239 32.44152636 -68.3125 35.5 C-70.28311232 39.58719592 -72.05943255 40.86552596 -76 43 C-81.95465471 44.9848849 -88.64553901 45.01898824 -94.375 42.3125 C-98.90892543 39.69248572 -102.10382568 36.34426148 -105 32 C-105.6975699 27.66857757 -105.57466113 24.07748961 -103.5 20.1875 C-96.20525238 13.80459583 -86.29801543 11.75814619 -77.1875 9.125 C-76.4419989 8.907229 -75.6964978 8.68945801 -74.92840576 8.46508789 C-15.73242268 -8.7853286 -15.73242268 -8.7853286 0 0 Z " fill="#FCBC40" transform="translate(527,582)"/>
<path d="M0 0 C1.08337646 0.22260498 2.16675293 0.44520996 3.28295898 0.67456055 C20.71713303 4.32884715 38.01838147 8.53815528 55 13.9375 C56.45418335 14.38089722 56.45418335 14.38089722 57.93774414 14.83325195 C64.31990644 16.94899482 69.29499405 19.81116199 73.75 24.9375 C75.11407659 28.51008155 75.34810384 30.40412595 73.953125 33.98046875 C70.52640641 40.23540371 65.43283269 43.7098891 58.75 45.9375 C52.59613468 46.54393907 46.8750551 46.52120473 41.3984375 43.4140625 C38.79114706 41.07862225 37.76433425 38.32042785 36.63671875 35.05859375 C35.65957072 32.72118678 34.73449023 31.49954924 32.75 29.9375 C29.71283646 29.37231066 29.71283646 29.37231066 26.75 30.9375 C25.49973099 33.39370224 24.64114994 35.88426196 23.7421875 38.48828125 C22.04782177 42.67082974 19.21147502 44.16830262 15.375 46.1875 C10.78748328 47.49821906 7.11663521 47.42948868 2.625 45.8125 C-4.02236202 41.4772639 -5.64234681 37.35743782 -7.25 29.9375 C-7.91 29.2775 -8.57 28.6175 -9.25 27.9375 C-11.80780314 27.88945976 -11.80780314 27.88945976 -14.25 28.9375 C-15.47287227 31.03385785 -15.47287227 31.03385785 -16.125 33.625 C-17.98649702 38.92836702 -20.50011014 41.95091032 -25.25 44.9375 C-28.86930698 46.14393566 -31.44231005 46.26018559 -35.25 45.9375 C-40.12506134 43.49996933 -42.52327454 41.11767638 -44.25 35.9375 C-46.36115187 25.6945039 -40.78875056 15.39520189 -35.35546875 7.015625 C-26.08291412 -4.54201947 -13.10360152 -2.72701903 0 0 Z " fill="#FCBC40" transform="translate(171.25,580.0625)"/>
<path d="M0 0 C5.83218418 0.04703374 11.47165941 1.10429502 17.1875 2.1875 C17.33534146 8.76687719 17.01751634 15.06162774 16 21.5625 C15.8669043 22.41900146 15.73380859 23.27550293 15.59667969 24.15795898 C10.96417355 52.53594544 1.7129658 82.87775818 -19.8125 103.1875 C-23.01725334 101.77092871 -25.13588707 99.99951141 -27.68359375 97.62109375 C-33.63686288 92.91485087 -39.53844997 93.18369413 -46.875 93.25 C-48.12216797 93.23388672 -49.36933594 93.21777344 -50.65429688 93.20117188 C-53.7081644 93.16606995 -56.75863521 93.16228255 -59.8125 93.1875 C-56.79162083 89.11457335 -53.74152188 85.07136793 -50.5859375 81.1015625 C-42.41579794 70.81151251 -34.86731202 60.27142785 -27.8125 49.1875 C-27.40161133 48.54748047 -26.99072266 47.90746094 -26.56738281 47.24804688 C-17.85742754 33.59072211 -10.80062929 19.0545832 -5.6875 3.6796875 C-4.32153846 -0.21086369 -4.44915802 0.21881105 0 0 Z " fill="#000000" transform="translate(561.8125,473.8125)"/>
<path d="M0 0 C6.46744992 4.48311869 13.25418397 10.70200203 14.75 18.6796875 C15.29979947 25.49720095 14.40376106 31.30851467 10.08740234 36.79174805 C6.9570976 39.32012141 5.27347409 39.03150288 1.3046875 38.74609375 C-0.55736328 38.6387793 -0.55736328 38.6387793 -2.45703125 38.52929688 C-3.74996094 38.43455078 -5.04289062 38.33980469 -6.375 38.2421875 C-8.93917741 38.06302545 -11.50431458 37.89695627 -14.0703125 37.74609375 C-15.20742676 37.66302979 -16.34454102 37.57996582 -17.51611328 37.49438477 C-18.86938721 37.58610962 -18.86938721 37.58610962 -20.25 37.6796875 C-22.27350324 40.71494236 -22.57124018 41.87394952 -22.875 45.3671875 C-22.94976562 46.17542969 -23.02453125 46.98367188 -23.1015625 47.81640625 C-23.15054688 48.43128906 -23.19953125 49.04617188 -23.25 49.6796875 C-36.1883275 50.51893036 -46.69874238 47.81855263 -56.99609375 39.76953125 C-61.55801137 35.53967695 -63.78096647 30.77027497 -64.48828125 24.6015625 C-64.76561941 16.48577216 -62.08265986 11.39176313 -56.625 5.4921875 C-42.31688095 -8.06988437 -16.79325788 -9.85437702 0 0 Z " fill="#08061A" transform="translate(356.25,226.3203125)"/>
<path d="M0 0 C3.34198604 0.33113704 6.68907939 0.583427 10.03730774 0.84248352 C12.92533376 1.06658828 15.81255046 1.29936345 18.69970703 1.53439331 C37.68549029 3.07806663 56.67419325 4.56863872 75.67019653 5.98104858 C101.22933093 7.88266418 126.76674165 9.99094888 152.29858398 12.22775269 C153.18247803 12.30507629 154.06637207 12.3823999 154.97705078 12.46206665 C165.41830924 13.37559265 175.85890403 14.29634738 186.29858398 15.22775269 C186.29858398 18.52775269 186.29858398 21.82775269 186.29858398 25.22775269 C146.14471031 22.32197602 146.14471031 22.32197602 130.73608398 21.10275269 C129.28890991 20.98987915 129.28890991 20.98987915 127.8125 20.87472534 C122.61851143 20.45755633 117.46397728 19.91486451 112.29858398 19.22775269 C112.38108398 20.27962769 112.46358398 21.33150269 112.54858398 22.41525269 C112.26128049 26.79663093 111.35012818 28.17620849 108.29858398 31.22775269 C105.90575981 32.42416477 104.61228318 32.29228334 101.95092773 32.17697144 C101.04729492 32.13910522 100.14366211 32.10123901 99.21264648 32.06222534 C98.23038086 32.01372437 97.24811523 31.96522339 96.23608398 31.91525269 C94.71821289 31.84250122 94.71821289 31.84250122 93.16967773 31.76828003 C85.37446277 31.37302633 77.58415384 30.90609768 69.79858398 30.35275269 C68.75565186 30.28660767 67.71271973 30.22046265 66.63818359 30.15231323 C60.9020683 29.7133749 56.39473022 28.95263088 51.29858398 26.22775269 C48.40318075 22.82880106 49.15729221 18.466506 49.29858398 14.22775269 C48.73369263 14.24003403 48.16880127 14.25231537 47.58679199 14.26496887 C40.2653198 14.35173503 33.0569485 13.81043807 25.76733398 13.16915894 C23.85978333 13.00624611 23.85978333 13.00624611 21.91369629 12.84004211 C18.55707237 12.55250033 15.2008129 12.2612481 11.84466553 11.9682312 C9.12322893 11.73150689 6.40148227 11.4984741 3.67971039 11.26564121 C-19.47046074 9.28482858 -19.47046074 9.28482858 -29.70141602 8.22775269 C-26.66702224 6.2048235 -23.63029671 4.32928029 -20.45141602 2.54025269 C-19.35313477 1.8970105 -18.25485352 1.25376831 -17.12329102 0.59103394 C-11.56057652 -1.66556444 -5.83215332 -0.60138941 0 0 Z " fill="#80B8B9" transform="translate(377.701416015625,426.7722473144531)"/>
<path d="M0 0 C0.99 0.33 1.98 0.66 3 1 C6.68382769 1.13156527 9.49053585 1.16982138 13 0 C37.64247408 45.09370769 51.93226859 98.31088572 51 150 C44.125 149.125 44.125 149.125 43 148 C42.9030147 145.87278912 42.81422576 143.74496593 42.76098633 141.61621094 C41.5054716 93.71477875 29.11005249 44.49201332 1.7109375 4.65625 C0 2 0 2 0 0 Z " fill="#7BB6B8" transform="translate(527,132)"/>
<path d="M0 0 C0.66 0.66 1.32 1.32 2 2 C4.44963177 2.02253443 4.44963177 2.02253443 7.125 1.625 C8.49011719 1.45871094 8.49011719 1.45871094 9.8828125 1.2890625 C10.93082031 1.14597656 10.93082031 1.14597656 12 1 C10.70621358 4.39252876 9.23572401 7.5371495 7.4609375 10.703125 C6.96698486 11.59169189 6.47303223 12.48025879 5.96411133 13.39575195 C5.17750122 14.80860474 5.17750122 14.80860474 4.375 16.25 C-8.481827 39.68127497 -18.34741723 63.78838021 -24 90 C-24.15162598 90.67756348 -24.30325195 91.35512695 -24.45947266 92.05322266 C-27.48649747 105.73428768 -28.95141286 119.8915704 -29.09765625 133.8984375 C-29.11489746 134.84887939 -29.13213867 135.79932129 -29.14990234 136.77856445 C-29.17435868 138.58944503 -29.16972633 140.4010309 -29.13134766 142.21166992 C-29.21920356 148.16068615 -29.21920356 148.16068615 -31.57666016 150.69482422 C-36.10580373 154 -36.10580373 154 -38 154 C-38.62033716 139.20380985 -36.84597385 124.66037425 -35 110 C-34.86078125 108.89237305 -34.7215625 107.78474609 -34.578125 106.64355469 C-29.70449529 69.1549632 -18.62428232 32.99494562 0 0 Z " fill="#7BB6B8" transform="translate(125,131)"/>
<path d="M0 0 C1.99396257 2.66083969 4 5.61242325 4 9 C3.26587891 8.98952637 2.53175781 8.97905273 1.77539062 8.96826172 C-22.26729329 8.67092734 -43.58196006 11.61472789 -67 17 C-67.89638184 17.19964355 -68.79276367 17.39928711 -69.71630859 17.60498047 C-86.1652336 21.32482008 -101.46380654 28.58235579 -114 40 C-114.97195312 40.83144531 -115.94390625 41.66289062 -116.9453125 42.51953125 C-126.52756348 50.82736244 -134.45734454 59.97802292 -139 72 C-139.57778665 73.35654256 -140.16070905 74.71091526 -140.75 76.0625 C-141.36875 77.5165625 -141.36875 77.5165625 -142 79 C-142.33 79 -142.66 79 -143 79 C-143.28823904 73.57266971 -142.40186718 69.25819102 -140.4375 64.25 C-140.16574951 63.5497168 -139.89399902 62.84943359 -139.61401367 62.12792969 C-129.65089791 37.36644781 -108.24467478 22.82222066 -84.59375 12.515625 C-82.9437551 11.86131668 -81.28640831 11.22467013 -79.6171875 10.62109375 C-77.98412722 10.11965463 -77.98412722 10.11965463 -77 9 C-75.24406039 8.68093556 -73.47742971 8.42048081 -71.70849609 8.18383789 C-70.57576263 8.03020279 -69.44302917 7.87656769 -68.27597046 7.71827698 C-66.41846664 7.47294472 -66.41846664 7.47294472 -64.5234375 7.22265625 C-63.2508609 7.05124619 -61.9782843 6.87983612 -60.66714478 6.70323181 C-57.26375956 6.24487371 -53.85971169 5.79163028 -50.45550537 5.3394165 C-47.05065641 4.88622908 -43.64644993 4.42827182 -40.2421875 3.97070312 C-34.03304195 3.13690717 -27.82385092 2.30349464 -21.61248779 1.48635864 C-19.0308493 1.13878593 -16.45365477 0.77757548 -13.87628174 0.40109253 C-13.19399317 0.30379821 -12.5117046 0.20650389 -11.80874062 0.10626125 C-9.89524816 -0.16706573 -7.9827028 -0.44699927 -6.07022095 -0.72731018 C-3 -1 -3 -1 0 0 Z " fill="#F1F7ED" transform="translate(161,292)"/>
<path d="M0 0 C2.71759879 2.46282391 2.96120713 3.78663922 3.625 7.4375 C2.96003621 11.22779358 2.80446823 11.63489267 -0.0625 13.8125 C-6.41794252 18.03505024 -13.49875691 18.36387444 -20.875 18.375 C-21.72191406 18.39949219 -22.56882812 18.42398437 -23.44140625 18.44921875 C-30.82296412 18.48313096 -36.54454774 16.44410038 -42.5625 12.1875 C-44.76059783 8.84256852 -44.74209388 6.91285864 -44 3 C-33.4166336 -9.97792695 -12.98823579 -8.09152161 0 0 Z " fill="#F9BA40" transform="translate(352,242)"/>
<path d="M0 0 C4.01354942 1.66769898 7.03428774 3.97393073 10 7.125 C12.03330707 12.97075782 11.99796217 18.80448322 9.4375 24.4375 C5.21446274 28.87710327 1.53418071 31.19208683 -4.5625 31.5 C-9.00418952 31.28093708 -11.59372257 29.93098291 -15 27 C-18.33997264 23.29894924 -19.83029663 20.76491504 -20.3125 15.75 C-19.82892095 9.94705136 -17.6563735 6.49862364 -13.375 2.625 C-8.92703356 -0.41834546 -5.31476741 -0.75320748 0 0 Z " fill="#F7F9F9" transform="translate(220,188)"/>
<path d="M0 0 C4.33279036 2.45915128 7.40766916 5.72049709 9.3125 10.3125 C10.09921167 15.93186904 9.53452478 20.53501498 6.3125 25.3125 C1.38617238 29.75821029 -1.64120857 30.66876128 -8.1484375 30.59375 C-13.0995418 30.04531999 -15.78547414 27.31204217 -19 23.75 C-21.86832901 19.60685809 -22.02303833 16.26169042 -21.6875 11.3125 C-18.14960038 1.48500106 -9.98238075 -2.55363229 0 0 Z " fill="#F7F9FA" transform="translate(453.6875,188.6875)"/>
<path d="M0 0 C3.69876091 1.37287342 6.9514476 3.06355453 10.3125 5.125 C11.19550781 5.66382813 12.07851563 6.20265625 12.98828125 6.7578125 C13.98408203 7.37269531 13.98408203 7.37269531 15 8 C14.72266813 12.27189178 14.42569416 16.54219411 14.125 20.8125 C14.00705078 22.63491211 14.00705078 22.63491211 13.88671875 24.49414062 C13.80292969 25.65751953 13.71914063 26.82089844 13.6328125 28.01953125 C13.52283936 29.62985229 13.52283936 29.62985229 13.41064453 31.27270508 C13 34 13 34 11 37 C8.5390625 38.203125 8.5390625 38.203125 5.625 39.25 C4.19027344 39.78367187 4.19027344 39.78367187 2.7265625 40.328125 C-0.04064834 41.0100165 -1.36736194 40.9732027 -4 40 C-5.7331341 34.71707315 -6.41886803 29.99042812 -6.4375 24.4375 C-6.44064209 23.65898682 -6.44378418 22.88047363 -6.44702148 22.07836914 C-6.30899959 15.28616617 -5.04938517 5.04938517 0 0 Z " fill="#515050" transform="translate(422,341)"/>
<path d="M0 0 C1.83667236 0.21209106 1.83667236 0.21209106 3.71044922 0.4284668 C21.02865513 2.59181402 37.92651143 6.5911544 49.3125 20.9375 C50.8125 24.4375 50.8125 24.4375 51.3125 26.9375 C50.8278125 26.56238281 50.343125 26.18726563 49.84375 25.80078125 C28.39746269 9.42736575 3.79299225 7.23986767 -22.6875 8.9375 C-24.35709136 9.25586079 -26.02429805 9.58728838 -27.6875 9.9375 C-29.45727761 10.00209042 -31.22920152 10.02361065 -33 10 C-33.88300781 9.99097656 -34.76601563 9.98195313 -35.67578125 9.97265625 C-36.33964844 9.96105469 -37.00351562 9.94945312 -37.6875 9.9375 C-37.48828125 7.57421875 -37.48828125 7.57421875 -36.6875 4.9375 C-34.60546875 3.64453125 -34.60546875 3.64453125 -31.875 2.75 C-31.00230469 2.44707031 -30.12960938 2.14414062 -29.23046875 1.83203125 C-19.13713434 -0.71634094 -10.34848247 -1.24732985 0 0 Z " fill="#F0F9F9" transform="translate(89.6875,339.0625)"/>
<path d="M0 0 C2.46072342 6.64395323 2.46072342 6.64395323 1.2421875 10.23046875 C0.87351562 11.00003906 0.50484375 11.76960938 0.125 12.5625 C-3.15190945 19.66798716 -2.98779363 28.20786602 -1.421875 35.8046875 C-0.89599602 38.5412059 -1.54366453 39.68699661 -3 42 C-8.47932789 40.45454854 -13.11429181 37.84456788 -18 35 C-18.31578947 9.63157895 -18.31578947 9.63157895 -16 5 C-13.69197666 4.03710784 -11.42449298 3.18027808 -9.0625 2.375 C-8.41603516 2.14554687 -7.76957031 1.91609375 -7.10351562 1.6796875 C-2.28941127 0 -2.28941127 0 0 0 Z " fill="#504F4F" transform="translate(512,348)"/>
<path d="M0 0 C1.9765625 1.1953125 1.9765625 1.1953125 2.828125 3.265625 C2.87710938 3.90242188 2.92609375 4.53921875 2.9765625 5.1953125 C2.6465625 5.5253125 2.3165625 5.8553125 1.9765625 6.1953125 C-0.0055791 6.09793312 -1.98459185 5.93788449 -3.9609375 5.7578125 C-27.94702145 3.96019771 -51.09635112 4.08822824 -73.06640625 14.8046875 C-76.0234375 16.1953125 -76.0234375 16.1953125 -78.0234375 16.1953125 C-78.2915625 16.8140625 -78.5596875 17.4328125 -78.8359375 18.0703125 C-80.0234375 20.1953125 -80.0234375 20.1953125 -83.0234375 22.1953125 C-81.83891566 15.53237714 -76.19885644 10.79242898 -70.8984375 7.0078125 C-58.1409038 -0.92780592 -44.40192558 -2.67810325 -29.703125 -3.55859375 C-19.04238308 -4.53764148 -10.32546711 -3.624574 0 0 Z " fill="#F1F5EA" transform="translate(610.0234375,342.8046875)"/>
<path d="M0 0 C0.515625 0.45375 1.03125 0.9075 1.5625 1.375 C7.58546001 5.39030667 14.18281146 5.35348153 21.1875 5.3125 C22.11353027 5.31048584 23.03956055 5.30847168 23.99365234 5.30639648 C30.98803788 5.20423955 37.3618695 4.29598421 44 2 C44.99 1.67 45.98 1.34 47 1 C47.4375 4.1875 47.4375 4.1875 47 8 C42.89289265 12.71828404 36.79541896 14.63416187 30.70776367 15.22094727 C28.17691307 15.33973457 25.65853158 15.37117869 23.125 15.375 C22.27808594 15.39949219 21.43117188 15.42398437 20.55859375 15.44921875 C13.17703588 15.48313096 7.45545226 13.44410038 1.4375 9.1875 C-0.59479037 6.09488422 -0.2778103 3.61153396 0 0 Z " fill="#ED7823" transform="translate(308,245)"/>
<path d="M0 0 C15.88623827 5.49908248 27.75422447 21.06027302 35.5 35.3125 C37.16209564 39.39848512 37.6875719 42.62600655 38 47 C34 42 34 42 32.58007812 40.21630859 C22.37690108 27.41684542 12.51644848 17.26408267 -1 8 C-0.67 5.36 -0.34 2.72 0 0 Z " fill="#F2F4EA" transform="translate(609,315)"/>
<path d="M0 0 C0.0272367 2.52090778 0.04695207 5.04151457 0.0625 7.5625 C0.07087891 8.26697266 0.07925781 8.97144531 0.08789062 9.69726562 C0.10882603 14.24024798 -0.25199318 18.51784892 -1 23 C-4.71766668 24.23922223 -6.43889537 23.57018942 -10.1875 22.5625 C-11.27417969 22.27503906 -12.36085938 21.98757813 -13.48046875 21.69140625 C-14.31191406 21.46324219 -15.14335937 21.23507812 -16 21 C-16.02712351 18.60408962 -16.0468982 16.20849043 -16.0625 13.8125 C-16.07087891 13.13896484 -16.07925781 12.46542969 -16.08789062 11.77148438 C-16.10606538 8.04565869 -15.89299392 4.6211958 -15 1 C-12.8750734 0.83240016 -10.75005624 0.66594799 -8.625 0.5 C-7.44164062 0.4071875 -6.25828125 0.314375 -5.0390625 0.21875 C-3.36213157 0.09804546 -1.68126944 0 0 0 Z " fill="#505050" transform="translate(486,355)"/>
<path d="M0 0 C1.93798521 0.30947671 3.87537426 0.62268834 5.8125 0.9375 C6.89144531 1.11152344 7.97039062 1.28554688 9.08203125 1.46484375 C12 2 12 2 15 3 C14.67 9.6 14.34 16.2 14 23 C8.72 23.33 3.44 23.66 -2 24 C-1.44990362 15.9843099 -0.86506695 7.988065 0 0 Z " fill="#515151" transform="translate(446,352)"/>
<path d="M0 0 C1.44564445 2.29602354 2.01915134 3.63612457 1.875 6.375 C-0.44455748 13.33367243 -4.70593152 16.75603452 -11 20 C-16.98628711 21.99542904 -23.69756316 21.96941053 -29.5 19.375 C-33.11540797 17.30058559 -34.61835402 14.97223218 -36 11 C-36 10.34 -36 9.68 -36 9 C-33.00872232 9.41738758 -30.39294375 9.82420937 -27.625 11.0625 C-22.16645371 13.01198082 -18.72256313 12.74860837 -13.4765625 10.46875 C-10.97941823 9.24196373 -8.52329378 7.9486309 -6.07421875 6.62890625 C-3 5 -3 5 0 4 C0 2.68 0 1.36 0 0 Z " fill="#EB7723" transform="translate(244,605)"/>
<path d="M0 0 C0.99 1.485 0.99 1.485 2 3 C4.31456005 5.67857098 6.77088845 7.07264607 9.9375 8.625 C11.21947266 9.26308594 11.21947266 9.26308594 12.52734375 9.9140625 C21.03769284 13.65162497 28.53854613 11.91295953 37 9 C36.74220026 12.78106289 36.47578037 14.52421963 33.75 17.25 C27.606982 21.15919327 22.16955113 21.81449319 15 21 C8.35479796 18.92687626 3.83508582 14.75262873 0 9 C-0.1953125 6.73828125 -0.1953125 6.73828125 -0.125 4.3125 C-0.10695313 3.50425781 -0.08890625 2.69601562 -0.0703125 1.86328125 C-0.04710937 1.24839844 -0.02390625 0.63351562 0 0 Z " fill="#EC7823" transform="translate(422,605)"/>
<path d="M0 0 C4.08406297 4.38900633 3.59958636 8.83456062 3.4921875 14.5625 C2.88156579 18.82715958 1.63159808 20.89692731 -1.39453125 23.86328125 C-5.16702746 26.53431871 -9.55998946 26.59817979 -14 26 C-18.82398265 23.58800867 -21.44752319 20.7268089 -24 16 C-24.75 12.625 -24.75 12.625 -25 10 C-21.3641852 10.94531185 -18.4076119 11.76961066 -15.125 13.625 C-10.97308981 15.45184049 -7.46783093 15.71079129 -3 15 C-0.14777209 13.89794623 -0.14777209 13.89794623 1 11 C1.0107237 7.2735129 0.58318279 3.67658718 0 0 Z " fill="#EB7723" transform="translate(537,600)"/>
<path d="M0 0 C1.17795874 3.53387623 0.54958106 4.98408445 -0.984375 8.2890625 C-3.45090856 12.44422288 -7.46309688 14.70374197 -12 16 C-17.25418785 16.47765344 -20.56705964 15.89104806 -25 13 C-27.02928053 11.09354435 -28.38526503 9.32711804 -30 7 C-30 5.68 -30 4.36 -30 3 C-27.83125748 3.50603992 -26.00032373 3.99983813 -24 5 C-14.91032891 6.03628172 -8.10420727 4.02336531 0 0 Z " fill="#EB7823" transform="translate(196,611)"/>
<path d="M0 0 C0.33 0 0.66 0 1 0 C1.2475 1.11375 1.495 2.2275 1.75 3.375 C2.59056139 6.98786076 2.59056139 6.98786076 4.8203125 8.234375 C11.2593571 10.49611827 18.0279681 7.43684032 23.93359375 4.83984375 C26 4 26 4 28 4 C27.77224148 9.58008369 26.44742564 12.4845859 22.60546875 16.5546875 C19.40479443 19.43607314 16.7757848 19.91536893 12.5625 20.375 C8.22675288 19.91860557 6.28739254 18.83911174 3 16 C-0.63412417 10.91222617 -0.32005249 5.9980207 0 0 Z " fill="#EA7723" transform="translate(127,606)"/>
<path d="M0 0 C0.845625 0.3609375 1.69125 0.721875 2.5625 1.09375 C12.92843806 5.47445426 12.92843806 5.47445426 23.75 4 C24.4925 3.67 25.235 3.34 26 3 C27.32 3 28.64 3 30 3 C29.14952221 7.4224845 28.62671136 9.4932972 25.0625 12.375 C20.45714674 14.81865683 17.19653406 15.35230739 12 15 C6.87419242 13.15470927 4.06972204 10.47302354 1 6 C0.60422529 4.0114142 0.26080777 2.01074375 0 0 Z " fill="#EB7722" transform="translate(471,612)"/>
<path d="M0 0 C0.495 1.485 0.495 1.485 1 3 C0.09378906 2.855625 -0.81242188 2.71125 -1.74609375 2.5625 C-2.96425781 2.376875 -4.18242188 2.19125 -5.4375 2 C-7.22994141 1.7215625 -7.22994141 1.7215625 -9.05859375 1.4375 C-18.39079321 0.40161661 -26.89046838 1.59055092 -36.125 3.1875 C-37.45034319 3.41105828 -38.77570145 3.63452727 -40.10107422 3.85791016 C-49.46525187 5.45805565 -58.75381825 7.34593808 -67.99267578 9.56323242 C-68.8639209 9.7666626 -69.73516602 9.97009277 -70.6328125 10.1796875 C-71.76033936 10.45401611 -71.76033936 10.45401611 -72.91064453 10.73388672 C-75.21520423 11.02740975 -76.80181738 10.70165343 -79 10 C-63.46807921 5.24078347 -47.94084582 1.14015848 -32 -2 C-30.12441406 -2.37125 -30.12441406 -2.37125 -28.2109375 -2.75 C-18.05464631 -4.60127333 -9.42214119 -5.03075038 0 0 Z " fill="#E77623" transform="translate(527,582)"/>
<path d="M0 0 C1.79206547 0.14084796 3.58364917 0.28783701 5.375 0.4375 C6.87160156 0.55931641 6.87160156 0.55931641 8.3984375 0.68359375 C11 1 11 1 13 2 C10.25752656 10.97536761 7.0983802 19.51005238 0 26 C-0.66 26 -1.32 26 -2 26 C-2.29211698 17.13911833 -1.44796872 8.73952546 0 0 Z " fill="#515253" transform="translate(469,386)"/>
<path d="M0 0 C5.97856326 5.5333511 9.3239023 13.07662905 11 21 C11 22.98 11 24.96 11 27 C6.71 27 2.42 27 -2 27 C-2.28994872 17.86661545 -1.1741788 9.03698325 0 0 Z " fill="#525253" transform="translate(474,319)"/>
<path d="M0 0 C4.29 0 8.58 0 13 0 C13.10068582 9.06172369 12.7581146 17.97031358 12 27 C4.69455265 20.50626903 2.00979414 12.42471646 0 3 C0 2.01 0 1.02 0 0 Z " fill="#515151" transform="translate(445,385)"/>
<path d="M0 0 C1.03647521 3.30312756 0.98440578 5.9886447 0.66015625 9.421875 C0.56669922 10.44667969 0.47324219 11.47148437 0.37695312 12.52734375 C0.27318359 13.59082031 0.16941406 14.65429688 0.0625 15.75 C-0.03740234 16.82894531 -0.13730469 17.90789062 -0.24023438 19.01953125 C-0.48747505 21.68031187 -0.74094708 24.34034775 -1 27 C-2.6045556 26.85851011 -4.20863767 26.71164314 -5.8125 26.5625 C-6.70582031 26.48128906 -7.59914063 26.40007812 -8.51953125 26.31640625 C-11 26 -11 26 -14 25 C-12.52367267 14.99378142 -7.60369009 6.68203069 0 0 Z " fill="#535353" transform="translate(463,318)"/>
<path d="M0 0 C1.07032471 0.21825439 2.14064941 0.43650879 3.2434082 0.66137695 C18.15447899 3.77004542 33.32631674 6.99510034 47.75 11.9375 C47.75 12.2675 47.75 12.5975 47.75 12.9375 C38.46592474 12.17855544 29.48551781 10.03102936 20.41088867 8.02416992 C2.73001962 4.12804324 -14.27280227 0.90253778 -32.25 4.9375 C-23.83173973 -5.05918407 -11.49385791 -2.38995649 0 0 Z " fill="#E87723" transform="translate(171.25,580.0625)"/>
<path d="M0 0 C1.91015625 0.484375 1.91015625 0.484375 4.47265625 2.609375 C5.91015625 5.484375 5.91015625 5.484375 5.91015625 8.546875 C4.75451113 11.94158255 3.84523568 13.42188675 0.91015625 15.484375 C-2.41057423 15.9686482 -4.35381498 15.82255038 -7.40234375 14.421875 C-9.93969446 11.50862048 -10.08984375 9.2981501 -10.08984375 5.484375 C-7.72707849 0.65611557 -5.11450241 -0.34415343 0 0 Z " fill="#F2F1E7" transform="translate(426.08984375,219.515625)"/>
<path d="M0 0 C2.4375 1.5625 2.4375 1.5625 4 4 C4.5625 7.5 4.5625 7.5 4 11 C1.4268383 13.95156784 -0.21802472 14.85637189 -4.0625 15.5625 C-7 15 -7 15 -9.375 12.875 C-11.28071139 9.50335677 -11.64850195 7.80994895 -11 4 C-8.05899778 -0.47032338 -5.13105401 -0.73300772 0 0 Z " fill="#F6F5EA" transform="translate(243,220)"/>
<path d="M0 0 C4.03791199 1.28631545 7.43360176 2.69233055 11 5 C7.69170429 12.43167876 0.16549668 16.70182841 -7 20 C-7.66 20 -8.32 20 -9 20 C-7.55676531 15.26210835 -5.62773267 11.01141849 -3.375 6.625 C-2.88773437 5.66400391 -2.88773437 5.66400391 -2.390625 4.68359375 C-1.59742593 3.12052499 -0.79922969 1.55999378 0 0 Z " fill="#525454" transform="translate(491,392)"/>
<path d="M0 0 C0.96886235 2.7891492 1.8274574 5.53723214 2.625 8.375 C2.85445313 9.15617187 3.08390625 9.93734375 3.3203125 10.7421875 C4.24963105 13.9726758 5 16.61562918 5 20 C-2.7690284 17.64574897 -7.78972557 11.63437183 -12 5 C-12 4.34 -12 3.68 -12 3 C-10.3789897 2.30314502 -8.75303934 1.61777139 -7.125 0.9375 C-6.22007812 0.55464844 -5.31515625 0.17179687 -4.3828125 -0.22265625 C-2 -1 -2 -1 0 0 Z " fill="#525454" transform="translate(436,388)"/>
<path d="M0 0 C7.05336726 2.8213469 12.74816785 7.62225177 17 14 C17 14.99 17 15.98 17 17 C15.5437455 17.67119549 14.08492133 18.33681807 12.625 19 C11.40683594 19.556875 11.40683594 19.556875 10.1640625 20.125 C8 21 8 21 6 21 C4.02 14.07 2.04 7.14 0 0 Z " fill="#515252" transform="translate(489,323)"/>
<path d="M0 0 C-2.64 5.94 -5.28 11.88 -8 18 C-12.38762753 16.90309312 -15.14499723 15.29817473 -19 13 C-16.4202659 7.01133154 -11.1461981 3.29581772 -5.6875 0 C-3 -1 -3 -1 0 0 Z " fill="#535353" transform="translate(448,321)"/>
<path d="M0 0 C14.70411337 0.61809326 29.34134864 1.69620747 44 3 C44 4.32 44 5.64 44 7 C29.30390312 6.33438417 14.65867437 5.2333753 0 4 C0 2.68 0 1.36 0 0 Z " fill="#B4B9BA" transform="translate(437,442)"/>
<path d="M0 0 C6.16618181 -0.40214229 11.17745757 1.03181664 17 3 C17 5.31 17 7.62 17 10 C10.88514973 10.09706112 5.06696699 9.77040851 -1 9 C-0.67 6.03 -0.34 3.06 0 0 Z " fill="#010102" transform="translate(565,443)"/>
<path d="M0 0 C6.47511312 1.3438914 6.47511312 1.3438914 9 4.5 C9.33 5.325 9.66 6.15 10 7 C9.67 7.66 9.34 8.32 9 9 C7.49704815 7.69088122 5.99770689 6.37761608 4.5 5.0625 C3.6646875 4.33160156 2.829375 3.60070312 1.96875 2.84765625 C1.3190625 2.23792969 0.669375 1.62820313 0 1 C0 0.67 0 0.34 0 0 Z " fill="#A8D6EC" transform="translate(131,357)"/>
<path d="M0 0 C1 3 1 3 0.22265625 5.04296875 C-0.16019531 5.75066406 -0.54304688 6.45835937 -0.9375 7.1875 C-1.31777344 7.90292969 -1.69804687 8.61835938 -2.08984375 9.35546875 C-2.54037109 10.16951172 -2.54037109 10.16951172 -3 11 C-3.33 11 -3.66 11 -4 11 C-4.25 4.375 -4.25 4.375 -2 1 C-1.34 0.67 -0.68 0.34 0 0 Z " fill="#A8D4E9" transform="translate(22,360)"/>
</svg>
