<?xml version="1.0" standalone="yes"?>
<svg xmlns="http://www.w3.org/2000/svg" width="180" height="180">
<path style="fill:#7d0af7; stroke:none;" d="M0 0L0 180L180 180L180 0L0 0z"/>
<path style="fill:#8c38e9; stroke:none;" d="M40 27L41 28L40 27z"/>
<path style="fill:#a160ec; stroke:none;" d="M41 27L42 28L41 27z"/>
<path style="fill:#caa2f6; stroke:none;" d="M42 27L42 28L138 28L109 27L42 27z"/>
<path style="fill:#a160ec; stroke:none;" d="M138 27L139 28L138 27z"/>
<path style="fill:#8c38e9; stroke:none;" d="M139 27L140 28L139 27M37 28L38 29L37 28z"/>
<path style="fill:#caa2f6; stroke:none;" d="M38 28L39 29L38 28z"/>
<path style="fill:#f7f0fe; stroke:none;" d="M12 94C37.2934 101.513 20.4917 132.135 32.7894 146.787C38.9447 154.121 50.5117 152 59 152L118 152C125.917 152 136.889 153.979 143.907 149.633C151.754 144.773 150.909 135.989 151.004 128C151.155 115.278 154.085 98.1334 168 94C167.964 83.966 158.081 81.3261 154.468 72C150.079 60.6725 154.83 45.118 148.91 35.0154C144.491 27.4732 136.608 28 129 28L80 28C68.2251 28 43.4506 23.3365 34.108 31.3943C24.3445 39.8151 30.034 60.3809 25.5324 72C21.9248 81.3115 12.0357 83.9115 12 94z"/>
<path style="fill:#caa2f6; stroke:none;" d="M141 28L142 29L141 28z"/>
<path style="fill:#8c38e9; stroke:none;" d="M142 28L143 29L142 28z"/>
<path style="fill:#caa2f6; stroke:none;" d="M36 29L37 30L36 29M143 29L144 30L143 29z"/>
<path style="fill:#a160ec; stroke:none;" d="M34 30L35 31L34 30M145 30L146 31L145 30M33 31L34 32L33 31M146 31L147 32L146 31M32 32L33 33L32 32M147 32L148 33L147 32z"/>
<path style="fill:#8c38e9; stroke:none;" d="M31 33L32 34L31 33M148 33L149 34L148 33z"/>
<path style="fill:#a160ec; stroke:none;" d="M30 35L31 36L30 35z"/>
<path style="fill:#caa2f6; stroke:none;" d="M42 35L43 36L42 35z"/>
<path style="fill:#a160ec; stroke:none;" d="M43 35L43 36L137 36L108 35L43 35z"/>
<path style="fill:#caa2f6; stroke:none;" d="M137 35L138 36L137 35z"/>
<path style="fill:#a160ec; stroke:none;" d="M149 35L150 36L149 35M40 36L41 37L40 36z"/>
<path style="fill:#7d0af7; stroke:none;" d="M41.0586 37.0278C34.2618 40.7503 36.7859 57.1473 35.7253 64C34.252 73.5194 27.2563 80.416 25.3295 89C24.4313 93.0012 29.8637 97.569 31.5062 101C35.2597 108.841 36.7737 118.363 36.9853 127C37.096 131.518 35.7181 138.076 39.3179 141.566C44.2611 146.359 56.6443 144 63 144L117 144C123.239 144 133.328 145.895 138.941 142.821C145.879 139.021 143.208 122.029 144.296 115C145.729 105.742 152.787 99.2468 154.67 91C155.574 87.0412 149.93 81.5499 148.312 78C144.967 70.658 143.391 62.0407 143.039 54C142.835 49.3233 144.397 42.3019 141.106 38.4336C136.95 33.5475 123.808 36 118 36L64 36C57.656 36 46.7365 33.9181 41.0586 37.0278z"/>
<path style="fill:#a160ec; stroke:none;" d="M139 36L140 37L139 36M29 37L30 38L29 37z"/>
<path style="fill:#8c38e9; stroke:none;" d="M39 37L40 38L39 37z"/>
<path style="fill:#a160ec; stroke:none;" d="M150 37L151 38L150 37z"/>
<path style="fill:#caa2f6; stroke:none;" d="M29 38L30 39L29 38z"/>
<path style="fill:#8c38e9; stroke:none;" d="M38 38L39 39L38 38M141 38L142 39L141 38z"/>
<path style="fill:#caa2f6; stroke:none;" d="M150 38L151 39L150 38z"/>
<path style="fill:#a160ec; stroke:none;" d="M37 39L38 40L37 39M142 39L143 40L142 39z"/>
<path style="fill:#8c38e9; stroke:none;" d="M28 40L29 41L28 40M151 40L152 41L151 40z"/>
<path style="fill:#a160ec; stroke:none;" d="M28 41L28 52L29 52L28 41z"/>
<path style="fill:#caa2f6; stroke:none;" d="M36 41L36 52L37 52L36 41M143 41L143 52L144 52L143 41z"/>
<path style="fill:#a160ec; stroke:none;" d="M151 41L151 52L152 52L151 41z"/>
<path style="fill:#caa2f6; stroke:none;" d="M28 52L28 58L29 58L28 52z"/>
<path style="fill:#a160ec; stroke:none;" d="M36 52L36 57L37 57L36 52M143 52L143 57L144 57L143 52z"/>
<path style="fill:#caa2f6; stroke:none;" d="M151 52L151 58L152 58L151 52z"/>
<path style="fill:#8c38e9; stroke:none;" d="M66 56L67 57L66 56z"/>
<path style="fill:#a160ec; stroke:none;" d="M67 56L67 57L96 57L67 56z"/>
<path style="fill:#8c38e9; stroke:none;" d="M96 56L97 57L96 56M36.3333 57.6667L36.6667 58.3333L36.3333 57.6667z"/>
<path style="fill:#f7f0fe; stroke:none;" d="M66 57L66 106C66 109.938 64.1709 120.254 67.6034 122.972C70.8503 125.544 79.0708 124 83 124C91.5209 124 101.694 124.734 108.957 119.351C123.43 108.624 113.259 93.4693 101 88C113.449 83.3335 116.707 66.3728 103.999 59.4174C93.9112 53.8958 77.1981 57 66 57z"/>
<path style="fill:#caa2f6; stroke:none;" d="M99 57L100 58L99 57z"/>
<path style="fill:#a160ec; stroke:none;" d="M100 57L101 58L100 57z"/>
<path style="fill:#8c38e9; stroke:none;" d="M143.333 57.6667L143.667 58.3333L143.333 57.6667z"/>
<path style="fill:#caa2f6; stroke:none;" d="M102 58L103 59L102 58z"/>
<path style="fill:#8c38e9; stroke:none;" d="M103 58L104 59L103 58z"/>
<path style="fill:#caa2f6; stroke:none;" d="M104 59L105 60L104 59z"/>
<path style="fill:#8c38e9; stroke:none;" d="M105 59L106 60L105 59z"/>
<path style="fill:#a160ec; stroke:none;" d="M106 60L107 61L106 60z"/>
<path style="fill:#8c38e9; stroke:none;" d="M27 61L28 62L27 61z"/>
<path style="fill:#caa2f6; stroke:none;" d="M107 61L108 62L107 61z"/>
<path style="fill:#8c38e9; stroke:none;" d="M152 61L153 62L152 61z"/>
<path style="fill:#a160ec; stroke:none;" d="M27 62L28 63L27 62z"/>
<path style="fill:#caa2f6; stroke:none;" d="M35.3333 62.6667L35.6667 63.3333L35.3333 62.6667M108 62L109 63L108 62M144.333 62.6667L144.667 63.3333L144.333 62.6667z"/>
<path style="fill:#a160ec; stroke:none;" d="M152.333 62.6667L152.667 63.3333L152.333 62.6667z"/>
<path style="fill:#caa2f6; stroke:none;" d="M27.3333 63.6667L27.6667 64.3333L27.3333 63.6667M109 63L110 64L109 63z"/>
<path style="fill:#a160ec; stroke:none;" d="M35.3333 64.6667L35.6667 65.3333L35.3333 64.6667z"/>
<path style="fill:#8c38e9; stroke:none;" d="M110 64L111 65L110 64z"/>
<path style="fill:#a160ec; stroke:none;" d="M144.333 64.6667L144.667 65.3333L144.333 64.6667z"/>
<path style="fill:#caa2f6; stroke:none;" d="M152 64L153 65L152 64M76 65L77.6034 84.9722L91 86L91 85L77 85L76 65z"/>
<path style="fill:#8c38e9; stroke:none;" d="M77 65L77 66L92 66L77 65z"/>
<path style="fill:#a160ec; stroke:none;" d="M92.6667 65.3333L93.3333 65.6667L92.6667 65.3333z"/>
<path style="fill:#caa2f6; stroke:none;" d="M94 65L95 66L94 65z"/>
<path style="fill:#7d0af7; stroke:none;" d="M77 66L77 85C83.269 85 91.3516 86.3091 96.956 82.9105C102.964 79.2672 103.491 70.6646 96.956 67.179C91.6735 64.3615 82.8389 66 77 66z"/>
<path style="fill:#8c38e9; stroke:none;" d="M96 66L97 67L96 66z"/>
<path style="fill:#caa2f6; stroke:none;" d="M97 66L98 67L97 66z"/>
<path style="fill:#a160ec; stroke:none;" d="M111 66L112 67L111 66M26 67L27 68L26 67z"/>
<path style="fill:#8c38e9; stroke:none;" d="M98 67L99 68L98 67z"/>
<path style="fill:#caa2f6; stroke:none;" d="M111 67L112 68L111 67z"/>
<path style="fill:#8c38e9; stroke:none;" d="M153 67L154 68L153 67z"/>
<path style="fill:#caa2f6; stroke:none;" d="M26.3333 68.6667L26.6667 69.3333L26.3333 68.6667M34 68L35 69L34 68z"/>
<path style="fill:#8c38e9; stroke:none;" d="M99 68L100 69L99 68z"/>
<path style="fill:#caa2f6; stroke:none;" d="M145 68L146 69L145 68M153.333 68.6667L153.667 69.3333L153.333 68.6667z"/>
<path style="fill:#a160ec; stroke:none;" d="M34 69L35 70L34 69z"/>
<path style="fill:#8c38e9; stroke:none;" d="M100 69L101 70L100 69z"/>
<path style="fill:#a160ec; stroke:none;" d="M112 69L113 70L112 69M145 69L146 70L145 69z"/>
<path style="fill:#8c38e9; stroke:none;" d="M34 70L35 71L34 70z"/>
<path style="fill:#caa2f6; stroke:none;" d="M101 70L102 71L101 70M112 70L112 76L113 76L112 70z"/>
<path style="fill:#8c38e9; stroke:none;" d="M145 70L146 71L145 70z"/>
<path style="fill:#a160ec; stroke:none;" d="M25 71L26 72L25 71z"/>
<path style="fill:#8c38e9; stroke:none;" d="M101 71L102 72L101 71z"/>
<path style="fill:#a160ec; stroke:none;" d="M154 71L155 72L154 71z"/>
<path style="fill:#caa2f6; stroke:none;" d="M25 72L26 73L25 72M33 72L34 73L33 72M146 72L147 73L146 72M154 72L155 73L154 72z"/>
<path style="fill:#a160ec; stroke:none;" d="M33 73L34 74L33 73z"/>
<path style="fill:#caa2f6; stroke:none;" d="M102 73L102 76L103 76L102 73z"/>
<path style="fill:#a160ec; stroke:none;" d="M146 73L147 74L146 73M24 74L25 75L24 74M155 74L156 75L155 74z"/>
<path style="fill:#caa2f6; stroke:none;" d="M32 75L33 76L32 75M147 75L148 76L147 75z"/>
<path style="fill:#a160ec; stroke:none;" d="M23 76L24 77L23 76M32 76L33 77L32 76M112 76L113 77L112 76z"/>
<path style="fill:#8c38e9; stroke:none;" d="M147 76L148 77L147 76z"/>
<path style="fill:#a160ec; stroke:none;" d="M156 76L157 77L156 76z"/>
<path style="fill:#8c38e9; stroke:none;" d="M112 77L113 78L112 77z"/>
<path style="fill:#caa2f6; stroke:none;" d="M22 78L23 79L22 78z"/>
<path style="fill:#a160ec; stroke:none;" d="M31 78L32 79L31 78M101 78L102 79L101 78M148 78L149 79L148 78z"/>
<path style="fill:#caa2f6; stroke:none;" d="M157 78L158 79L157 78z"/>
<path style="fill:#8c38e9; stroke:none;" d="M21 79L22 80L21 79z"/>
<path style="fill:#caa2f6; stroke:none;" d="M101 79L102 80L101 79z"/>
<path style="fill:#a160ec; stroke:none;" d="M111 79L112 80L111 79z"/>
<path style="fill:#8c38e9; stroke:none;" d="M158 79L159 80L158 79z"/>
<path style="fill:#caa2f6; stroke:none;" d="M30 80L31 81L30 80z"/>
<path style="fill:#a160ec; stroke:none;" d="M100 80L101 81L100 80z"/>
<path style="fill:#caa2f6; stroke:none;" d="M149 80L150 81L149 80M20 81L21 82L20 81z"/>
<path style="fill:#8c38e9; stroke:none;" d="M99 81L100 82L99 81z"/>
<path style="fill:#a160ec; stroke:none;" d="M110 81L111 82L110 81z"/>
<path style="fill:#caa2f6; stroke:none;" d="M159 81L160 82L159 81z"/>
<path style="fill:#a160ec; stroke:none;" d="M29 82L30 83L29 82M98 82L99 83L98 82z"/>
<path style="fill:#caa2f6; stroke:none;" d="M109 82L110 83L109 82z"/>
<path style="fill:#a160ec; stroke:none;" d="M150 82L151 83L150 82z"/>
<path style="fill:#caa2f6; stroke:none;" d="M160 82L161 83L160 82z"/>
<path style="fill:#a160ec; stroke:none;" d="M17 83L18 84L17 83z"/>
<path style="fill:#caa2f6; stroke:none;" d="M28 83L29 84L28 83z"/>
<path style="fill:#8c38e9; stroke:none;" d="M96 83L97 84L96 83z"/>
<path style="fill:#caa2f6; stroke:none;" d="M97 83L98 84L97 83M108 83L109 84L108 83M151 83L152 84L151 83z"/>
<path style="fill:#a160ec; stroke:none;" d="M162 83L163 84L162 83z"/>
<path style="fill:#8c38e9; stroke:none;" d="M15 84L16 85L15 84z"/>
<path style="fill:#caa2f6; stroke:none;" d="M16 84L17 85L16 84z"/>
<path style="fill:#8c38e9; stroke:none;" d="M28 84L29 85L28 84M93 84L94 85L93 84z"/>
<path style="fill:#a160ec; stroke:none;" d="M94 84L95 85L94 84z"/>
<path style="fill:#caa2f6; stroke:none;" d="M95 84L96 85L95 84z"/>
<path style="fill:#8c38e9; stroke:none;" d="M151 84L152 85L151 84z"/>
<path style="fill:#caa2f6; stroke:none;" d="M163 84L164 85L163 84z"/>
<path style="fill:#8c38e9; stroke:none;" d="M164 84L165 85L164 84M11 85L12 86L11 85z"/>
<path style="fill:#a160ec; stroke:none;" d="M12 85L13 86L12 85z"/>
<path style="fill:#caa2f6; stroke:none;" d="M13 85L14 86L13 85z"/>
<path style="fill:#a160ec; stroke:none;" d="M27 85L28 86L27 85z"/>
<path style="fill:#caa2f6; stroke:none;" d="M106 85L107 86L106 85z"/>
<path style="fill:#a160ec; stroke:none;" d="M152 85L153 86L152 85z"/>
<path style="fill:#caa2f6; stroke:none;" d="M166 85L167 86L166 85z"/>
<path style="fill:#a160ec; stroke:none;" d="M167 85L168 86L167 85z"/>
<path style="fill:#caa2f6; stroke:none;" d="M11 86L11 94L12 94L11 86z"/>
<path style="fill:#a160ec; stroke:none;" d="M26 86L27 87L26 86M105 86L106 87L105 86M153 86L154 87L153 86z"/>
<path style="fill:#caa2f6; stroke:none;" d="M168 86L168 94L169 94L168 86z"/>
<path style="fill:#a160ec; stroke:none;" d="M25 87L26 88L25 87z"/>
<path style="fill:#caa2f6; stroke:none;" d="M102 87L103 88L102 87z"/>
<path style="fill:#8c38e9; stroke:none;" d="M103 87L104 88L103 87z"/>
<path style="fill:#a160ec; stroke:none;" d="M154 87L155 88L154 87M24 88L25 89L24 88M101 88L102 89L101 88z"/>
<path style="fill:#8c38e9; stroke:none;" d="M102 88L103 89L102 88z"/>
<path style="fill:#a160ec; stroke:none;" d="M155 88L156 89L155 88z"/>
<path style="fill:#8c38e9; stroke:none;" d="M23 89L24 90L23 89z"/>
<path style="fill:#caa2f6; stroke:none;" d="M104 89L105 90L104 89z"/>
<path style="fill:#a160ec; stroke:none;" d="M105 89L106 90L105 89z"/>
<path style="fill:#8c38e9; stroke:none;" d="M156 89L157 90L156 89z"/>
<path style="fill:#caa2f6; stroke:none;" d="M23 90L24 91L23 90M107 90L108 91L107 90M156 90L157 91L156 90M24 91L25 92L24 91z"/>
<path style="fill:#a160ec; stroke:none;" d="M109 91L110 92L109 91z"/>
<path style="fill:#caa2f6; stroke:none;" d="M155 91L156 92L155 91M25 92L26 93L25 92M110 92L111 93L110 92M154 92L155 93L154 92M26 93L27 94L26 93M76 93L76 116L95 116L95 115L77 115L76 93z"/>
<path style="fill:#8c38e9; stroke:none;" d="M77 93L77 94L90 94L77 93z"/>
<path style="fill:#a160ec; stroke:none;" d="M90 93L90 94L94 94L90 93z"/>
<path style="fill:#caa2f6; stroke:none;" d="M94.6667 93.3333L95.3333 93.6667L94.6667 93.3333M111 93L112 94L111 93M153 93L154 94L153 93z"/>
<path style="fill:#8c38e9; stroke:none;" d="M13 94L14 95L13 94z"/>
<path style="fill:#caa2f6; stroke:none;" d="M14 94L15 95L14 94M27 94L28 95L27 94z"/>
<path style="fill:#7d0af7; stroke:none;" d="M77 94L77 115C83.7461 115 94.0257 116.907 99.956 113.142C106.69 108.866 106.418 98.54 98.9568 95.2284C92.7026 92.4526 83.7085 94 77 94z"/>
<path style="fill:#8c38e9; stroke:none;" d="M97 94L98 95L97 94z"/>
<path style="fill:#caa2f6; stroke:none;" d="M98 94L99 95L98 94z"/>
<path style="fill:#a160ec; stroke:none;" d="M112 94L113 95L112 94M152 94L153 95L152 94z"/>
<path style="fill:#caa2f6; stroke:none;" d="M165 94L166 95L165 94z"/>
<path style="fill:#8c38e9; stroke:none;" d="M166 94L167 95L166 94z"/>
<path style="fill:#a160ec; stroke:none;" d="M16 95L17 96L16 95M28 95L29 96L28 95M100 95L101 96L100 95z"/>
<path style="fill:#8c38e9; stroke:none;" d="M113 95L114 96L113 95z"/>
<path style="fill:#a160ec; stroke:none;" d="M151 95L152 96L151 95M163 95L164 96L163 95z"/>
<path style="fill:#caa2f6; stroke:none;" d="M18 96L19 97L18 96z"/>
<path style="fill:#8c38e9; stroke:none;" d="M101 96L102 97L101 96z"/>
<path style="fill:#caa2f6; stroke:none;" d="M161 96L162 97L161 96M19 97L20 98L19 97M29 97L30 98L29 97z"/>
<path style="fill:#a160ec; stroke:none;" d="M114 97L115 98L114 97z"/>
<path style="fill:#caa2f6; stroke:none;" d="M150 97L151 98L150 97z"/>
<path style="fill:#a160ec; stroke:none;" d="M160 97L161 98L160 97z"/>
<path style="fill:#caa2f6; stroke:none;" d="M20 98L21 99L20 98z"/>
<path style="fill:#8c38e9; stroke:none;" d="M30 98L31 99L30 98M103 98L104 99L103 98M149 98L150 99L149 98z"/>
<path style="fill:#a160ec; stroke:none;" d="M159 98L160 99L159 98z"/>
<path style="fill:#caa2f6; stroke:none;" d="M21 99L22 100L21 99M30 99L31 100L30 99M104 99L105 100L104 99z"/>
<path style="fill:#8c38e9; stroke:none;" d="M115 99L116 100L115 99z"/>
<path style="fill:#caa2f6; stroke:none;" d="M149 99L150 100L149 99M158 99L159 100L158 99z"/>
<path style="fill:#8c38e9; stroke:none;" d="M31 100L32 101L31 100M104 100L105 101L104 100z"/>
<path style="fill:#a160ec; stroke:none;" d="M115 100L116 101L115 100z"/>
<path style="fill:#8c38e9; stroke:none;" d="M148 100L149 101L148 100z"/>
<path style="fill:#a160ec; stroke:none;" d="M22 101L23 102L22 101z"/>
<path style="fill:#caa2f6; stroke:none;" d="M31 101L32 102L31 101M115 101L116 102L115 101M148 101L149 102L148 101z"/>
<path style="fill:#a160ec; stroke:none;" d="M157 101L158 102L157 101z"/>
<path style="fill:#caa2f6; stroke:none;" d="M23 102L24 103L23 102M105 102L105 107L106 107L105 102M156 102L157 103L156 102z"/>
<path style="fill:#8c38e9; stroke:none;" d="M23 103L24 104L23 103z"/>
<path style="fill:#a160ec; stroke:none;" d="M32 103L33 104L32 103M147 103L148 104L147 103z"/>
<path style="fill:#8c38e9; stroke:none;" d="M156 103L157 104L156 103z"/>
<path style="fill:#caa2f6; stroke:none;" d="M24 104L25 105L24 104M32 104L33 105L32 104M147 104L148 105L147 104M155 104L156 105L155 104z"/>
<path style="fill:#a160ec; stroke:none;" d="M24 105L25 106L24 105z"/>
<path style="fill:#8c38e9; stroke:none;" d="M33 105L34 106L33 105M146 105L147 106L146 105z"/>
<path style="fill:#a160ec; stroke:none;" d="M155 105L156 106L155 105M33 106L34 107L33 106M146 106L147 107L146 106z"/>
<path style="fill:#caa2f6; stroke:none;" d="M25 107L26 108L25 107M33 107L34 108L33 107M146 107L147 108L146 107M154 107L155 108L154 107z"/>
<path style="fill:#8c38e9; stroke:none;" d="M25 108L26 109L25 108z"/>
<path style="fill:#a160ec; stroke:none;" d="M104 108L105 109L104 108z"/>
<path style="fill:#caa2f6; stroke:none;" d="M115.333 108.667L115.667 109.333L115.333 108.667z"/>
<path style="fill:#8c38e9; stroke:none;" d="M154 108L155 109L154 108z"/>
<path style="fill:#a160ec; stroke:none;" d="M34 109L35 110L34 109z"/>
<path style="fill:#caa2f6; stroke:none;" d="M104 109L105 110L104 109z"/>
<path style="fill:#a160ec; stroke:none;" d="M145 109L146 110L145 109z"/>
<path style="fill:#caa2f6; stroke:none;" d="M26 110L27 111L26 110M34.3333 110.667L34.6667 111.333L34.3333 110.667z"/>
<path style="fill:#a160ec; stroke:none;" d="M103 110L104 111L103 110M115 110L116 111L115 110z"/>
<path style="fill:#caa2f6; stroke:none;" d="M145.333 110.667L145.667 111.333L145.333 110.667M153 110L154 111L153 110z"/>
<path style="fill:#a160ec; stroke:none;" d="M26 111L27 112L26 111z"/>
<path style="fill:#8c38e9; stroke:none;" d="M102 111L103 112L102 111z"/>
<path style="fill:#a160ec; stroke:none;" d="M153 111L154 112L153 111z"/>
<path style="fill:#8c38e9; stroke:none;" d="M26 112L27 113L26 112M101 112L102 113L101 112z"/>
<path style="fill:#caa2f6; stroke:none;" d="M114 112L115 113L114 112z"/>
<path style="fill:#8c38e9; stroke:none;" d="M153 112L154 113L153 112M35 113L36 114L35 113z"/>
<path style="fill:#caa2f6; stroke:none;" d="M100 113L101 114L100 113z"/>
<path style="fill:#8c38e9; stroke:none;" d="M114 113L115 114L114 113M144 113L145 114L144 113z"/>
<path style="fill:#caa2f6; stroke:none;" d="M27.3333 114.667L27.6667 115.333L27.3333 114.667z"/>
<path style="fill:#a160ec; stroke:none;" d="M35.3333 114.667L35.6667 115.333L35.3333 114.667M97 114L98 115L97 114z"/>
<path style="fill:#caa2f6; stroke:none;" d="M98 114L99 115L98 114M113 114L114 115L113 114z"/>
<path style="fill:#a160ec; stroke:none;" d="M144.333 114.667L144.667 115.333L144.333 114.667z"/>
<path style="fill:#caa2f6; stroke:none;" d="M152.333 114.667L152.667 115.333L152.333 114.667z"/>
<path style="fill:#8c38e9; stroke:none;" d="M113 115L114 116L113 115z"/>
<path style="fill:#a160ec; stroke:none;" d="M27.3333 116.667L27.6667 117.333L27.3333 116.667z"/>
<path style="fill:#caa2f6; stroke:none;" d="M35.3333 116.667L35.6667 117.333L35.3333 116.667z"/>
<path style="fill:#a160ec; stroke:none;" d="M112 116L113 117L112 116z"/>
<path style="fill:#caa2f6; stroke:none;" d="M144.333 116.667L144.667 117.333L144.333 116.667z"/>
<path style="fill:#a160ec; stroke:none;" d="M152 116L153 117L152 116M111 117L112 118L111 117z"/>
<path style="fill:#8c38e9; stroke:none;" d="M152.333 117.667L152.667 118.333L152.333 117.667M27 118L28 119L27 118z"/>
<path style="fill:#a160ec; stroke:none;" d="M110 118L111 119L110 118z"/>
<path style="fill:#8c38e9; stroke:none;" d="M109 119L110 120L109 119z"/>
<path style="fill:#caa2f6; stroke:none;" d="M107 120L108 121L107 120z"/>
<path style="fill:#8c38e9; stroke:none;" d="M36.3333 121.667L36.6667 122.333L36.3333 121.667z"/>
<path style="fill:#caa2f6; stroke:none;" d="M105 121L106 122L105 121z"/>
<path style="fill:#8c38e9; stroke:none;" d="M106 121L107 122L106 121M143.333 121.667L143.667 122.333L143.333 121.667z"/>
<path style="fill:#caa2f6; stroke:none;" d="M151 121L151 126L152 126L151 121M28 122L28 127L29 127L28 122M102 122L103 123L102 122z"/>
<path style="fill:#a160ec; stroke:none;" d="M103 122L104 123L103 122M36 123L36 128L37 128L36 123z"/>
<path style="fill:#caa2f6; stroke:none;" d="M66 123L67 124L66 123M97.6667 123.333L98.3333 123.667L97.6667 123.333z"/>
<path style="fill:#a160ec; stroke:none;" d="M99.6667 123.333L100.333 123.667L99.6667 123.333M143 123L143 128L144 128L143 123M151 126L151 139L152 139L151 126M28 127L28 139L29 139L28 127z"/>
<path style="fill:#caa2f6; stroke:none;" d="M36 128L36 139L37 139L36 128M143 128L143 135L144 135L143 128z"/>
<path style="fill:#a160ec; stroke:none;" d="M143 135L144 136L143 135z"/>
<path style="fill:#caa2f6; stroke:none;" d="M143 136L143 139L144 139L143 136z"/>
<path style="fill:#8c38e9; stroke:none;" d="M28 139L29 140L28 139M151 139L152 140L151 139z"/>
<path style="fill:#caa2f6; stroke:none;" d="M37 140L38 141L37 140M142 140L143 141L142 140M29 141L30 142L29 141z"/>
<path style="fill:#8c38e9; stroke:none;" d="M38 141L39 142L38 141M141 141L142 142L141 141z"/>
<path style="fill:#caa2f6; stroke:none;" d="M150 141L151 142L150 141z"/>
<path style="fill:#8c38e9; stroke:none;" d="M29 142L30 143L29 142z"/>
<path style="fill:#a160ec; stroke:none;" d="M39 142L40 143L39 142M140 142L141 143L140 142z"/>
<path style="fill:#8c38e9; stroke:none;" d="M150 142L151 143L150 142z"/>
<path style="fill:#caa2f6; stroke:none;" d="M30 143L31 144L30 143M40 143L41 144L40 143z"/>
<path style="fill:#8c38e9; stroke:none;" d="M41 143L42 144L41 143M138 143L139 144L138 143z"/>
<path style="fill:#caa2f6; stroke:none;" d="M139 143L140 144L139 143M149 143L150 144L149 143z"/>
<path style="fill:#a160ec; stroke:none;" d="M30 144L31 145L30 144z"/>
<path style="fill:#caa2f6; stroke:none;" d="M42 144L42 145L138 145L109 144L42 144z"/>
<path style="fill:#8c38e9; stroke:none;" d="M149 144L150 145L149 144z"/>
<path style="fill:#caa2f6; stroke:none;" d="M31 145L32 146L31 145M148 145L149 146L148 145M32 146L33 147L32 146M147 146L148 147L147 146z"/>
<path style="fill:#8c38e9; stroke:none;" d="M32 147L33 148L32 147M147 147L148 148L147 147M33 148L34 149L33 148M146 148L147 149L146 148z"/>
<path style="fill:#caa2f6; stroke:none;" d="M35 149L36 150L35 149M144 149L145 150L144 149z"/>
<path style="fill:#a160ec; stroke:none;" d="M36 150L37 151L36 150z"/>
<path style="fill:#caa2f6; stroke:none;" d="M37 150L38 151L37 150M142 150L143 151L142 150z"/>
<path style="fill:#a160ec; stroke:none;" d="M143 150L144 151L143 150z"/>
<path style="fill:#8c38e9; stroke:none;" d="M38 151L39 152L38 151z"/>
<path style="fill:#caa2f6; stroke:none;" d="M39 151L40 152L39 151M140 151L141 152L140 151z"/>
<path style="fill:#8c38e9; stroke:none;" d="M141 151L142 152L141 151M42 152L42 153L138 153L109 152L42 152z"/>
</svg>
