<?xml version="1.0" encoding="UTF-8"?>
<svg version="1.1" xmlns="http://www.w3.org/2000/svg" width="225" height="225">
<path d="M0 0 C2.10011092 -0.00959722 4.19919486 -0.04061788 6.29907227 -0.07226562 C19.33836081 -0.17683781 31.58572445 1.79787566 43.69946289 6.86523438 C44.543396 7.21368408 45.3873291 7.56213379 46.25683594 7.92114258 C72.8817772 19.23894771 94.83317909 40.1686224 106.32470703 66.94384766 C118.1342062 96.22340698 117.99999868 128.15746534 105.69946289 157.24023438 C93.19646486 185.42754883 70.10357478 204.86240606 42.17211914 216.74023438 C16.00178891 226.81266388 -14.48277402 226.12369061 -40.30053711 215.24023438 C-50.86201264 210.4373473 -60.33842678 204.61766249 -69.30053711 197.24023438 C-70.07526367 196.62921875 -70.84999023 196.01820313 -71.64819336 195.38867188 C-93.24038269 177.49038442 -106.07327075 149.41103746 -108.92553711 121.88476562 C-111.56043066 92.79613964 -102.43088364 63.10318195 -84.02709961 40.43945312 C-75.93195705 30.79748673 -67.12089788 22.79233563 -56.30053711 16.24023438 C-55.67050781 15.85738281 -55.04047852 15.47453125 -54.39135742 15.08007812 C-37.4125741 4.97782708 -19.71357684 0.05421403 0 0 Z " fill="#652A7A" transform="translate(109.300537109375,0.759765625)"/>
<path d="M0 0 C2.10011092 -0.00959722 4.19919486 -0.04061788 6.29907227 -0.07226562 C19.33836081 -0.17683781 31.58572445 1.79787566 43.69946289 6.86523438 C44.543396 7.21368408 45.3873291 7.56213379 46.25683594 7.92114258 C72.8817772 19.23894771 94.83317909 40.1686224 106.32470703 66.94384766 C118.1342062 96.22340698 117.99999868 128.15746534 105.69946289 157.24023438 C93.19646486 185.42754883 70.10357478 204.86240606 42.17211914 216.74023438 C16.00178891 226.81266388 -14.48277402 226.12369061 -40.30053711 215.24023438 C-50.86201264 210.4373473 -60.33842678 204.61766249 -69.30053711 197.24023438 C-70.07526367 196.62921875 -70.84999023 196.01820313 -71.64819336 195.38867188 C-93.24038269 177.49038442 -106.07327075 149.41103746 -108.92553711 121.88476562 C-111.56043066 92.79613964 -102.43088364 63.10318195 -84.02709961 40.43945312 C-75.93195705 30.79748673 -67.12089788 22.79233563 -56.30053711 16.24023438 C-55.67050781 15.85738281 -55.04047852 15.47453125 -54.39135742 15.08007812 C-37.4125741 4.97782708 -19.71357684 0.05421403 0 0 Z M-37.30053711 23.24023438 C-37.30053711 23.90023438 -37.30053711 24.56023438 -37.30053711 25.24023438 C-38.01725586 25.34078125 -38.73397461 25.44132812 -39.47241211 25.54492188 C-55.43732514 29.46999718 -70.79857239 47.06411259 -79.30053711 60.24023438 C-80.33741525 62.2213663 -81.33866496 64.2216205 -82.30053711 66.24023438 C-82.71174805 67.10003906 -83.12295898 67.95984375 -83.54663086 68.84570312 C-90.67678071 84.29825739 -93.42326006 98.1383216 -93.61303711 115.11523438 C-93.63076172 116.0778418 -93.64848633 117.04044922 -93.66674805 118.03222656 C-93.66018267 124.363443 -92.56148811 129.36021847 -90.30053711 135.24023438 C-89.94733398 136.41585937 -89.59413086 137.59148437 -89.23022461 138.80273438 C-82.69821487 160.09224761 -71.09805944 174.94954526 -54.38647461 189.40820312 C-52.30053711 191.24023437 -52.30053711 191.24023437 -50.58959961 193.29101562 C-47.78095182 195.68267987 -45.20848862 196.43277853 -41.71313477 197.48974609 C-39.38210795 198.21486008 -37.16135918 199.06230626 -34.90600586 199.99414062 C-34.17704102 200.29126953 -33.44807617 200.58839844 -32.69702148 200.89453125 C-31.2329967 201.49645126 -29.77198402 202.10575414 -28.31420898 202.72265625 C-17.70118356 207.00707021 -6.83055581 207.63000834 4.51196289 207.61523438 C5.73939209 207.61434814 6.96682129 207.61346191 8.23144531 207.61254883 C20.33000827 207.4547171 29.61581455 205.05536553 40.69946289 200.24023438 C41.52188477 199.94117188 42.34430664 199.64210937 43.19165039 199.33398438 C46.64756832 197.82673045 49.68222724 195.81080229 52.82446289 193.74023438 C53.44450195 193.33675781 54.06454102 192.93328125 54.70336914 192.51757812 C57.37919283 190.77397688 60.04208932 189.01181676 62.69946289 187.24023438 C62.69946289 186.58023438 62.69946289 185.92023438 62.69946289 185.24023438 C63.41102539 185.02625 64.12258789 184.81226563 64.85571289 184.59179688 C68.403803 182.90547933 70.64256737 180.50954751 73.19946289 177.61523438 C73.68286133 177.07979004 74.16625977 176.5443457 74.66430664 175.99267578 C78.20346204 171.99673914 80.97707641 167.83426157 83.69946289 163.24023438 C84.68946289 162.58023438 85.67946289 161.92023438 86.69946289 161.24023438 C87.45406324 159.60526696 88.20826443 157.96739228 88.85571289 156.28710938 C89.69946289 154.24023437 89.69946289 154.24023437 91.09399414 151.57617188 C100.90243261 131.1956209 102.17878403 105.84668027 95.69946289 84.24023438 C95.35915039 83.08136719 95.01883789 81.9225 94.66821289 80.72851562 C89.19387251 63.91711222 80.10310802 52.44721154 67.69946289 40.24023438 C67.18996094 39.73492187 66.68045898 39.22960937 66.15551758 38.70898438 C61.22766465 33.87385063 57.12646004 30.86168263 50.69946289 28.24023438 C47.66573828 26.77498553 44.67761354 25.21863 41.68579102 23.66992188 C36.85900476 21.21149287 33.33578945 20.09852369 27.94946289 20.17773438 C26.75063477 20.19126953 26.75063477 20.19126953 25.52758789 20.20507812 C24.62266602 20.22248047 24.62266602 20.22248047 23.69946289 20.24023438 C23.69946289 19.58023437 23.69946289 18.92023437 23.69946289 18.24023438 C4.55892931 12.43512736 -19.07909904 15.34673691 -37.30053711 23.24023438 Z " fill="#07A0DF" transform="translate(109.300537109375,0.759765625)"/>
<path d="M0 0 C1.32 0 2.64 0 4 0 C4 0.99 4 1.98 4 3 C4.99 3.33 5.98 3.66 7 4 C7 4.66 7 5.32 7 6 C6.01 6 5.02 6 4 6 C4 10.62 4 15.24 4 20 C4.99 20 5.98 20 7 20 C7 16.04 7 12.08 7 8 C9 12 9 12 9.375 14.5 C9.75629007 17.14688508 9.75629007 17.14688508 12.00097656 18.48925781 C15.18849851 22.49273554 14.60330864 26.69776019 14.609375 31.671875 C14.62591125 32.70942932 14.64244751 33.74698364 14.65948486 34.815979 C14.70803985 38.1273791 14.72935302 41.43831971 14.75 44.75 C14.77815332 46.99611696 14.80807984 49.24221245 14.83984375 51.48828125 C14.91380062 56.99210387 14.9653992 62.49579687 15 68 C12.40584774 64.83709329 10.04413189 61.6512468 7.86328125 58.19140625 C7.00404053 56.83245239 7.00404053 56.83245239 6.12744141 55.44604492 C5.52851074 54.4944751 4.92958008 53.54290527 4.3125 52.5625 C3.37929932 51.09937378 3.37929932 51.09937378 2.42724609 49.60668945 C-0.33503672 45.26999849 -3.06860094 40.93148144 -5.63671875 36.4765625 C-6.21450073 35.5009436 -6.21450073 35.5009436 -6.80395508 34.50561523 C-7.80255553 32.81047561 -8.77350831 31.09913279 -9.7421875 29.38671875 C-12.38007424 26.09177715 -12.38007424 26.09177715 -20 26 C-20 42.5 -20 59 -20 76 C-20.33 76 -20.66 76 -21 76 C-21 59.83 -21 43.66 -21 27 C-21.99 27.33 -22.98 27.66 -24 28 C-23.6875 26.0625 -23.6875 26.0625 -23 24 C-22.01 23.67 -21.02 23.34 -20 23 C-17.65229357 19.47844036 -17.62330386 17.49228157 -17.375 13.3125 C-17.26285156 11.54326172 -17.26285156 11.54326172 -17.1484375 9.73828125 C-17.09945312 8.83464844 -17.05046875 7.93101563 -17 7 C-14.69649577 9.81324326 -13.38367283 12.28144037 -12.3125 15.75 C-12.06113281 16.54921875 -11.80976562 17.3484375 -11.55078125 18.171875 C-11.36902344 18.77515625 -11.18726563 19.3784375 -11 20 C-10.34 20 -9.68 20 -9 20 C-8.81824219 19.39671875 -8.63648437 18.7934375 -8.44921875 18.171875 C-8.19785156 17.37265625 -7.94648437 16.5734375 -7.6875 15.75 C-7.44386719 14.96109375 -7.20023438 14.1721875 -6.94921875 13.359375 C-6 11 -6 11 -3 7 C-3 11.29 -3 15.58 -3 20 C-2.01 20 -1.02 20 0 20 C0 13.4 0 6.8 0 0 Z " fill="#652978" transform="translate(73,74)"/>
<path d="M0 0 C8 0 8 0 10.109375 1.95703125 C10.65078125 2.89933594 11.1921875 3.84164062 11.75 4.8125 C12.40226562 5.89789063 13.05453125 6.98328125 13.7265625 8.1015625 C14.08137695 8.71547852 14.43619141 9.32939453 14.80175781 9.96191406 C16.64034405 13.08915894 18.59730728 16.13919011 20.54394531 19.19995117 C22.49235152 22.26547168 24.41882222 25.34455904 26.34423828 28.42456055 C28.8459303 32.31579456 31.43393956 36.15090934 34 40 C34.33 26.8 34.66 13.6 35 0 C36.98 0 38.96 0 41 0 C41 16.5 41 33 41 50 C33 50 33 50 30.93359375 48.19921875 C30.43988281 47.37035156 29.94617188 46.54148438 29.4375 45.6875 C28.57705078 44.30304688 28.57705078 44.30304688 27.69921875 42.890625 C27.13847656 41.93671875 26.57773438 40.9828125 26 40 C24.92119128 38.30960386 23.83777961 36.62213731 22.75 34.9375 C21.90308594 33.59171875 21.90308594 33.59171875 21.0390625 32.21875 C17.94832507 27.33988478 14.79450193 22.50200683 11.64355469 17.66186523 C11.18625977 16.95747314 10.72896484 16.25308105 10.2578125 15.52734375 C9.8467627 14.89562256 9.43571289 14.26390137 9.01220703 13.61303711 C8 12 8 12 7 10 C6.67 23.2 6.34 36.4 6 50 C4.02 50 2.04 50 0 50 C0 33.5 0 17 0 0 Z " fill="#F5ECF7" transform="translate(53,100)"/>
<path d="M0 0 C8.25 0 16.5 0 25 0 C25 1.98 25 3.96 25 6 C18.73 6 12.46 6 6 6 C6 11.28 6 16.56 6 22 C11.94 22 17.88 22 24 22 C24 23.98 24 25.96 24 28 C18.06 28 12.12 28 6 28 C6 33.61 6 39.22 6 45 C12.6 45 19.2 45 26 45 C26 46.65 26 48.3 26 50 C17.42 50 8.84 50 0 50 C0 33.5 0 17 0 0 Z " fill="#F8F1F9" transform="translate(105,100)"/>
<path d="M0 0 C11.55 0 23.1 0 35 0 C35 1.98 35 3.96 35 6 C30.05 6 25.1 6 20 6 C20 20.52 20 35.04 20 50 C18.02 50 16.04 50 14 50 C14 35.48 14 20.96 14 6 C9.38 6 4.76 6 0 6 C0 4.02 0 2.04 0 0 Z " fill="#F6EEF8" transform="translate(137,100)"/>
<path d="M0 0 C0 0.66 0 1.32 0 2 C-1.32 2.33 -2.64 2.66 -4 3 C-4 3.66 -4 4.32 -4 5 C-1.53673288 6.6446674 -1.53673288 6.6446674 1 8 C0.67 9.98 0.34 11.96 0 14 C1.65 13.67 3.3 13.34 5 13 C4.34 12.01 3.68 11.02 3 10 C2.53844631 6.38449608 2.54593117 4.66363906 4.625 1.625 C7.71186432 -0.48706506 9.3282913 -0.61195145 13 0 C15.4375 1.5 15.4375 1.5 17 4 C17.46886553 6.97151143 17.26623439 9.25930601 16 12 C12.46182275 14.81610026 8.34924104 15.99332174 4 17 C5.98 17.66 7.96 18.32 10 19 C9.67 21.31 9.34 23.62 9 26 C8.34 25.01 7.68 24.02 7 23 C6.01 23.33 5.02 23.66 4 24 C3.34 23.34 2.68 22.68 2 22 C2 21.01 2 20.02 2 19 C0.02 18.67 -1.96 18.34 -4 18 C-3.67 17.34 -3.34 16.68 -3 16 C-4.32 15.34 -5.64 14.68 -7 14 C-7 13.34 -7 12.68 -7 12 C-5.35 12 -3.7 12 -2 12 C-2 11.01 -2 10.02 -2 9 C-2.804375 8.7525 -3.60875 8.505 -4.4375 8.25 C-7 7 -7 7 -8 5.0625 C-8 3 -8 3 -6.875 1.25 C-4.46145349 -0.35903101 -2.84326464 -0.23053497 0 0 Z " fill="#E7D3EC" transform="translate(128,80)"/>
<path d="M0 0 C1.32 0.66 2.64 1.32 4 2 C-20.09513751 20.53472116 -49.36550466 27.77347414 -79.42285156 24.75683594 C-88.52840367 23.53766568 -97.31390195 20.93007075 -106 18 C-99.28111326 15.9023194 -91.394363 17.40769067 -85 20 C-85 20.66 -85 21.32 -85 22 C-71.14 22 -57.28 22 -43 22 C-43 21.34 -43 20.68 -43 20 C-39.65943438 18.74728789 -36.53588997 17.87398836 -33 17.5 C-29.44055411 17.09768715 -26.29451017 16.49037365 -23 15 C-22.7215625 14.33097656 -22.443125 13.66195312 -22.15625 12.97265625 C-21.58390625 11.99619141 -21.58390625 11.99619141 -21 11 C-18.6171875 10.390625 -18.6171875 10.390625 -15.875 10.25 C-14.50988281 10.16492188 -14.50988281 10.16492188 -13.1171875 10.078125 C-12.41851562 10.05234375 -11.71984375 10.0265625 -11 10 C-11 9.34 -11 8.68 -11 8 C-8.69 7.34 -6.38 6.68 -4 6 C-4 5.01 -4 4.02 -4 3 C-2.68 3 -1.36 3 0 3 C0 2.01 0 1.02 0 0 Z " fill="#35A8D4" transform="translate(177,199)"/>
<path d="M0 0 C2.31 0 4.62 0 7 0 C7.33 0.99 7.66 1.98 8 3 C8.350625 2.505 8.70125 2.01 9.0625 1.5 C12.05072823 -0.81346701 14.34503841 -0.4568702 18 0 C20.85609317 2.89603853 21.42487406 5.25808574 21.6875 9.25 C21.78611328 10.58804688 21.78611328 10.58804688 21.88671875 11.953125 C21.92410156 12.62859375 21.96148437 13.3040625 22 14 C20.0636296 14.50435694 18.12585854 15.00333874 16.1875 15.5 C15.10855469 15.7784375 14.02960938 16.056875 12.91796875 16.34375 C10 17 10 17 7 17 C7.309375 16.071875 7.309375 16.071875 7.625 15.125 C7.74875 14.42375 7.8725 13.7225 8 13 C7.34 12.34 6.68 11.68 6 11 C5.875 7.375 5.875 7.375 6 4 C5.01 4 4.02 4 3 4 C2.67 7.3 2.34 10.6 2 14 C1.34 14 0.68 14 0 14 C0 9.38 0 4.76 0 0 Z " fill="#F4E1F7" transform="translate(97,80)"/>
<path d="M0 0 C0.99 0 1.98 0 3 0 C3.78670772 2.78054651 4.12265947 5.23960693 4.11352539 8.12597656 C4.11341209 9.32676849 4.11341209 9.32676849 4.11329651 10.55181885 C4.10813522 11.40612488 4.10297394 12.26043091 4.09765625 13.140625 C4.0962413 14.02280701 4.09482635 14.90498901 4.09336853 15.81390381 C4.08778001 18.62597065 4.07522961 21.4379573 4.0625 24.25 C4.05748352 26.15885302 4.05292087 28.06770728 4.04882812 29.9765625 C4.03781434 34.65107247 4.02055758 39.32552265 4 44 C2.35 44 0.7 44 -1 44 C-1.02464513 37.8944529 -1.04283371 31.78893449 -1.05493164 25.68334961 C-1.05997288 23.60456844 -1.06680574 21.52579084 -1.07543945 19.44702148 C-1.08751422 16.46597414 -1.09323024 13.48497351 -1.09765625 10.50390625 C-1.10539818 9.10078941 -1.10539818 9.10078941 -1.11329651 7.66932678 C-1.11337204 6.80850998 -1.11344757 5.94769318 -1.11352539 5.06079102 C-1.115746 4.29912125 -1.11796661 3.53745148 -1.12025452 2.75270081 C-1 1 -1 1 0 0 Z " fill="#FEFAFD" transform="translate(55,106)"/>
<path d="M0 0 C2.0625 0.4375 2.0625 0.4375 4 1 C3.01 1.495 3.01 1.495 2 2 C1.34786708 4.02463255 1.34786708 4.02463255 1 6 C2.98 6 4.96 6 7 6 C7.33 4.68 7.66 3.36 8 2 C8.33 3.32 8.66 4.64 9 6 C10.32 6 11.64 6 13 6 C13 6.66 13 7.32 13 8 C12.01 8 11.02 8 10 8 C10 11.3 10 14.6 10 18 C10.99 18 11.98 18 13 18 C13 18.66 13 19.32 13 20 C6.84765625 20.87890625 6.84765625 20.87890625 5 21 C4.67 20.67 4.34 20.34 4 20 C2.02 20 0.04 20 -2 20 C-2 16.04 -2 12.08 -2 8 C-2.66 8 -3.32 8 -4 8 C-4 7.34 -4 6.68 -4 6 C-3.34 6 -2.68 6 -2 6 C-1.855625 5.195625 -1.71125 4.39125 -1.5625 3.5625 C-1 1 -1 1 0 0 Z " fill="#511A62" transform="translate(150,74)"/>
<path d="M0 0 C1.32 0 2.64 0 4 0 C4.84026396 1.76755526 5.67198722 3.53917263 6.5 5.3125 C6.9640625 6.29863281 7.428125 7.28476563 7.90625 8.30078125 C9 11 9 11 9 14 C9.66 14 10.32 14 11 14 C11.0825 13.360625 11.165 12.72125 11.25 12.0625 C12.29520372 7.79458483 14.14091826 3.96892333 16 0 C17.32 0 18.64 0 20 0 C20 6.27 20 12.54 20 19 C19.01 19 18.02 19 17 19 C16.67 15.37 16.34 11.74 16 8 C14.35 11.63 12.7 15.26 11 19 C10.34 19 9.68 19 9 19 C7.35 15.7 5.7 12.4 4 9 C3.67 12.3 3.34 15.6 3 19 C2.01 19 1.02 19 0 19 C0 12.73 0 6.46 0 0 Z " fill="#D9C4DF" transform="translate(53,75)"/>
<path d="M0 0 C8.25 0 16.5 0 25 0 C25 1.98 25 3.96 25 6 C18.73 6 12.46 6 6 6 C6 11.28 6 16.56 6 22 C5.67 22 5.34 22 5 22 C4.34 17.38 3.68 12.76 3 8 C2.67 8.66 2.34 9.32 2 10 C1.34 10 0.68 10 0 10 C0 6.7 0 3.4 0 0 Z " fill="#F2E7F4" transform="translate(105,100)"/>
<path d="M0 0 C10.56 0 21.12 0 32 0 C32 0.66 32 1.32 32 2 C33.9490625 1.87625 33.9490625 1.87625 35.9375 1.75 C41.30924641 1.71589367 45.3175455 3.52040234 50 6 C46.87819599 6.96661363 44.47916205 6.98988909 41.25 6.5625 C40.05117187 6.40974609 40.05117187 6.40974609 38.828125 6.25390625 C38.22484375 6.17011719 37.6215625 6.08632813 37 6 C37 5.34 37 4.68 37 4 C17.80134837 1.1470944 -0.43839255 2.71286868 -19 8 C-19.66 8 -20.32 8 -21 8 C-21 7.34 -21 6.68 -21 6 C-19.35 6 -17.7 6 -16 6 C-16 5.34 -16 4.68 -16 4 C-14.02 4 -12.04 4 -10 4 C-10 3.34 -10 2.68 -10 2 C-6.7 2 -3.4 2 0 2 C0 1.34 0 0.68 0 0 Z " fill="#2290D1" transform="translate(96,15)"/>
<path d="M0 0 C0 0.66 0 1.32 0 2 C-1.32 2.33 -2.64 2.66 -4 3 C-4 3.66 -4 4.32 -4 5 C-1.53673288 6.6446674 -1.53673288 6.6446674 1 8 C0.67 9.98 0.34 11.96 0 14 C3.63 14 7.26 14 11 14 C8.38058783 15.74627478 6.96175123 16.38722388 4 17 C5.98 17.66 7.96 18.32 10 19 C9.67 21.31 9.34 23.62 9 26 C8.34 25.01 7.68 24.02 7 23 C6.01 23.33 5.02 23.66 4 24 C3.34 23.34 2.68 22.68 2 22 C2 21.01 2 20.02 2 19 C0.02 18.67 -1.96 18.34 -4 18 C-3.67 17.34 -3.34 16.68 -3 16 C-4.32 15.34 -5.64 14.68 -7 14 C-7 13.34 -7 12.68 -7 12 C-5.35 12 -3.7 12 -2 12 C-2 11.01 -2 10.02 -2 9 C-2.804375 8.7525 -3.60875 8.505 -4.4375 8.25 C-7 7 -7 7 -8 5.0625 C-8 3 -8 3 -6.875 1.25 C-4.46145349 -0.35903101 -2.84326464 -0.23053497 0 0 Z " fill="#6C3280" transform="translate(128,80)"/>
<path d="M0 0 C0.66 0 1.32 0 2 0 C5.10061017 20.80409405 3.34668858 41.30938289 -4 61 C-4.33 61 -4.66 61 -5 61 C-4.88613541 58.22829605 -4.75939222 55.45821954 -4.625 52.6875 C-4.5940625 51.90181641 -4.563125 51.11613281 -4.53125 50.30664062 C-4.49257812 49.54931641 -4.45390625 48.79199219 -4.4140625 48.01171875 C-4.3826416 47.31522217 -4.3512207 46.61872559 -4.31884766 45.90112305 C-4 44 -4 44 -2 41 C-1.34 41 -0.68 41 0 41 C0 27.47 0 13.94 0 0 Z " fill="#36A8D5" transform="translate(221,92)"/>
<path d="M0 0 C3.06368776 3.81030074 4.3944535 7.41272428 6 12 C5.67 12.33 5.34 12.66 5 13 C4.63557767 14.66014616 4.30027117 16.32706064 4 18 C2.02 18.33 0.04 18.66 -2 19 C-2.33 35.5 -2.66 52 -3 69 C-3.33 69 -3.66 69 -4 69 C-4 52.83 -4 36.66 -4 20 C-4.99 20.33 -5.98 20.66 -7 21 C-6.6875 19.0625 -6.6875 19.0625 -6 17 C-5.01 16.67 -4.02 16.34 -3 16 C-0.65229357 12.47844036 -0.62330386 10.49228157 -0.375 6.3125 C-0.26285156 4.54326172 -0.26285156 4.54326172 -0.1484375 2.73828125 C-0.09945312 1.83464844 -0.05046875 0.93101563 0 0 Z " fill="#551C68" transform="translate(56,81)"/>
<path d="M0 0 C0.8353125 0.7734375 0.8353125 0.7734375 1.6875 1.5625 C3.0075 0.9025 4.3275 0.2425 5.6875 -0.4375 C6.3475 0.2225 7.0075 0.8825 7.6875 1.5625 C8.6775 2.2225 9.6675 2.8825 10.6875 3.5625 C10.02251617 7.95139325 8.49992323 11.5436485 6.6875 15.5625 C6.0275 15.5625 5.3675 15.5625 4.6875 15.5625 C3.84985732 13.60600603 3.01750941 11.64724444 2.1875 9.6875 C1.7234375 8.59695312 1.259375 7.50640625 0.78125 6.3828125 C-0.3125 3.5625 -0.3125 3.5625 -0.3125 1.5625 C-1.6325 1.5625 -2.9525 1.5625 -4.3125 1.5625 C-4.3125 7.8325 -4.3125 14.1025 -4.3125 20.5625 C-4.6425 20.5625 -4.9725 20.5625 -5.3125 20.5625 C-5.3125 14.6225 -5.3125 8.6825 -5.3125 2.5625 C-5.9725 2.2325 -6.6325 1.9025 -7.3125 1.5625 C-7.3125 0.9025 -7.3125 0.2425 -7.3125 -0.4375 C-2.88173077 -1.79134615 -2.88173077 -1.79134615 0 0 Z " fill="#5C266D" transform="translate(57.3125,73.4375)"/>
<path d="M0 0 C2.15482626 -0.00217708 4.30913186 -0.02034063 6.46386719 -0.03930664 C13.97525874 -0.06891748 21.11795072 0.23717626 28.42480469 2.18530273 C28.42480469 2.51530273 28.42480469 2.84530273 28.42480469 3.18530273 C27.19963135 3.1748291 25.97445801 3.16435547 24.7121582 3.15356445 C20.13308678 3.11715296 15.55402797 3.09432576 10.97485352 3.07543945 C8.99924563 3.06542984 7.02365237 3.05181805 5.0480957 3.03442383 C2.19576386 3.00995265 -0.65637078 2.99876897 -3.50878906 2.98999023 C-4.38103622 2.97966766 -5.25328339 2.96934509 -6.15196228 2.95870972 C-11.81652567 2.95769126 -17.13965182 3.50849876 -22.57519531 5.18530273 C-22.90519531 5.51530273 -23.23519531 5.84530273 -23.57519531 6.18530273 C-25.0898898 6.41723138 -26.61274093 6.59745512 -28.13769531 6.74780273 C-29.37712891 6.87348633 -29.37712891 6.87348633 -30.64160156 7.00170898 C-31.59873047 7.09258789 -31.59873047 7.09258789 -32.57519531 7.18530273 C-32.90519531 6.52530273 -33.23519531 5.86530273 -33.57519531 5.18530273 C-31.36809548 4.53526648 -29.15945639 3.89045528 -26.95019531 3.24780273 C-25.72042969 2.8881543 -24.49066406 2.52850586 -23.22363281 2.15795898 C-15.46942775 0.09072444 -7.96810596 -0.00090015 0 0 Z " fill="#38A7D5" transform="translate(109.5751953125,0.814697265625)"/>
<path d="M0 0 C0.33 0 0.66 0 1 0 C1 3.63 1 7.26 1 11 C1.99 11.33 2.98 11.66 4 12 C3.360625 12.103125 2.72125 12.20625 2.0625 12.3125 C1.381875 12.539375 0.70125 12.76625 0 13 C-0.33 13.99 -0.66 14.98 -1 16 C7.25 16 15.5 16 24 16 C24 16.33 24 16.66 24 17 C19.42848262 17.04971951 14.85712532 17.08586976 10.28540039 17.10986328 C8.73263809 17.11987381 7.17989442 17.13348634 5.62719727 17.15087891 C3.38553245 17.17534652 1.14411851 17.18653268 -1.09765625 17.1953125 C-1.78336197 17.20563507 -2.46906769 17.21595764 -3.17555237 17.22659302 C-7.85297079 17.22766334 -11.6048403 16.44423099 -16 15 C-14.54340201 12.08680402 -12.6538411 11.98288741 -9.625 10.9375 C-8.64789063 10.59589844 -7.67078125 10.25429687 -6.6640625 9.90234375 C-4.77766911 9.26340405 -2.88945801 8.62981934 -1 8 C-0.67 5.36 -0.34 2.72 0 0 Z " fill="#59206B" transform="translate(147,83)"/>
<path d="M0 0 C1.32 0 2.64 0 4 0 C4 0.99 4 1.98 4 3 C4.99 3.33 5.98 3.66 7 4 C7 4.66 7 5.32 7 6 C6.01 6 5.02 6 4 6 C4 10.62 4 15.24 4 20 C4.99 20 5.98 20 7 20 C7 16.04 7 12.08 7 8 C8.66714453 11.33428906 9.36326829 13.45249477 10 17 C10.33 17.99 10.66 18.98 11 20 C8 22 8 22 5.3125 21.625 C4.1678125 21.315625 4.1678125 21.315625 3 21 C2.67 19.68 2.34 18.36 2 17 C1.34 17.99 0.68 18.98 0 20 C0 13.4 0 6.8 0 0 Z " fill="#592568" transform="translate(73,74)"/>
<path d="M0 0 C0.66 0.33 1.32 0.66 2 1 C1.49339844 2.14662109 1.49339844 2.14662109 0.9765625 3.31640625 C-4.19570415 15.73881546 -5.15465027 27.58807865 -5.3125 40.875 C-5.33030518 41.83776855 -5.34811035 42.80053711 -5.36645508 43.79248047 C-5.35933321 50.13094675 -4.22163629 55.10403716 -2 61 C-1.40940879 63.1800836 -0.8424741 65.36689303 -0.3125 67.5625 C-0.06113281 68.59503906 0.19023437 69.62757813 0.44921875 70.69140625 C0.63097656 71.45324219 0.81273437 72.21507812 1 73 C0.34 73 -0.32 73 -1 73 C-1.20496094 72.36191406 -1.40992188 71.72382813 -1.62109375 71.06640625 C-1.89050781 70.24011719 -2.15992188 69.41382813 -2.4375 68.5625 C-2.70433594 67.73878906 -2.97117187 66.91507812 -3.24609375 66.06640625 C-3.82155494 64.03780412 -3.82155494 64.03780412 -5 63 C-5.32097751 60.68182911 -5.51220956 58.36220643 -5.71875 56.03125 C-5.79065837 54.00819407 -5.79065837 54.00819407 -7 53 C-7.25925728 48.79872485 -7.1897247 44.58329318 -7.1875 40.375 C-7.18814453 39.14998779 -7.18878906 37.92497559 -7.18945312 36.6628418 C-7.13870011 27.9454347 -6.60789865 19.57067408 -5 11 C-4.34 11 -3.68 11 -3 11 C-3 9.02 -3 7.04 -3 5 C-2.34 5 -1.68 5 -1 5 C-0.67 3.35 -0.34 1.7 0 0 Z " fill="#268BCF" transform="translate(22,75)"/>
<path d="M0 0 C3.2140693 3.2140693 5.40339584 5.86172571 7.8125 9.625 C8.43769531 10.58664063 9.06289062 11.54828125 9.70703125 12.5390625 C10.13371094 13.35117188 10.56039062 14.16328125 11 15 C10.67 15.66 10.34 16.32 10 17 C8.68 15.35 7.36 13.7 6 12 C5.34 12.66 4.68 13.32 4 14 C3.01 14.495 3.01 14.495 2 15 C1.67 23.25 1.34 31.5 1 40 C0.67 40 0.34 40 0 40 C0 26.8 0 13.6 0 0 Z " fill="#5D286F" transform="translate(60,111)"/>
<path d="M0 0 C2.31 0 4.62 0 7 0 C7.12117188 0.77085938 7.24234375 1.54171875 7.3671875 2.3359375 C7.53476563 3.33882813 7.70234375 4.34171875 7.875 5.375 C8.11863281 6.87160156 8.11863281 6.87160156 8.3671875 8.3984375 C8.7958802 11.1425115 8.7958802 11.1425115 11 13 C14.79877599 13.35173852 17.14360153 13.52701444 20.4375 11.5 C20.953125 11.005 21.46875 10.51 22 10 C22 11.32 22 12.64 22 14 C20.0636296 14.50435694 18.12585854 15.00333874 16.1875 15.5 C15.10855469 15.7784375 14.02960938 16.056875 12.91796875 16.34375 C10 17 10 17 7 17 C7.309375 16.071875 7.309375 16.071875 7.625 15.125 C7.74875 14.42375 7.8725 13.7225 8 13 C7.34 12.34 6.68 11.68 6 11 C5.875 7.375 5.875 7.375 6 4 C5.01 4 4.02 4 3 4 C2.67 7.3 2.34 10.6 2 14 C1.34 14 0.68 14 0 14 C0 9.38 0 4.76 0 0 Z " fill="#673678" transform="translate(97,80)"/>
<path d="M0 0 C0 0.66 0 1.32 0 2 C-0.99 2.495 -0.99 2.495 -2 3 C-2.33 3.99 -2.66 4.98 -3 6 C-3.825 6.639375 -4.65 7.27875 -5.5 7.9375 C-8.18885468 10.15580511 -8.33493354 10.78551213 -9 14 C-9.99 14.33 -10.98 14.66 -12 15 C-12.33 15.66 -12.66 16.32 -13 17 C-15.0625 17.625 -15.0625 17.625 -17 18 C-17.2165625 18.8971875 -17.2165625 18.8971875 -17.4375 19.8125 C-17.8872439 21.56150404 -18.42892341 23.28677023 -19 25 C-19.99 25.33 -20.98 25.66 -22 26 C-22.7421875 24.32421875 -22.7421875 24.32421875 -23 22 C-19.18858552 15.91897438 -7.91993358 0 0 0 Z " fill="#4E3B88" transform="translate(55,36)"/>
<path d="M0 0 C0.33 0 0.66 0 1 0 C1.19491452 1.45736087 1.38069358 2.91594593 1.5625 4.375 C1.66691406 5.18710938 1.77132812 5.99921875 1.87890625 6.8359375 C2 9 2 9 1 11 C0.01 10.67 -0.98 10.34 -2 10 C-2 9.01 -2 8.02 -2 7 C-5.63 7 -9.26 7 -13 7 C-13 21.19 -13 35.38 -13 50 C-13.33 50 -13.66 50 -14 50 C-14 35.48 -14 20.96 -14 6 C-9.38 6 -4.76 6 0 6 C0 4.02 0 2.04 0 0 Z " fill="#572068" transform="translate(172,100)"/>
<path d="M0 0 C2.5625 0.1875 2.5625 0.1875 4.5625 2.1875 C4.8125 5.1875 4.8125 5.1875 4.5625 8.1875 C2.5625 10.1875 2.5625 10.1875 0.0625 10.4375 C-2.4375 10.1875 -2.4375 10.1875 -4.4375 8.1875 C-3.74456522 0.28804348 -3.74456522 0.28804348 0 0 Z " fill="#612C73" transform="translate(111.4375,81.8125)"/>
<path d="M0 0 C0.33 0 0.66 0 1 0 C1.07468636 4.55318701 1.12885256 9.10600998 1.16479492 13.65966797 C1.1797933 15.20562968 1.20019887 16.75154948 1.22631836 18.29736328 C1.48382747 33.93977959 1.48382747 33.93977959 -2 41 C-2.36222656 41.96808594 -2.72445312 42.93617188 -3.09765625 43.93359375 C-3.41605469 44.75988281 -3.73445312 45.58617187 -4.0625 46.4375 C-4.54396484 47.70400391 -4.54396484 47.70400391 -5.03515625 48.99609375 C-6 51 -6 51 -8 52 C-7.82984375 51.44054687 -7.6596875 50.88109375 -7.484375 50.3046875 C-6.95560178 48.55523567 -6.43881289 46.8021454 -5.9296875 45.046875 C-5.32931637 43.07927215 -4.67116366 41.12797475 -3.9453125 39.203125 C0.43831844 26.59618638 -0.15926142 13.20496862 0 0 Z " fill="#2988CD" transform="translate(208,100)"/>
<path d="M0 0 C4.55555556 0.55555556 4.55555556 0.55555556 6 2 C6.23529412 7.52941176 6.23529412 7.52941176 5 10 C3.00045254 10.04254356 0.99958364 10.04080783 -1 10 C-2 9 -2 9 -2.1875 5.5625 C-2 2 -2 2 0 0 Z " fill="#5B246C" transform="translate(136,82)"/>
<path d="M0 0 C4.14581819 -0.02931979 8.29160925 -0.04690557 12.4375 -0.0625 C13.60216797 -0.07087891 14.76683594 -0.07925781 15.96679688 -0.08789062 C33.55938149 -0.1374472 33.55938149 -0.1374472 40.0625 3.0625 C40.81660156 3.42472656 41.57070312 3.78695313 42.34765625 4.16015625 C42.89292969 4.43730469 43.43820313 4.71445312 44 5 C40.87819599 5.96661363 38.47916205 5.98988909 35.25 5.5625 C34.05117187 5.40974609 34.05117187 5.40974609 32.828125 5.25390625 C32.22484375 5.17011719 31.6215625 5.08632813 31 5 C31 4.34 31 3.68 31 3 C24.33772358 2.04710229 17.7220323 1.69409823 11 1.4375 C9.93910156 1.39431641 8.87820312 1.35113281 7.78515625 1.30664062 C5.19020849 1.20144004 2.59517916 1.09929881 0 1 C0 0.67 0 0.34 0 0 Z " fill="#3D67B1" transform="translate(102,16)"/>
<path d="M0 0 C0.33 1.32 0.66 2.64 1 4 C2.32 4 3.64 4 5 4 C5 4.66 5 5.32 5 6 C4.01 6 3.02 6 2 6 C2 9.3 2 12.6 2 16 C2.99 16 3.98 16 5 16 C5 16.66 5 17.32 5 18 C3.33388095 18.042721 1.66617115 18.04063832 0 18 C-1 17 -1 17 -1.09765625 14.49609375 C-1.08605469 13.48675781 -1.07445312 12.47742188 -1.0625 11.4375 C-1.05347656 10.42558594 -1.04445312 9.41367188 -1.03515625 8.37109375 C-1.02355469 7.58863281 -1.01195312 6.80617188 -1 6 C-1.66 6 -2.32 6 -3 6 C-3 5.34 -3 4.68 -3 4 C-2.34 4 -1.68 4 -1 4 C-0.67 2.68 -0.34 1.36 0 0 Z " fill="#F8E6FA" transform="translate(158,76)"/>
<path d="M0 0 C0 0.66 0 1.32 0 2 C-1.32 2.33 -2.64 2.66 -4 3 C-4 3.66 -4 4.32 -4 5 C-1.53673288 6.6446674 -1.53673288 6.6446674 1 8 C0.125 12.875 0.125 12.875 -1 14 C-2.99958364 14.04080783 -5.00045254 14.04254356 -7 14 C-7 13.34 -7 12.68 -7 12 C-5.35 12 -3.7 12 -2 12 C-2 11.01 -2 10.02 -2 9 C-2.804375 8.7525 -3.60875 8.505 -4.4375 8.25 C-7 7 -7 7 -8 5.0625 C-8 3 -8 3 -6.875 1.25 C-4.46145349 -0.35903101 -2.84326464 -0.23053497 0 0 Z " fill="#ECD9F0" transform="translate(128,80)"/>
<path d="M0 0 C-0.33 0.99 -0.66 1.98 -1 3 C-2.65 3.33 -4.3 3.66 -6 4 C-6 6.31 -6 8.62 -6 11 C-3.03 11.495 -3.03 11.495 0 12 C0 12.66 0 13.32 0 14 C-6.42210386 14.48468708 -6.42210386 14.48468708 -8.9375 12.375 C-10.31565201 9.29442492 -10.48746608 7.34262452 -10 4 C-7.16463433 -0.14399597 -4.86205069 -0.44200461 0 0 Z " fill="#EDD9F2" transform="translate(93,80)"/>
<path d="M0 0 C2.0625 0.4375 2.0625 0.4375 4 1 C3.01 1.495 3.01 1.495 2 2 C1.34786708 4.02463255 1.34786708 4.02463255 1 6 C1.99 6 2.98 6 4 6 C4 6.66 4 7.32 4 8 C2.68 8 1.36 8 0 8 C0 11.96 0 15.92 0 20 C-0.66 20 -1.32 20 -2 20 C-2 16.04 -2 12.08 -2 8 C-2.66 8 -3.32 8 -4 8 C-4 7.34 -4 6.68 -4 6 C-3.34 6 -2.68 6 -2 6 C-1.855625 5.195625 -1.71125 4.39125 -1.5625 3.5625 C-1 1 -1 1 0 0 Z " fill="#EEDEF3" transform="translate(150,74)"/>
<path d="M0 0 C2.625 0.375 2.625 0.375 5 1 C5.625 3.375 5.625 3.375 6 6 C4 8 4 8 1.375 8.125 C0.59125 8.08375 -0.1925 8.0425 -1 8 C-1.625 5.125 -1.625 5.125 -2 2 C-1.34 1.34 -0.68 0.68 0 0 Z " fill="#F1E3F5" transform="translate(39,143)"/>
<path d="M0 0 C0.33 0.99 0.66 1.98 1 3 C-4.7258977 8.82065251 -8.81712009 11.96090414 -17 13 C-14.94870558 10.86088258 -12.84304969 9.04262537 -10.4375 7.3125 C-9.83808594 6.87550781 -9.23867187 6.43851563 -8.62109375 5.98828125 C-7 5 -7 5 -5 5 C-5 4.34 -5 3.68 -5 3 C-2.5 1.375 -2.5 1.375 0 0 Z " fill="#228ACE" transform="translate(177,183)"/>
<path d="M0 0 C2.625 0.375 2.625 0.375 5 1 C5.625 3.375 5.625 3.375 6 6 C5.34 6.66 4.68 7.32 4 8 C1.375 7.625 1.375 7.625 -1 7 C-1.625 4.625 -1.625 4.625 -2 2 C-1.34 1.34 -0.68 0.68 0 0 Z " fill="#B28CC0" transform="translate(166,77)"/>
<path d="M0 0 C11.77963918 11.42268041 11.77963918 11.42268041 15 19 C14.34 19.33 13.68 19.66 13 20 C10 15.25 10 15.25 10 13 C9.34 13 8.68 13 8 13 C8 12.34 8 11.68 8 11 C7.01 11 6.02 11 5 11 C5 10.34 5 9.68 5 9 C4.34 9 3.68 9 3 9 C2.01 6.03 1.02 3.06 0 0 Z " fill="#34A5D8" transform="translate(191,33)"/>
<path d="M0 0 C0.33 0 0.66 0 1 0 C1 4.29 1 8.58 1 13 C-3 14 -3 14 -5 13 C-4.54554036 11.58208592 -4.08625056 10.16571954 -3.625 8.75 C-3.24214844 7.56664063 -3.24214844 7.56664063 -2.8515625 6.359375 C-2.04826333 4.13372042 -1.10288338 2.09068328 0 0 Z " fill="#5E276E" transform="translate(69,81)"/>
<path d="M0 0 C2.625 0.375 2.625 0.375 5 1 C5.33 2.32 5.66 3.64 6 5 C4.7934375 5.4640625 4.7934375 5.4640625 3.5625 5.9375 C1.10919595 6.76335345 1.10919595 6.76335345 0 8 C-0.99 8.495 -0.99 8.495 -2 9 C-2.125 5.625 -2.125 5.625 -2 2 C-1.34 1.34 -0.68 0.68 0 0 Z " fill="#5E2672" transform="translate(88,82)"/>
<path d="M0 0 C1.32 0 2.64 0 4 0 C4 0.99 4 1.98 4 3 C3.34 3 2.68 3 2 3 C2 8.28 2 13.56 2 19 C1.34 19 0.68 19 0 19 C0 12.73 0 6.46 0 0 Z " fill="#F2DBF9" transform="translate(53,75)"/>
<path d="M0 0 C4.69165109 2.97519337 8.84703191 6.31393365 13 10 C12.34 10.66 11.68 11.32 11 12 C8.375 11.625 8.375 11.625 6 11 C6 10.01 6 9.02 6 8 C5.34 8 4.68 8 4 8 C4 7.34 4 6.68 4 6 C3.34 5.67 2.68 5.34 2 5 C1.27840576 3.35636866 0.60648579 1.68949614 0 0 Z " fill="#2CA6DB" transform="translate(178,22)"/>
<path d="M0 0 C0.99 0.99 1.98 1.98 3 3 C1.54540569 4.64913882 0.08620743 6.29421782 -1.375 7.9375 C-2.18710938 8.85402344 -2.99921875 9.77054688 -3.8359375 10.71484375 C-6 13 -6 13 -8 14 C-8 12.35 -8 10.7 -8 9 C-6.68 9 -5.36 9 -4 9 C-4 8.01 -4 7.02 -4 6 C-3.34 6 -2.68 6 -2 6 C-2 4.68 -2 3.36 -2 2 C-1.34 2 -0.68 2 0 2 C0 1.34 0 0.68 0 0 Z " fill="#1E9DD0" transform="translate(197,179)"/>
<path d="M0 0 C0.99 0 1.98 0 3 0 C3 4.62 3 9.24 3 14 C2.01 14 1.02 14 0 14 C0 9.38 0 4.76 0 0 Z " fill="#E1C8E8" transform="translate(77,80)"/>
<path d="M0 0 C0.99 0.33 1.98 0.66 3 1 C4.125 7.625 4.125 7.625 3 11 C1.68 11 0.36 11 -1 11 C-1.02688151 9.35425434 -1.04634123 7.70838587 -1.0625 6.0625 C-1.07410156 5.14597656 -1.08570312 4.22945313 -1.09765625 3.28515625 C-1 1 -1 1 0 0 Z " fill="#642B7A" transform="translate(100,83)"/>
<path d="M0 0 C1.57432497 3.14864995 0.71895552 5.64487425 0 9 C-0.99 9.66 -1.98 10.32 -3 11 C-3.33 11.99 -3.66 12.98 -4 14 C-4.66 14 -5.32 14 -6 14 C-6 15.65 -6 17.3 -6 19 C-6.99 19.33 -7.98 19.66 -9 20 C-7.09226323 12.6625509 -3.78749308 6.53016047 0 0 Z " fill="#4A3B8A" transform="translate(31,60)"/>
<path d="M0 0 C0.66 0.33 1.32 0.66 2 1 C-1.3 4.63 -4.6 8.26 -8 12 C-8.33 11.34 -8.66 10.68 -9 10 C-9.66 9.67 -10.32 9.34 -11 9 C-7.37 6.03 -3.74 3.06 0 0 Z " fill="#33AADA" transform="translate(48,20)"/>
<path d="M0 0 C0.99 0 1.98 0 3 0 C3 6.27 3 12.54 3 19 C2.34 19 1.68 19 1 19 C0.67 12.73 0.34 6.46 0 0 Z " fill="#F6DFFB" transform="translate(70,75)"/>
<path d="M0 0 C2.31 0 4.62 0 7 0 C7 0.66 7 1.32 7 2 C6.35546875 2.22429687 5.7109375 2.44859375 5.046875 2.6796875 C2.75611148 3.82889456 2.75611148 3.82889456 2.390625 6.3828125 C2.34421875 7.28773437 2.2978125 8.19265625 2.25 9.125 C2.19328125 10.03507812 2.1365625 10.94515625 2.078125 11.8828125 C2.03945312 12.93082031 2.03945312 12.93082031 2 14 C1.34 14 0.68 14 0 14 C0 9.38 0 4.76 0 0 Z " fill="#F4DDF9" transform="translate(97,80)"/>
<path d="M0 0 C3.35528521 -0.31455799 5.74454539 0.19095434 8.8125 1.4375 C12.89194995 3.08482074 16.62694045 3.60954825 21 4 C20.67 4.66 20.34 5.32 20 6 C12.63904818 5.68676801 6.69116911 4.06085395 0 1 C0 0.67 0 0.34 0 0 Z " fill="#473B87" transform="translate(78,201)"/>
<path d="M0 0 C0.66 0.33 1.32 0.66 2 1 C2 2.32 2 3.64 2 5 C4.31 5.66 6.62 6.32 9 7 C9 8.65 9 10.3 9 12 C7.72689688 11.06558465 6.456612 10.12732889 5.1875 9.1875 C4.47980469 8.66542969 3.77210937 8.14335937 3.04296875 7.60546875 C1.20038793 6.15747502 -0.46364869 4.76898495 -2 3 C-2 2.34 -2 1.68 -2 1 C-1.34 0.67 -0.68 0.34 0 0 Z " fill="#23A0D9" transform="translate(33,187)"/>
<path d="M0 0 C1.66714453 3.33428906 2.36326829 5.45249477 3 9 C3.33 9.99 3.66 10.98 4 12 C1 14 1 14 -1.6875 13.625 C-2.450625 13.41875 -3.21375 13.2125 -4 13 C-2.68 12.67 -1.36 12.34 0 12 C0 8.04 0 4.08 0 0 Z " fill="#5D276D" transform="translate(80,82)"/>
<path d="M0 0 C2.64 0 5.28 0 8 0 C8 0.66 8 1.32 8 2 C2.58461538 5.07692308 2.58461538 5.07692308 -0.375 4.6875 C-0.91125 4.460625 -1.4475 4.23375 -2 4 C-1.34 2.68 -0.68 1.36 0 0 Z " fill="#20A3D8" transform="translate(156,210)"/>
<path d="M0 0 C0.33 0 0.66 0 1 0 C1 3.63 1 7.26 1 11 C1.99 11.33 2.98 11.66 4 12 C0.62182575 12.84454356 -1.67465243 13.10844919 -5 12 C-4.34 10.68 -3.68 9.36 -3 8 C-2.34 8 -1.68 8 -1 8 C-0.67 5.36 -0.34 2.72 0 0 Z " fill="#551E69" transform="translate(147,83)"/>
<path d="M0 0 C0.66 0 1.32 0 2 0 C2.061875 0.61875 2.12375 1.2375 2.1875 1.875 C2.828919 4.27761141 2.828919 4.27761141 5.5625 5.25 C6.366875 5.4975 7.17125 5.745 8 6 C8 6.99 8 7.98 8 9 C5.125 8.8125 5.125 8.8125 2 8 C0.32717969 5.11058309 0 3.3408643 0 0 Z " fill="#5A266D" transform="translate(118,83)"/>
<path d="M0 0 C1.32 0.99 2.64 1.98 4 3 C3.34 4.32 2.68 5.64 2 7 C0.02 7 -1.96 7 -4 7 C-4 5.68 -4 4.36 -4 3 C-2.68 3 -1.36 3 0 3 C0 2.01 0 1.02 0 0 Z " fill="#562169" transform="translate(155,73)"/>
<path d="M0 0 C0.66 0 1.32 0 2 0 C1.45660208 4.56454251 0.20536179 7.9728176 -2 12 C-3.41377341 9.36095629 -4.37240135 6.92879371 -5 4 C-2.525 4.495 -2.525 4.495 0 5 C0 3.35 0 1.7 0 0 Z " fill="#2CA7D7" transform="translate(213,154)"/>
<path d="M0 0 C0.66 0 1.32 0 2 0 C1.39891424 5.65020618 -0.07528683 10.66164461 -2 16 C-2.66 14.68 -3.32 13.36 -4 12 C-3.34 12 -2.68 12 -2 12 C-2 9.69 -2 7.38 -2 5 C-1.34 5 -0.68 5 0 5 C0 3.35 0 1.7 0 0 Z " fill="#4A3684" transform="translate(205,128)"/>
<path d="M0 0 C1.65 0 3.3 0 5 0 C5.33 3.63 5.66 7.26 6 11 C0 3.6 0 3.6 0 0 Z " fill="#5C2C6B" transform="translate(82,131)"/>
<path d="M0 0 C0.33 0.66 0.66 1.32 1 2 C1.66 2.33 2.32 2.66 3 3 C1 6 1 6 -1 7 C-1.33 6.34 -1.66 5.68 -2 5 C-2.33 7.97 -2.66 10.94 -3 14 C-3.33 14 -3.66 14 -4 14 C-4 10.04 -4 6.08 -4 2 C-2.68 2 -1.36 2 0 2 C0 1.34 0 0.68 0 0 Z " fill="#7B4F8D" transform="translate(154,80)"/>
<path d="M0 0 C0.66 0.33 1.32 0.66 2 1 C1.01 2.485 1.01 2.485 0 4 C-1.32 4 -2.64 4 -4 4 C-4 4.66 -4 5.32 -4 6 C-5.98 6.33 -7.96 6.66 -10 7 C-10.33 6.34 -10.66 5.68 -11 5 C-9.21289414 4.13633178 -7.4201535 3.28431406 -5.625 2.4375 C-4.62726563 1.96183594 -3.62953125 1.48617188 -2.6015625 0.99609375 C-1.74304688 0.66738281 -0.88453125 0.33867188 0 0 Z " fill="#39A8D7" transform="translate(73,7)"/>
<path d="M0 0 C2.5625 0.1875 2.5625 0.1875 4.5625 2.1875 C4.6875 5.3125 4.6875 5.3125 4.5625 8.1875 C3.5725 8.6825 3.5725 8.6825 2.5625 9.1875 C2.2325 7.2075 1.9025 5.2275 1.5625 3.1875 C0.2425 3.5175 -1.0775 3.8475 -2.4375 4.1875 C-2.7675 3.1975 -3.0975 2.2075 -3.4375 1.1875 C-2.4375 0.1875 -2.4375 0.1875 0 0 Z " fill="#6A397E" transform="translate(111.4375,81.8125)"/>
<path d="M0 0 C0.66 0 1.32 0 2 0 C2.042721 1.66611905 2.04063832 3.33382885 2 5 C1.67 5.33 1.34 5.66 1 6 C0.855625 7.155 0.71125 8.31 0.5625 9.5 C0.376875 10.655 0.19125 11.81 0 13 C-0.99 13.495 -0.99 13.495 -2 14 C-3.81975482 8.87160006 -1.8599099 4.82315618 0 0 Z " fill="#34A8D7" transform="translate(7,73)"/>
<path d="M0 0 C3.90517241 5.20689655 3.90517241 5.20689655 4 9 C2.68 10.32 1.36 11.64 0 13 C0 8.71 0 4.42 0 0 Z " fill="#562266" transform="translate(56,81)"/>
<path d="M0 0 C-4.08839103 4.29281059 -6.97865056 6.31575575 -13 7 C-13 6.34 -13 5.68 -13 5 C-11.02 4.34 -9.04 3.68 -7 3 C-7.33 2.34 -7.66 1.68 -8 1 C-5.29120665 -0.35439668 -2.99066732 -0.06501451 0 0 Z " fill="#4C3885" transform="translate(161,194)"/>
<path d="M0 0 C2.475 0.99 2.475 0.99 5 2 C4.38722388 4.96175123 3.74627478 6.38058783 2 9 C-0.31 8.67 -2.62 8.34 -5 8 C-5 7.67 -5 7.34 -5 7 C-3.02 7 -1.04 7 1 7 C0.67 4.69 0.34 2.38 0 0 Z " fill="#5B246D" transform="translate(59,92)"/>
<path d="M0 0 C4.35535069 1.16142685 6.64619703 2.07699505 9 6 C6.69 5.67 4.38 5.34 2 5 C1.34 3.35 0.68 1.7 0 0 Z " fill="#50398A" transform="translate(162,31)"/>
<path d="M0 0 C0 0.66 0 1.32 0 2 C-3.75960806 5.75960806 -6.75900345 6.58894145 -12 7 C-9.20232475 3.70861735 -4.40323273 0 0 0 Z " fill="#33A7D6" transform="translate(62,13)"/>
<path d="M0 0 C0.33 0.66 0.66 1.32 1 2 C-0.65909182 6.10406925 -2.21704034 8.65195608 -6 11 C-6.66 10.67 -7.32 10.34 -8 10 C-5.36 6.7 -2.72 3.4 0 0 Z " fill="#2687C8" transform="translate(189,169)"/>
<path d="M0 0 C0.66 0 1.32 0 2 0 C3.04644066 1.63790712 4.0398183 3.31008021 5 5 C5.86625 6.0209375 5.86625 6.0209375 6.75 7.0625 C8 9 8 9 7.578125 11.12109375 C7.38734375 11.74113281 7.1965625 12.36117187 7 13 C5.82786955 11.21190303 4.66244474 9.41940875 3.5 7.625 C2.8503125 6.62726563 2.200625 5.62953125 1.53125 4.6015625 C0 2 0 2 0 0 Z " fill="#58296C" transform="translate(70,113)"/>
<path d="M0 0 C0.33 0 0.66 0 1 0 C1 3.3 1 6.6 1 10 C1.99 10 2.98 10 4 10 C4 10.66 4 11.32 4 12 C2.35 12 0.7 12 -1 12 C-1.33 10.35 -1.66 8.7 -2 7 C-1.67 7 -1.34 7 -1 7 C-0.67 4.69 -0.34 2.38 0 0 Z " fill="#D4BDDB" transform="translate(159,82)"/>
<path d="M0 0 C4.19469571 0.59924224 8.00999834 1.57499941 12 3 C12 3.33 12 3.66 12 4 C8.04 3.67 4.08 3.34 0 3 C0 2.01 0 1.02 0 0 Z " fill="#3CACDA" transform="translate(139,4)"/>
<path d="M0 0 C0.33 0 0.66 0 1 0 C1.48828125 2.01822917 1.9765625 4.03645833 2.46484375 6.0546875 C2.94846992 8.0585657 2.94846992 8.0585657 4 10 C2.02 10 0.04 10 -2 10 C-1.34 6.7 -0.68 3.4 0 0 Z " fill="#592B6B" transform="translate(130,84)"/>
<path d="M0 0 C0.33 0 0.66 0 1 0 C1.33 1.98 1.66 3.96 2 6 C4.97 6.495 4.97 6.495 8 7 C8 7.66 8 8.32 8 9 C5.69 9 3.38 9 1 9 C-0.61949011 6.42786866 -1.04408751 5.32330841 -0.625 2.25 C-0.41875 1.5075 -0.2125 0.765 0 0 Z " fill="#E4D0E9" transform="translate(85,85)"/>
<path d="M0 0 C-0.66 0 -1.32 0 -2 0 C-2 0.66 -2 1.32 -2 2 C-3.65 2 -5.3 2 -7 2 C-7 2.66 -7 3.32 -7 4 C-9.31 4.33 -11.62 4.66 -14 5 C-13.67 4.34 -13.34 3.68 -13 3 C-11.68 3 -10.36 3 -9 3 C-9 2.34 -9 1.68 -9 1 C-5.57367167 -0.61798838 -3.61944899 -1.34053666 0 0 Z " fill="#444491" transform="translate(81,23)"/>
<path d="M0 0 C0.99 0.33 1.98 0.66 3 1 C3 1.66 3 2.32 3 3 C2.01 3 1.02 3 0 3 C0 7.62 0 12.24 0 17 C-0.33 17 -0.66 17 -1 17 C-1.02684679 14.35409986 -1.04676357 11.70846904 -1.0625 9.0625 C-1.07087891 8.30775391 -1.07925781 7.55300781 -1.08789062 6.77539062 C-1.09652441 4.85005687 -1.05224333 2.92464419 -1 1 C-0.67 0.67 -0.34 0.34 0 0 Z " fill="#4F1B5F" transform="translate(77,77)"/>
<path d="M0 0 C1.32 0.33 2.64 0.66 4 1 C4 2.65 4 4.3 4 6 C2.02 6.99 2.02 6.99 0 8 C0 5.36 0 2.72 0 0 Z " fill="#672A77" transform="translate(152,85)"/>
<path d="M0 0 C2 0 2 0 3.6875 1.5625 C5.52326619 4.97178007 4.78222319 7.30221767 4 11 C1.55160412 7.32740617 0 4.45351799 0 0 Z " fill="#218ED1" transform="translate(201,74)"/>
<path d="M0 0 C1.60785777 0.59427388 3.21117709 1.20083588 4.8125 1.8125 C6.15248047 2.31716797 6.15248047 2.31716797 7.51953125 2.83203125 C9.91924072 3.96197319 11.28423353 5.01062293 13 7 C8.14036821 6.39254603 4.2594482 4.27241033 0 2 C0 1.34 0 0.68 0 0 Z " fill="#45AED7" transform="translate(155,9)"/>
<path d="M0 0 C2.64 0 5.28 0 8 0 C4.57653445 3.14958831 1.55737263 3.56179109 -3 4 C-3 3.34 -3 2.68 -3 2 C-2.01 2 -1.02 2 0 2 C0 1.34 0 0.68 0 0 Z " fill="#4D3680" transform="translate(139,201)"/>
<path d="M0 0 C2.12966005 2.12966005 2.47624662 3.04068204 3.1875 5.875 C3.36667969 6.55304688 3.54585937 7.23109375 3.73046875 7.9296875 C4.02970718 10.22818556 3.69377386 11.80550964 3 14 C2.29866401 12.42274653 1.614417 10.83788667 0.9375 9.25 C0.55464844 8.36828125 0.17179688 7.4865625 -0.22265625 6.578125 C-1.04600008 3.84743691 -0.9773992 2.63098653 0 0 Z " fill="#42ACD7" transform="translate(7,145)"/>
<path d="M0 0 C2.625 0.375 2.625 0.375 5 1 C5.33 2.65 5.66 4.3 6 6 C5.01 5.67 4.02 5.34 3 5 C3.33 4.01 3.66 3.02 4 2 C2.68 2 1.36 2 0 2 C-0.33 2.99 -0.66 3.98 -1 5 C-1.33 4.01 -1.66 3.02 -2 2 C-1.34 1.34 -0.68 0.68 0 0 Z " fill="#8E669F" transform="translate(166,77)"/>
<path d="M0 0 C0.66 0 1.32 0 2 0 C2.66 2.31 3.32 4.62 4 7 C3.01 6.67 2.02 6.34 1 6 C1 5.34 1 4.68 1 4 C-1.475 5.485 -1.475 5.485 -4 7 C-2.92598892 4.08482708 -2.22189824 2.22189824 0 0 Z " fill="#2EA7D6" transform="translate(20,49)"/>
<path d="M0 0 C0.33 0.66 0.66 1.32 1 2 C-0.37393005 5.66381347 -1.1447677 7.56243929 -4.6875 9.375 C-5.450625 9.58125 -6.21375 9.7875 -7 10 C-2.85714286 2.42857143 -2.85714286 2.42857143 0 0 Z " fill="#45AFD8" transform="translate(29,37)"/>
<path d="M0 0 C1.32 0.33 2.64 0.66 4 1 C5.125 4.75 5.125 4.75 4 7 C3.67 8.32 3.34 9.64 3 11 C2.01 7.37 1.02 3.74 0 0 Z " fill="#1BA1D7" transform="translate(9,152)"/>
<path d="M0 0 C1.32 0.33 2.64 0.66 4 1 C3.67 1.99 3.34 2.98 3 4 C2.34 3.67 1.68 3.34 1 3 C1 3.66 1 4.32 1 5 C0.34 5 -0.32 5 -1 5 C-1.33 5.66 -1.66 6.32 -2 7 C-2.33 6.34 -2.66 5.68 -3 5 C-1.5625 2.375 -1.5625 2.375 0 0 Z " fill="#682C7E" transform="translate(137,85)"/>
<path d="M0 0 C0.99 0.33 1.98 0.66 3 1 C2.1875 3.4375 2.1875 3.4375 1 6 C0.01 6.33 -0.98 6.66 -2 7 C-2.6875 5.1875 -2.6875 5.1875 -3 3 C-1.5625 1.25 -1.5625 1.25 0 0 Z " fill="#543586" transform="translate(35,55)"/>
<path d="M0 0 C1.6498275 0.42218816 3.29483665 0.86324425 4.9375 1.3125 C6.31228516 1.67794922 6.31228516 1.67794922 7.71484375 2.05078125 C8.46894531 2.36402344 9.22304687 2.67726562 10 3 C10.33 3.99 10.66 4.98 11 6 C9.53815942 5.77139942 8.08044581 5.51629608 6.625 5.25 C5.40683594 5.04117188 5.40683594 5.04117188 4.1640625 4.828125 C2 4 2 4 0.7109375 1.921875 C0.47632813 1.28765625 0.24171875 0.6534375 0 0 Z " fill="#3C549C" transform="translate(59,192)"/>
<path d="M0 0 C0.99 0.99 1.98 1.98 3 3 C1.35 4.65 -0.3 6.3 -2 8 C-2 6.02 -2 4.04 -2 2 C-1.34 2 -0.68 2 0 2 C0 1.34 0 0.68 0 0 Z " fill="#22A2DF" transform="translate(197,179)"/>
<path d="M0 0 C0.99 0.66 1.98 1.32 3 2 C1.35 4.31 -0.3 6.62 -2 9 C-2.66 7.68 -3.32 6.36 -4 5 C-2.68 4.67 -1.36 4.34 0 4 C0 2.68 0 1.36 0 0 Z " fill="#563080" transform="translate(188,165)"/>
<path d="M0 0 C0.268125 0.598125 0.53625 1.19625 0.8125 1.8125 C2.6627429 5.22084219 4.77713542 6.85142361 8 9 C5.125 9.125 5.125 9.125 2 9 C0 7 0 7 -0.125 3.375 C-0.08375 2.26125 -0.0425 1.1475 0 0 Z " fill="#F5E9F9" transform="translate(132,85)"/>
<path d="M0 0 C0.99 0.33 1.98 0.66 3 1 C2.67 2.32 2.34 3.64 2 5 C1.67 5 1.34 5 1 5 C0.67 6.98 0.34 8.96 0 11 C-0.33 11 -0.66 11 -1 11 C-1.02688151 9.35425434 -1.04634123 7.70838587 -1.0625 6.0625 C-1.07410156 5.14597656 -1.08570312 4.22945313 -1.09765625 3.28515625 C-1 1 -1 1 0 0 Z " fill="#532167" transform="translate(100,83)"/>
<path d="M0 0 C0.99 0.33 1.98 0.66 3 1 C2.1875 4.4375 2.1875 4.4375 1 8 C0.01 8.33 -0.98 8.66 -2 9 C-2.25 3.375 -2.25 3.375 0 0 Z " fill="#DAC1E0" transform="translate(133,81)"/>
<path d="M0 0 C1.43931117 0.45261358 2.87638999 0.91232979 4.3125 1.375 C5.11300781 1.63023437 5.91351563 1.88546875 6.73828125 2.1484375 C9 3 9 3 12 5 C4.61538462 4.50769231 4.61538462 4.50769231 1.5 1.9375 C1.005 1.298125 0.51 0.65875 0 0 Z " fill="#2F84C7" transform="translate(73,200)"/>
<path d="M0 0 C2.29633824 3.44450737 2.54016485 5.93812283 3 10 C2.01 10.495 2.01 10.495 1 11 C-0.20272819 8.59454362 -0.10071472 7.05003047 -0.0625 4.375 C-0.05347656 3.55773437 -0.04445312 2.74046875 -0.03515625 1.8984375 C-0.02355469 1.27195312 -0.01195312 0.64546875 0 0 Z " fill="#41ADD6" transform="translate(218,77)"/>
<path d="M0 0 C-0.66 1.32 -1.32 2.64 -2 4 C-4.31 4 -6.62 4 -9 4 C-6.31059578 0.90718514 -4.07621501 0 0 0 Z " fill="#553184" transform="translate(71,27)"/>
<path d="M0 0 C0.33 1.32 0.66 2.64 1 4 C2.32 3.01 3.64 2.02 5 1 C5 2.65 5 4.3 5 6 C3.35 6 1.7 6 0 6 C-1.125 2.25 -1.125 2.25 0 0 Z " fill="#5B286D" transform="translate(131,100)"/>
<path d="M0 0 C1.98 0.66 3.96 1.32 6 2 C5.01 3.485 5.01 3.485 4 5 C1.375 5.1875 1.375 5.1875 -1 5 C-0.67 3.35 -0.34 1.7 0 0 Z " fill="#612A73" transform="translate(120,93)"/>
<path d="M0 0 C1.32 0 2.64 0 4 0 C3.71125 0.556875 3.4225 1.11375 3.125 1.6875 C1.9586747 4.08494645 0.9660119 6.51596939 0 9 C-1.15941038 5.52176885 -0.70820884 3.54104422 0 0 Z " fill="#228DD2" transform="translate(25,64)"/>
<path d="M0 0 C0.66 0.33 1.32 0.66 2 1 C2 2.32 2 3.64 2 5 C2.66 5.33 3.32 5.66 4 6 C1 6 1 6 -0.6875 4.625 C-2 3 -2 3 -2 1 C-1.34 0.67 -0.68 0.34 0 0 Z " fill="#38AEDB" transform="translate(33,187)"/>
<path d="M0 0 C0.66 0 1.32 0 2 0 C2.33 0.99 2.66 1.98 3 3 C1.625 4.5 1.625 4.5 0 6 C-0.66 6 -1.32 6 -2 6 C-1.125 1.125 -1.125 1.125 0 0 Z " fill="#503582" transform="translate(177,178)"/>
<path d="M0 0 C0.33 0 0.66 0 1 0 C1.22732116 2.80362763 1.34081872 4.46186517 -0.1875 6.875 C-2 8 -2 8 -4.6875 7.6875 C-5.450625 7.460625 -6.21375 7.23375 -7 7 C-4.66785852 5.79371992 -2.50357861 4.8345262 0 4 C0 2.68 0 1.36 0 0 Z " fill="#EDD6F0" transform="translate(117,86)"/>
<path d="M0 0 C0.99 0.99 1.98 1.98 3 3 C-0.32307692 6.93846154 -0.32307692 6.93846154 -3.75 7.25 C-4.4925 7.1675 -5.235 7.085 -6 7 C-5.071875 6.6596875 -5.071875 6.6596875 -4.125 6.3125 C-1.38589791 4.62070165 -0.94975528 3.00755839 0 0 Z " fill="#5A246D" transform="translate(172,79)"/>
<path d="M0 0 C-6.75 4 -6.75 4 -9 4 C-9 3.34 -9 2.68 -9 2 C-8.34 2 -7.68 2 -7 2 C-7 1.34 -7 0.68 -7 0 C-3.98968256 -0.93423645 -3.13349732 -1.04449911 0 0 Z " fill="#44ABD9" transform="translate(173,207)"/>
<path d="M0 0 C1.32 0 2.64 0 4 0 C4.33 1.98 4.66 3.96 5 6 C3.31237149 4.3545622 1.6459651 2.68711423 0 1 C0 0.67 0 0.34 0 0 Z " fill="#29A2D9" transform="translate(24,180)"/>
</svg>
