<?xml version="1.0" standalone="no"?>
<!DOCTYPE svg PUBLIC "-//W3C//DTD SVG 20010904//EN"
 "http://www.w3.org/TR/2001/REC-SVG-20010904/DTD/svg10.dtd">
<svg version="1.0" xmlns="http://www.w3.org/2000/svg"
 width="128.000000pt" height="128.000000pt" viewBox="0 0 128.000000 128.000000"
 preserveAspectRatio="xMidYMid meet">

<g transform="translate(0.000000,128.000000) scale(0.100000,-0.100000)"
fill="#000000" stroke="none">
<path d="M465 1130 c-11 -5 -38 -9 -61 -9 -28 -1 -47 -8 -59 -21 -18 -19 -17
-20 2 -20 29 0 49 -28 63 -90 7 -30 17 -60 22 -67 5 -6 8 -59 6 -117 -2 -98 3
-128 18 -113 3 3 8 23 11 44 3 21 9 46 15 56 8 17 14 14 53 -22 25 -23 49 -41
54 -41 18 0 29 27 36 94 7 73 22 116 38 116 13 0 2 79 -17 125 -26 61 -115 93
-181 65z m26 -71 c59 -30 41 -34 -22 -5 -30 13 -46 25 -36 25 10 1 36 -8 58
-20z"/>
<path d="M718 748 c6 -7 15 -39 21 -71 9 -51 42 -117 58 -117 3 0 0 6 -6 13
-6 8 -8 17 -4 20 3 4 15 -7 25 -24 14 -23 16 -34 8 -44 -8 -10 -21 -2 -58 35
-26 27 -56 61 -68 76 -39 51 -57 3 -33 -90 9 -36 31 -65 120 -155 100 -102
138 -128 153 -103 6 10 74 3 81 -8 3 -4 24 -1 47 7 30 10 48 12 59 5 9 -6 47
-12 85 -13 l69 -3 3 32 c3 28 -1 33 -40 51 -24 12 -35 19 -25 16 11 -3 30 -8
44 -11 l26 -7 -22 22 c-12 12 -27 19 -32 15 -20 -12 8 30 30 46 31 22 30 114
-1 141 -118 103 -331 178 -507 179 -34 0 -41 -3 -33 -12z m218 -195 c8 -11 13
-13 14 -5 0 6 7 12 15 12 15 0 19 -10 16 -40 -2 -24 44 -61 58 -47 8 8 11 8
11 -1 0 -6 15 -14 34 -18 19 -3 37 -13 40 -21 3 -8 10 -11 16 -8 6 3 7 -1 4
-10 -5 -13 -14 -15 -48 -8 -22 4 -58 8 -78 8 -30 0 -38 4 -38 19 0 13 3 16 13
9 6 -6 30 -13 52 -16 l40 -7 -40 15 c-22 9 -45 22 -51 31 -10 12 -13 12 -18 2
-5 -10 -7 -10 -12 0 -3 6 -17 12 -30 12 -25 0 -28 19 -9 49 5 10 4 16 -3 19
-7 2 -12 8 -12 13 0 14 12 11 26 -8z m88 -25 c-6 -19 -4 -21 7 -11 10 8 19 9
29 1 13 -8 12 -9 -2 -5 -9 3 -19 1 -22 -6 -3 -8 -10 -6 -20 7 -13 16 -13 22
-3 28 18 11 19 10 11 -14z m-180 -16 c3 -5 -1 -9 -9 -9 -8 0 -12 4 -9 9 3 4 7
8 9 8 2 0 6 -4 9 -8z m40 -45 c10 10 7 -10 -4 -27 -8 -12 -10 -12 -10 -1 0 8
-8 20 -17 28 -16 13 -16 13 3 4 12 -6 24 -7 28 -4z m359 -20 c4 3 7 4 7 1 0
-3 -8 -12 -17 -21 -17 -14 -18 -14 -18 8 0 16 4 20 11 14 6 -5 14 -6 17 -2z
m-314 -59 c3 -1 16 2 29 6 30 10 37 3 20 -23 -10 -16 -10 -23 0 -33 6 -6 12
-15 12 -19 0 -10 -39 -18 -45 -9 -3 4 -13 6 -23 3 -23 -6 -42 16 -47 55 -3 31
2 33 54 20z m220 -28 c41 -12 86 -28 100 -36 l26 -15 -25 7 c-14 4 -35 7 -47
6 -13 -1 -23 2 -23 7 0 9 -51 26 -120 40 -37 7 -40 9 -15 10 17 1 64 -8 104
-19z"/>
<path d="M381 678 c-58 -59 -111 -167 -111 -228 0 -47 -1 -48 -67 -98 -147
-109 -203 -161 -203 -187 0 -14 4 -25 9 -25 4 0 48 30 97 66 49 36 110 77 136
91 l47 26 -6 56 c-5 56 -5 58 34 98 28 29 52 71 78 137 21 53 36 99 33 101 -3
3 -24 -14 -47 -37z"/>
<path d="M796 551 c-3 -5 1 -11 9 -15 8 -3 15 -1 15 4 0 13 -18 22 -24 11z"/>
<path d="M325 250 c13 -45 33 -76 69 -108 20 -17 36 -33 36 -36 0 -7 -188 4
-249 15 -30 5 -83 9 -118 9 -60 0 -63 -1 -63 -24 l0 -25 274 2 c151 1 277 5
281 8 3 4 -13 9 -37 13 -67 11 -115 44 -160 111 -22 33 -37 49 -33 35z"/>
</g>
</svg>
