<?xml version="1.0" encoding="UTF-8"?>
<svg version="1.1" xmlns="http://www.w3.org/2000/svg" width="221" height="228">
<path d="M0 0 C9.39441859 7.88899558 16.75548231 18.62731453 21.34765625 30.00390625 C21.34765625 30.66390625 21.34765625 31.32390625 21.34765625 32.00390625 C20.33445312 32.04128906 19.32125 32.07867187 18.27734375 32.1171875 C16.92574686 32.18289013 15.57418596 32.24933596 14.22265625 32.31640625 C13.22492188 32.35024414 13.22492188 32.35024414 12.20703125 32.38476562 C6.26841286 32.70498524 2.10009047 34.10938277 -1.96484375 38.50390625 C-5.46665276 43.69177146 -5.1706518 48.95697904 -4.65234375 55.00390625 C-2.71182374 64.6570663 1.65814844 73.2244377 6.21386719 81.85546875 C7.40783025 84.11793105 8.58533114 86.38851121 9.76171875 88.66015625 C10.56024175 90.1919051 11.35969801 91.72316783 12.16015625 93.25390625 C12.53293701 93.96901367 12.90571777 94.68412109 13.28979492 95.42089844 C15.1029138 98.84745894 17.00830128 101.90444541 19.34765625 105.00390625 C19.34765625 105.66390625 19.34765625 106.32390625 19.34765625 107.00390625 C18.39890625 107.60203125 17.45015625 108.20015625 16.47265625 108.81640625 C13.01685415 111.23546772 12.55790632 112.10834858 11.34765625 116.00390625 C11.04175937 117.9670565 10.81031725 119.94263389 10.63671875 121.921875 C10.47441772 123.66174683 10.47441772 123.66174683 10.30883789 125.43676758 C10.19789795 126.67579834 10.08695801 127.9148291 9.97265625 129.19140625 C8.99175469 139.26517005 7.88063398 149.30049707 6.41015625 159.31640625 C6.26465332 160.37561279 6.11915039 161.43481934 5.96923828 162.52612305 C4.80622273 170.15956639 3.0799507 176.2716118 -2.46484375 181.81640625 C-10.00277603 186.98949703 -17.63297256 188.83547948 -26.65234375 188.00390625 C-32.52654387 186.16101994 -35.65101632 182.1837673 -38.65234375 177.00390625 C-42.33235704 168.03272957 -41.72521364 157.21983358 -41.86328125 147.69921875 C-41.87761703 146.76654678 -41.89195282 145.83387482 -41.90672302 144.87294006 C-41.96445239 140.96481768 -42.01913463 137.05684133 -42.05371094 133.1484375 C-42.08128635 130.26918397 -42.12709514 127.39068234 -42.17578125 124.51171875 C-42.17903412 123.63146027 -42.18228699 122.75120178 -42.18563843 121.8442688 C-42.28114882 117.08785127 -42.56765925 113.86856031 -45.65234375 110.00390625 C-48.73915983 107.87506758 -51.97998986 107.50468178 -55.65234375 107.00390625 C-53.86673768 100.44216686 -51.59889126 94.27308787 -48.8359375 88.05859375 C-46.06044938 80.89545278 -45.29307659 74.4956711 -45.33984375 66.87890625 C-45.34330811 65.96109375 -45.34677246 65.04328125 -45.3503418 64.09765625 C-45.49940941 54.68910152 -46.16549697 44.96330676 -51.65234375 37.00390625 C-57.18354615 32.78272547 -64.02782912 33.28219881 -70.65234375 34.00390625 C-73.71780496 34.86327705 -76.57628551 35.89277188 -79.5078125 37.12890625 C-81.65234375 38.00390625 -81.65234375 38.00390625 -83.65234375 38.00390625 C-84.76540727 24.36887814 -78.86655153 9.16435546 -70.40234375 -1.37109375 C-51.25152573 -21.4398159 -20.06146314 -15.09780216 0 0 Z " fill="#376A93" transform="translate(154.65234375,27.99609375)"/>
<path d="M0 0 C-0.76183594 0.94746094 -0.76183594 0.94746094 -1.5390625 1.9140625 C-15.98802509 20.69230228 -17.4947195 40.3439482 -17.87329102 63.22631836 C-17.9376909 66.82316202 -18.03908296 70.41776535 -18.14257812 74.01367188 C-18.18973866 76.32808047 -18.23473613 78.64253436 -18.27734375 80.95703125 C-18.31045151 82.01767288 -18.34355927 83.07831451 -18.37767029 84.1710968 C-18.47358804 93.2936332 -16.04626562 100.66208026 -10.75 108.125 C-10.22921875 108.87007813 -9.7084375 109.61515625 -9.171875 110.3828125 C-8.78515625 110.91648437 -8.3984375 111.45015625 -8 112 C-8.61746094 112.66644531 -9.23492187 113.33289063 -9.87109375 114.01953125 C-15.1707395 119.78703005 -20.23021106 125.63785319 -25.08984375 131.78515625 C-27.44705119 134.51835997 -29.17042726 135.84916859 -32.75 136.5 C-37.49669312 135.76973952 -40.00480277 133.56270828 -43 130 C-62.03349717 101.7269411 -75.8170324 55.64522769 -69.34423828 21.81689453 C-67.40425934 12.51336329 -63.39278776 4.81041161 -55.375 -0.6875 C-40.94712121 -8.97017116 -14.13345116 -9.42230077 0 0 Z " fill="#376A93" transform="translate(83,21)"/>
<path d="M0 0 C10.10343431 6.99691859 19.20999183 15.35238243 21.53125 27.86328125 C24.87670088 58.39052055 11.09360567 94.60554429 -5 120 C-3.85402344 119.82082031 -2.70804688 119.64164063 -1.52734375 119.45703125 C0.00246083 119.24116925 1.53241741 119.02638251 3.0625 118.8125 C3.81466797 118.69197266 4.56683594 118.57144531 5.34179688 118.44726562 C10.86484682 117.7060771 14.13571839 118.20045715 19 121 C21.81104621 123.78224451 22.45066414 125.89646619 22.5 129.8125 C22.30276917 135.18506771 20.87552087 138.30642847 17 142 C5.07092687 151.88408916 -8.0660661 153.95337493 -23 155 C-23.03963867 155.648479 -23.07927734 156.29695801 -23.12011719 156.96508789 C-25.5963485 195.5963485 -25.5963485 195.5963485 -39 209 C-49.64092325 216.87930433 -60.90612867 219.16246453 -74 218 C-80.39400457 216.63715711 -85.93078044 212.18771661 -89.4453125 206.7734375 C-95.5976518 195.16872564 -96.9578612 182.9055691 -97.5625 170 C-97.60568359 169.12988281 -97.64886719 168.25976562 -97.69335938 167.36328125 C-97.79824218 165.24231781 -97.89950075 163.12117567 -98 161 C-98.82113281 161.32226562 -99.64226562 161.64453125 -100.48828125 161.9765625 C-104.44191215 163.12878864 -108.10427415 163.38371798 -112.1875 163.375 C-112.93346436 163.37411377 -113.67942871 163.37322754 -114.44799805 163.37231445 C-122.62829548 163.19845335 -129.55457193 161.1474929 -136 156 C-137.11375 156.66 -138.2275 157.32 -139.375 158 C-144.90332976 160.73486278 -150.24492222 161.1434381 -156.16796875 159.33984375 C-170.17786181 153.0801043 -176.81251136 137.52561579 -182.06567383 124.05200195 C-194.10591756 92.06409109 -207.64573452 51.15521308 -193.6796875 17.8515625 C-187.75820886 6.04096303 -179.03039555 -0.11924742 -167 -5 C-160.51285633 -7.03784618 -154.46663111 -7.38426036 -147.6875 -7.375 C-146.64166748 -7.37556396 -145.59583496 -7.37612793 -144.51831055 -7.37670898 C-133.7937582 -7.22760976 -123.64944734 -5.27200003 -113.3828125 -2.22265625 C-109.97261877 -1.9039988 -107.69067446 -3.04119652 -104.5625 -4.375 C-98.02567067 -7.13791015 -92.51489975 -8.14113832 -85.421875 -8.02734375 C-84.17792969 -8.01509766 -82.93398437 -8.00285156 -81.65234375 -7.99023438 C-79.06634734 -7.95528848 -76.48040246 -7.91627572 -73.89453125 -7.87304688 C-67.5005086 -7.81695896 -61.72199594 -8.08768396 -55.49853516 -9.53051758 C-36.6268243 -13.07656995 -16.36256591 -9.97381124 0 0 Z M-49 -3.125 C-49.76094971 -3.03694092 -50.52189941 -2.94888184 -51.3059082 -2.8581543 C-56.46606674 -2.24063876 -61.53132324 -1.40895972 -66.60546875 -0.26953125 C-69.57959803 0.06524024 -72.05330945 -0.48020666 -75 -1 C-85.9168267 -1.56597706 -96.34637427 -1.65297099 -106.1875 3.75 C-111.44475754 6.08655891 -117.49365488 3.9628846 -122.88305664 2.53930664 C-138.81180597 -1.64210836 -157.07537171 -3.63062799 -172.1875 4.4375 C-181.52731381 10.20117329 -187.28999397 18.35396762 -190.4921875 28.83203125 C-198.28638218 62.10724698 -184.71892799 107.63705522 -168.4375 136.8125 C-163.89520548 144.0224913 -159.54653361 150.71074993 -151 153 C-145.14053122 153 -141.18681241 150.95179384 -137 147 C-134.67597114 144.35237218 -132.47233893 141.63582696 -130.2890625 138.87109375 C-127.01909339 134.76968198 -123.521144 130.88573112 -120 127 C-119.40832031 127.144375 -118.81664063 127.28875 -118.20703125 127.4375 C-114.07470059 128.40822694 -110.2770238 129.27593702 -106 129 C-106.66 129.78375 -107.32 130.5675 -108 131.375 C-110.20201441 133.71512812 -110.20201441 133.71512812 -110 136 C-111.03447266 136.27263672 -111.03447266 136.27263672 -112.08984375 136.55078125 C-116.76593952 137.80158876 -121.43590352 139.07585222 -126.0625 140.5 C-126.77535156 140.7165625 -127.48820312 140.933125 -128.22265625 141.15625 C-130.36096907 141.98487295 -130.36096907 141.98487295 -132 145 C-132.14768913 147.51749828 -132.14768913 147.51749828 -131 150 C-125.21226621 155.06426706 -117.6743345 156.48085504 -110.109375 156.25390625 C-103.23306773 155.4262026 -98.32504204 153.38305112 -93 149 C-92.9498877 149.96711914 -92.89977539 150.93423828 -92.84814453 151.93066406 C-92.65740224 155.57655854 -92.45763556 159.22191563 -92.25537109 162.8671875 C-92.16963959 164.43411542 -92.08623897 166.00117292 -92.00537109 167.56835938 C-91.4288713 189.4309808 -91.4288713 189.4309808 -80.375 207.5 C-79.199375 208.2425 -79.199375 208.2425 -78 209 C-77.401875 209.391875 -76.80375 209.78375 -76.1875 210.1875 C-67.55104495 213.39532616 -58.57634768 211.6401143 -50.25 208.25 C-42.63185036 204.54313649 -38.04072862 199.92363268 -35 192 C-34.04836393 188.21948939 -33.44423226 184.4171122 -32.875 180.5625 C-32.6279834 178.98601685 -32.6279834 178.98601685 -32.37597656 177.37768555 C-29.77653501 161.76079235 -29.77653501 161.76079235 -29 146 C-28.360625 146.165 -27.72125 146.33 -27.0625 146.5 C-14.55832062 148.54149867 -1.48055608 145.69787362 9 138.65625 C12.60178837 135.92586204 13.84067995 134.65852287 14.9375 130.125 C14.958125 129.09375 14.97875 128.0625 15 127 C11.71971273 124.81314182 11.5831641 124.79913434 8 125.375 C-0.28673529 126.42630224 -8.66328679 126.07703328 -17 126 C-16.67314209 125.41210693 -16.34628418 124.82421387 -16.00952148 124.21850586 C-0.96136157 97.08313046 13.87842318 68.23223225 14.375 36.5 C14.38926025 35.76966553 14.40352051 35.03933105 14.41821289 34.28686523 C14.33236219 25.03724739 10.88109575 19.01891037 4.578125 12.390625 C-10.08918762 -1.20997398 -29.61515163 -5.40792201 -49 -3.125 Z " fill="#232323" transform="translate(199,10)"/>
<path d="M0 0 C11.58628635 9.65579625 11.58628635 9.65579625 12.86279297 16.49902344 C15.42769336 45.19170912 2.9950795 74.47958113 -10.59423828 99.08886719 C-10.9594458 99.75499023 -11.32465332 100.42111328 -11.70092773 101.10742188 C-14.27882564 105.58789631 -14.27882564 105.58789631 -17.65673828 106.71386719 C-17.05362956 103.39384151 -16.20823935 100.33192095 -15.09423828 97.15136719 C-12.66258526 89.18028998 -13.39207079 81.22196893 -14.43017578 73.06542969 C-15.12634278 65.8396964 -14.68751984 58.87467543 -13.65673828 51.71386719 C-12.3345521 34.5821119 -18.53805134 22.13961954 -29.28173828 9.08886719 C-35.75718175 2.05694029 -44.07917925 -3.19054156 -52.65673828 -7.28613281 C-41.64000085 -18.30287024 -9.9779105 -7.74589339 0 0 Z " fill="#3B6D95" transform="translate(194.65673828125,22.2861328125)"/>
<path d="M0 0 C6.65257764 5.89228305 6.83640352 16.55640912 7.37890625 24.87109375 C7.61072496 35.76657296 4.63956452 45.04821028 0.5625 55.0625 C0.14226562 56.114375 -0.27796875 57.16625 -0.7109375 58.25 C-1.73720334 60.8156646 -2.77113658 63.37793495 -3.8125 65.9375 C-11.13906456 66.10185033 -15.76731084 64.48544257 -21.359375 59.5703125 C-26.86432765 53.3846399 -28.77874173 46.03348333 -28.8125 37.9375 C-28.66433208 36.38947451 -28.49188013 34.84360647 -28.296875 33.30078125 C-27.90567817 29.6682393 -27.80058863 26.19272018 -27.9609375 22.54296875 C-27.99574219 21.65029297 -28.03054687 20.75761719 -28.06640625 19.83789062 C-28.14805828 18.00862174 -28.25274668 16.18025465 -28.37890625 14.35351562 C-28.5775517 7.85024201 -28.5775517 7.85024201 -26.40112305 5.25366211 C-19.16853691 -0.11864061 -8.65935389 -3.27131147 0 0 Z M-9.8125 3.9375 C-9.43345792 7.22825996 -9.43345792 7.22825996 -7.8125 9.9375 C-5.47952567 9.97842937 -3.14544775 9.97991723 -0.8125 9.9375 C-0.1525 8.6175 0.5075 7.2975 1.1875 5.9375 C-0.59907757 3.72379949 -0.59907757 3.72379949 -2.9765625 3.7421875 C-3.78867188 3.76539062 -4.60078125 3.78859375 -5.4375 3.8125 C-6.66339844 3.83957031 -6.66339844 3.83957031 -7.9140625 3.8671875 C-8.85378906 3.90199219 -8.85378906 3.90199219 -9.8125 3.9375 Z " fill="#396C94" transform="translate(97.8125,67.0625)"/>
<path d="M0 0 C1.63001953 0.01353516 1.63001953 0.01353516 3.29296875 0.02734375 C4.12441406 0.03894531 4.95585937 0.05054687 5.8125 0.0625 C7.08753087 3.46258231 6.52486834 6.28164939 6.05270386 9.80584717 C5.64961116 13.59279833 5.73030588 17.3605724 5.78515625 21.1640625 C5.79779365 22.88801889 5.81015525 24.61197732 5.82226562 26.3359375 C5.84711433 29.01959791 5.87519391 31.70314884 5.90844727 34.38671875 C5.93872898 37.00000688 5.95643804 39.61315452 5.97265625 42.2265625 C5.98611588 43.02357574 5.9995755 43.82058899 6.01344299 44.64175415 C6.03380405 49.18873299 5.54531683 52.77810505 3.8125 57.0625 C-0.72677445 53.04581713 -2.95160297 47.23943792 -5.6875 41.9375 C-6.26886719 40.8340625 -6.85023438 39.730625 -7.44921875 38.59375 C-12.39903138 29.05658242 -17.96791694 18.25241792 -15.5625 7.1875 C-11.62013543 1.09475475 -6.86850836 -0.07385493 0 0 Z M-10.1875 6.0625 C-9.8575 7.0525 -9.5275 8.0425 -9.1875 9.0625 C-6.8859589 9.84052187 -6.8859589 9.84052187 -4.1875 10.0625 C-1.88245956 8.73096734 -1.88245956 8.73096734 -0.1875 7.0625 C-0.5175 6.0725 -0.8475 5.0825 -1.1875 4.0625 C-5.9772321 3.82821687 -5.9772321 3.82821687 -10.1875 6.0625 Z " fill="#427299" transform="translate(170.1875,64.9375)"/>
<path d="M0 0 C2.5 1.4375 2.5 1.4375 4.0625 4.1875 C4.5 7.4375 4.5 7.4375 3.125 10.5 C-1.24843551 15.39408259 -6.71460699 19.22018104 -13.42578125 19.60546875 C-15.10220703 19.61513672 -15.10220703 19.61513672 -16.8125 19.625 C-17.92238281 19.63917969 -19.03226563 19.65335938 -20.17578125 19.66796875 C-23.5961836 19.43083157 -26.30973443 18.65858501 -29.5 17.4375 C-29.5 16.7775 -29.5 16.1175 -29.5 15.4375 C-28.44941406 15.19257813 -27.39882812 14.94765625 -26.31640625 14.6953125 C-16.21901664 12.09341311 -10.94877622 8.93101014 -4.5 0.4375 C-2.5 -0.5625 -2.5 -0.5625 0 0 Z " fill="#46769B" transform="translate(103.5,140.5625)"/>
<path d="M0 0 C8.08646233 2.88425936 16.72004139 1.84595517 25.0625 0.5625 C24.0625 3.5625 24.0625 3.5625 21.515625 5.1328125 C20.45859375 5.64585937 19.4015625 6.15890625 18.3125 6.6875 C17.26578125 7.20570313 16.2190625 7.72390625 15.140625 8.2578125 C9.80041318 10.5213033 5.15926924 10.6988306 -0.625 10.6875 C-1.30111328 10.69136719 -1.97722656 10.69523438 -2.67382812 10.69921875 C-7.6840035 10.68924825 -7.6840035 10.68924825 -9.9375 9.5625 C-10.30408354 3.08619077 -10.30408354 3.08619077 -8.625 0.6875 C-5.23963101 -1.56941266 -3.57312558 -1.49711966 0 0 Z " fill="#4B799E" transform="translate(180.9375,140.4375)"/>
<path d="M0 0 C8.78723404 -0.44680851 8.78723404 -0.44680851 13 3 C13.33 3.99 13.66 4.98 14 6 C13.01 6.33 12.02 6.66 11 7 C10.67 6.67 10.34 6.34 10 6 C8.65252916 5.76924918 7.29622435 5.58846937 5.9375 5.4375 C4.638125 5.293125 3.33875 5.14875 2 5 C2 4.67 2 4.34 2 4 C3.98 4 5.96 4 8 4 C8 3.34 8 2.68 8 2 C5.36 2 2.72 2 0 2 C0 1.34 0 0.68 0 0 Z " fill="#7799B5" transform="translate(87,66)"/>
<path d="M0 0 C1.20628008 2.33214148 2.1654738 4.49642139 3 7 C2.07421875 9.04296875 2.07421875 9.04296875 0.6875 11.1875 C0.23761719 11.90292969 -0.21226562 12.61835937 -0.67578125 13.35546875 C-1.11277344 13.89816406 -1.54976562 14.44085938 -2 15 C-2.66 15 -3.32 15 -4 15 C-3.34728444 11.48294042 -2.48606976 8.10674923 -1.4375 4.6875 C-1.16808594 3.80449219 -0.89867187 2.92148438 -0.62109375 2.01171875 C-0.41613281 1.34785156 -0.21117187 0.68398437 0 0 Z " fill="#7598B4" transform="translate(181,114)"/>
<path d="M0 0 C0 0.66 0 1.32 0 2 C1.32 2.33 2.64 2.66 4 3 C2.329375 3.433125 2.329375 3.433125 0.625 3.875 C-3.00291092 4.69241329 -3.00291092 4.69241329 -5 7 C-5 6.34 -5 5.68 -5 5 C-5.99 4.67 -6.98 4.34 -8 4 C-3.375 0 -3.375 0 0 0 Z " fill="#6289A9" transform="translate(164,66)"/>
<path d="M0 0 C0 0.66 0 1.32 0 2 C-0.99 2.33 -1.98 2.66 -3 3 C-3.33 3.66 -3.66 4.32 -4 5 C-6.97 4.505 -6.97 4.505 -10 4 C-10 3.34 -10 2.68 -10 2 C-3.375 0 -3.375 0 0 0 Z " fill="#658CAB" transform="translate(84,154)"/>
</svg>
