<?xml version="1.0" encoding="UTF-8"?>
<!DOCTYPE svg PUBLIC "-//W3C//DTD SVG 1.1//EN" "http://www.w3.org/Graphics/SVG/1.1/DTD/svg11.dtd">
<svg xmlns="http://www.w3.org/2000/svg" version="1.1" width="400px" height="400px" style="shape-rendering:geometricPrecision; text-rendering:geometricPrecision; image-rendering:optimizeQuality; fill-rule:evenodd; clip-rule:evenodd" xmlns:xlink="http://www.w3.org/1999/xlink">
<g><path style="opacity:0.989" fill="#40b782" d="M -0.5,26.5 C 26.1667,26.5 52.8333,26.5 79.5,26.5C 119.109,95.4309 159.109,164.098 199.5,232.5C 239.891,164.098 279.891,95.4309 319.5,26.5C 346.167,26.5 372.833,26.5 399.5,26.5C 399.5,27.1667 399.5,27.8333 399.5,28.5C 333.097,142.97 266.431,257.303 199.5,371.5C 132.569,257.303 65.9027,142.97 -0.5,28.5C -0.5,27.8333 -0.5,27.1667 -0.5,26.5 Z"/></g>
<g><path style="opacity:1" fill="#35495e" d="M 79.5,26.5 C 104.509,26.1669 129.509,26.5002 154.5,27.5C 169.289,52.2765 183.622,77.2765 197.5,102.5C 198.833,106.5 200.167,106.5 201.5,102.5C 215.378,77.2765 229.711,52.2765 244.5,27.5C 269.491,26.5002 294.491,26.1669 319.5,26.5C 279.891,95.4309 239.891,164.098 199.5,232.5C 159.109,164.098 119.109,95.4309 79.5,26.5 Z"/></g>
<g><path style="opacity:0.008" fill="#3a6e6d" d="M 197.5,102.5 C 198.833,103.833 200.167,103.833 201.5,102.5C 200.167,106.5 198.833,106.5 197.5,102.5 Z"/></g>
</svg>
