<?xml version="1.0" standalone="no"?>
<!DOCTYPE svg PUBLIC "-//W3C//DTD SVG 20010904//EN"
 "http://www.w3.org/TR/2001/REC-SVG-20010904/DTD/svg10.dtd">
<svg version="1.0" xmlns="http://www.w3.org/2000/svg"
 width="225.000000pt" height="225.000000pt" viewBox="0 0 225.000000 225.000000"
 preserveAspectRatio="xMidYMid meet">

<g transform="translate(0.000000,225.000000) scale(0.100000,-0.100000)"
fill="#000000" stroke="none">
<path d="M575 1840 c-331 -25 -409 -83 -447 -335 -19 -126 -16 -656 5 -775 34
-199 107 -267 318 -300 110 -17 954 -25 1180 -11 376 23 453 76 491 339 19
132 16 650 -4 770 -35 200 -102 265 -306 299 -78 12 -199 16 -617 18 -286 2
-565 0 -620 -5z m624 -550 c143 -74 261 -137 261 -140 0 -3 -33 -22 -72 -42
-40 -21 -161 -83 -268 -138 -107 -55 -196 -100 -197 -100 -2 0 -3 126 -3 281
0 164 4 279 9 277 5 -1 126 -64 270 -138z"/>
</g>
</svg>
